SplineFontDB: 3.0
FontName: greextra
FullName: greextra
FamilyName: greextra
Weight: Extra-Light
Copyright: greextra font, adapted with fontforge by Elie Roux\nCopyright (C) 2007-2018 Matthew Spencer\nwith Reserved Font Name Caeciliae\n\nThis Font Software is licensed under the SIL Open Font License, Version 1.1.\n\nThis license is available with a FAQ at: http://scripts.sil.org/OFL
Version: 1.0
ItalicAngle: 0
UnderlinePosition: -204
UnderlineWidth: 102
Ascent: 800
Descent: 200
sfntRevision: 0x00010000
LayerCount: 2
Layer: 0 1 "Arri+AOgA-re"  1
Layer: 1 1 "Avant"  0
XUID: [1021 749 1361494454 10399503]
FSType: 0
OS2Version: 4
OS2_WeightWidthSlopeOnly: 0
OS2_UseTypoMetrics: 1
CreationTime: 1176402534
ModificationTime: 1436630670
PfmFamily: 17
TTFWeight: 200
TTFWidth: 5
LineGap: 90
VLineGap: 0
Panose: 2 0 3 3 0 0 0 0 0 0
OS2TypoAscent: 800
OS2TypoAOffset: 0
OS2TypoDescent: -200
OS2TypoDOffset: 0
OS2TypoLinegap: 90
OS2WinAscent: 699
OS2WinAOffset: 0
OS2WinDescent: 470
OS2WinDOffset: 0
HheadAscent: 699
HheadAOffset: 0
HheadDescent: -470
HheadDOffset: 0
OS2SubXSize: 650
OS2SubYSize: 700
OS2SubXOff: 0
OS2SubYOff: 140
OS2SupXSize: 650
OS2SupYSize: 700
OS2SupXOff: 0
OS2SupYOff: 480
OS2StrikeYSize: 49
OS2StrikeYPos: 258
OS2Vendor: 'PfEd'
OS2CodePages: 00000001.00000000
OS2UnicodeRanges: 00000000.10000000.00000000.00000000
DEI: 91125
ShortTable: cvt  2
  33
  633
EndShort
ShortTable: maxp 16
  1
  0
  37
  69
  2
  0
  0
  2
  0
  1
  1
  0
  64
  46
  0
  0
EndShort
LangName: 1033 "" "" "Medium" "FontForge 2.0 : greextra : 22-4-2015" 
GaspTable: 1 65535 2 0
Encoding: UnicodeBmp
Compacted: 1
UnicodeInterp: none
NameList: Adobe Glyph List
DisplaySize: -96
AntiAlias: 1
FitToEm: 1
WinInfo: 0 16 4
BeginChars: 65539 83

StartChar: .notdef
Encoding: 65536 -1 0
Width: 364
Flags: W
LayerCount: 2
Fore
SplineSet
33 0 m 1,0,-1
 33 666 l 1,1,-1
 298 666 l 1,2,-1
 298 0 l 1,3,-1
 33 0 l 1,0,-1
66 33 m 1,4,-1
 265 33 l 1,5,-1
 265 633 l 1,6,-1
 66 633 l 1,7,-1
 66 33 l 1,4,-1
EndSplineSet
EndChar

StartChar: MedicaeaFlat
Encoding: 57344 57344 3
Width: 144
Flags: W
LayerCount: 2
Fore
SplineSet
21 -49 m 1,0,1
 20 -58 20 -58 17 -58 c 0,2,3
 12 -58 12 -58 12 -35 c 2,4,-1
 12 267 l 2,5,6
 12 291 12 291 17 291 c 128,-1,7
 22 291 22 291 22 267 c 2,8,-1
 22 150 l 1,9,10
 52 179 52 179 86 179 c 0,11,12
 111 179 111 179 127.5 162.5 c 128,-1,13
 144 146 144 146 144 124 c 0,14,15
 144 104 144 104 129.5 79 c 128,-1,16
 115 54 115 54 92 23 c 128,-1,17
 69 -8 69 -8 59 -28 c 0,18,19
 57 -33 57 -33 43 -41 c 128,-1,20
 29 -49 29 -49 21 -49 c 1,0,1
22 143 m 1,21,-1
 22 -38 l 1,22,-1
 23 -37 l 1,23,24
 32 -20 32 -20 54 9.5 c 128,-1,25
 76 39 76 39 89 62 c 128,-1,26
 102 85 102 85 102 103 c 0,27,28
 102 122 102 122 88.5 137.5 c 128,-1,29
 75 153 75 153 57 153 c 0,30,31
 50 153 50 153 43.5 151 c 128,-1,32
 37 149 37 149 30.5 146 c 128,-1,33
 24 143 24 143 22 143 c 1,21,-1
EndSplineSet
EndChar

StartChar: HufnagelCustosUpShort
Encoding: 57345 57345 4
Width: 165
Flags: W
LayerCount: 2
Fore
SplineSet
313 282 m 0,0,1
 314 282 314 282 314 280 c 0,2,3
 314 266 314 266 283 220 c 1,4,-1
 134 8 l 1,5,6
 124 -8 124 -8 109 -25 c 128,-1,7
 94 -42 94 -42 88 -42 c 0,8,9
 86 -42 86 -42 86 -42 c 1,10,-1
 25 81 l 2,11,12
 22 88 22 88 41 118 c 128,-1,13
 60 148 60 148 81 173 c 128,-1,14
 102 198 102 198 105 191 c 2,15,-1
 160 81 l 1,16,-1
 266 232 l 1,17,18
 276 248 276 248 291.5 265 c 128,-1,19
 307 282 307 282 313 282 c 0,0,1
EndSplineSet
EndChar

StartChar: HufnagelCustosUpLong
Encoding: 57346 57346 5
Width: 172
Flags: W
LayerCount: 2
Fore
SplineSet
393 386 m 0,0,1
 396 386 396 386 396 383 c 0,2,3
 396 370 396 370 364 324 c 2,4,-1
 141 5 l 2,5,6
 131 -10 131 -10 115.5 -27.5 c 128,-1,7
 100 -45 100 -45 94 -45 c 0,8,9
 92 -45 92 -45 92 -44 c 2,10,-1
 32 78 l 2,11,12
 29 85 29 85 47.5 115.5 c 128,-1,13
 66 146 66 146 87.5 170.5 c 128,-1,14
 109 195 109 195 112 189 c 2,15,-1
 166 78 l 1,16,-1
 347 336 l 2,17,18
 357 351 357 351 372 368.5 c 128,-1,19
 387 386 387 386 393 386 c 0,0,1
EndSplineSet
EndChar

StartChar: HufnagelCustosUpMedium
Encoding: 57347 57347 6
Width: 169
Flags: W
LayerCount: 2
Fore
SplineSet
353 326 m 0,0,1
 355 326 355 326 355 322 c 0,2,3
 355 310 355 310 324 264 c 2,4,-1
 138 -2 l 2,5,6
 127 -18 127 -18 112 -35.5 c 128,-1,7
 97 -53 97 -53 91 -53 c 0,8,9
 89 -53 89 -53 89 -52 c 2,10,-1
 29 71 l 2,11,12
 26 77 26 77 44.5 107.5 c 128,-1,13
 63 138 63 138 84 163 c 128,-1,14
 105 188 105 188 109 181 c 2,15,-1
 163 71 l 1,16,-1
 307 275 l 1,17,18
 317 291 317 291 332 308.5 c 128,-1,19
 347 326 347 326 353 326 c 0,0,1
EndSplineSet
EndChar

StartChar: HufnagelCustosDownShort
Encoding: 57348 57348 7
Width: 165
Flags: W
LayerCount: 2
Fore
SplineSet
314 -142 m 0,0,1
 314 -144 314 -144 313 -144 c 0,2,3
 307 -144 307 -144 291.5 -127 c 128,-1,4
 276 -110 276 -110 266 -94 c 1,5,-1
 160 57 l 1,6,-1
 105 -53 l 1,7,8
 103 -60 103 -60 81.5 -35.5 c 128,-1,9
 60 -11 60 -11 41 19.5 c 128,-1,10
 22 50 22 50 25 57 c 2,11,-1
 86 180 l 1,12,13
 86 180 86 180 88 180 c 0,14,15
 94 180 94 180 109 163 c 128,-1,16
 124 146 124 146 134 130 c 1,17,-1
 283 -82 l 1,18,19
 314 -128 314 -128 314 -142 c 0,0,1
EndSplineSet
EndChar

StartChar: HufnagelCustosDownLong
Encoding: 57349 57349 8
Width: 172
Flags: W
LayerCount: 2
Fore
SplineSet
396 -255 m 0,0,1
 396 -258 396 -258 393 -258 c 0,2,3
 387 -258 387 -258 372 -240.5 c 128,-1,4
 357 -223 357 -223 347 -208 c 2,5,-1
 166 50 l 1,6,-1
 112 -61 l 2,7,8
 109 -67 109 -67 87.5 -42.5 c 128,-1,9
 66 -18 66 -18 47 12 c 128,-1,10
 28 42 28 42 32 50 c 2,11,-1
 92 172 l 2,12,13
 92 173 92 173 94 173 c 0,14,15
 100 173 100 173 115.5 155.5 c 128,-1,16
 131 138 131 138 141 123 c 2,17,-1
 364 -196 l 2,18,19
 396 -242 396 -242 396 -255 c 0,0,1
EndSplineSet
EndChar

StartChar: HufnagelCustosDownMedium
Encoding: 57350 57350 9
Width: 169
Flags: W
LayerCount: 2
Fore
SplineSet
355 -200 m 0,0,1
 355 -204 355 -204 353 -204 c 0,2,3
 347 -204 347 -204 332 -186.5 c 128,-1,4
 317 -169 317 -169 307 -153 c 1,5,-1
 163 51 l 1,6,-1
 109 -59 l 2,7,8
 106 -65 106 -65 84.5 -40.5 c 128,-1,9
 63 -16 63 -16 44 14 c 128,-1,10
 25 44 25 44 29 51 c 2,11,-1
 89 174 l 2,12,13
 89 175 89 175 91 175 c 0,14,15
 97 175 97 175 112 157.5 c 128,-1,16
 127 140 127 140 138 124 c 2,17,-1
 324 -142 l 2,18,19
 355 -188 355 -188 355 -200 c 0,0,1
EndSplineSet
EndChar

StartChar: MedicaeaCustosUpShort
Encoding: 57351 57351 10
Width: 63
Flags: W
LayerCount: 2
Fore
SplineSet
12 -56 m 2,0,1
 5 -56 5 -56 5 61.5 c 128,-1,2
 5 179 5 179 12 179 c 2,3,-1
 51 179 l 1,4,-1
 51 267 l 2,5,6
 51 274 51 274 57 274 c 0,7,8
 64 274 64 274 64 267 c 2,9,-1
 64 61 l 2,10,11
 64 -56 64 -56 57 -56 c 2,12,-1
 12 -56 l 2,0,1
EndSplineSet
EndChar

StartChar: MedicaeaCustosUpLong
Encoding: 57352 57352 11
Width: 63
Flags: W
LayerCount: 2
Fore
SplineSet
12 -47 m 2,0,1
 5 -47 5 -47 5 70.5 c 128,-1,2
 5 188 5 188 12 188 c 2,3,-1
 51 188 l 1,4,-1
 51 383 l 2,5,6
 51 390 51 390 57 390 c 0,7,8
 64 390 64 390 64 383 c 2,9,-1
 64 71 l 2,10,11
 64 -47 64 -47 57 -47 c 2,12,-1
 12 -47 l 2,0,1
EndSplineSet
EndChar

StartChar: MedicaeaCustosUpMedium
Encoding: 57353 57353 12
Width: 63
Flags: W
LayerCount: 2
Fore
SplineSet
12 -50 m 2,0,1
 5 -50 5 -50 5 67 c 128,-1,2
 5 184 5 184 12 184 c 2,3,-1
 51 184 l 1,4,-1
 51 326 l 2,5,6
 51 332 51 332 57 332 c 0,7,8
 64 332 64 332 64 326 c 2,9,-1
 64 67 l 2,10,11
 64 -50 64 -50 57 -50 c 2,12,-1
 12 -50 l 2,0,1
EndSplineSet
EndChar

StartChar: MedicaeaCustosDownShort
Encoding: 57354 57354 13
Width: 63
Flags: W
LayerCount: 2
Fore
SplineSet
57 162 m 2,0,1
 64 162 64 162 64 45 c 2,2,-1
 64 -161 l 2,3,4
 64 -168 64 -168 57 -168 c 0,5,6
 51 -168 51 -168 51 -161 c 2,7,-1
 51 -73 l 1,8,-1
 12 -73 l 2,9,10
 5 -73 5 -73 5 44.5 c 128,-1,11
 5 162 5 162 12 162 c 2,12,-1
 57 162 l 2,0,1
EndSplineSet
EndChar

StartChar: MedicaeaCustosDownLong
Encoding: 57355 57355 14
Width: 63
Flags: W
LayerCount: 2
Fore
SplineSet
57 158 m 2,0,1
 64 158 64 158 64 40 c 2,2,-1
 64 -272 l 2,3,4
 64 -279 64 -279 57 -279 c 0,5,6
 51 -279 51 -279 51 -272 c 2,7,-1
 51 -77 l 1,8,-1
 12 -77 l 2,9,10
 5 -77 5 -77 5 40.5 c 128,-1,11
 5 158 5 158 12 158 c 2,12,-1
 57 158 l 2,0,1
EndSplineSet
EndChar

StartChar: MedicaeaCustosDownMedium
Encoding: 57356 57356 15
Width: 63
Flags: W
LayerCount: 2
Fore
SplineSet
57 168 m 2,0,1
 64 168 64 168 64 51 c 2,2,-1
 64 -208 l 2,3,4
 64 -214 64 -214 57 -214 c 0,5,6
 51 -214 51 -214 51 -208 c 2,7,-1
 51 -66 l 1,8,-1
 12 -66 l 2,9,10
 5 -66 5 -66 5 51 c 128,-1,11
 5 168 5 168 12 168 c 2,12,-1
 57 168 l 2,0,1
EndSplineSet
EndChar

StartChar: MensuralCustosUpShort
Encoding: 57357 57357 16
Width: 343
Flags: W
LayerCount: 2
Fore
SplineSet
7 -24 m 0,0,1
 5 -24 5 -24 2.5 -23 c 128,-1,2
 0 -22 0 -22 0 -19 c 0,3,4
 0 -9 0 -9 28 32 c 1,5,-1
 96 126 l 2,6,7
 108 142 108 142 120.5 154 c 128,-1,8
 133 166 133 166 137 160 c 2,9,-1
 197 79 l 1,10,-1
 230 126 l 2,11,12
 233 130 233 130 238 135.5 c 128,-1,13
 243 141 243 141 250 149 c 128,-1,14
 257 157 257 157 263 160.5 c 128,-1,15
 269 164 269 164 271 160 c 2,16,-1
 330 79 l 1,17,-1
 474 284 l 1,18,19
 503 323 503 323 515 323 c 0,20,21
 518 323 518 323 518 318 c 0,22,23
 518 303 518 303 495 269 c 2,24,-1
 316 14 l 1,25,26
 288 -24 288 -24 276 -24 c 0,27,28
 274 -24 274 -24 273 -23 c 2,29,-1
 214 58 l 1,30,-1
 179 11 l 2,31,32
 154 -24 154 -24 142 -24 c 1,33,-1
 139 -23 l 1,34,-1
 79 58 l 1,35,-1
 45 11 l 2,36,37
 20 -24 20 -24 7 -24 c 0,0,1
EndSplineSet
EndChar

StartChar: MensuralCustosUpLong
Encoding: 57358 57358 17
Width: 356
Flags: W
LayerCount: 2
Fore
SplineSet
4 -26 m 0,0,1
 0 -26 0 -26 0 -21 c 0,2,3
 0 -6 0 -6 26 30 c 2,4,-1
 93 124 l 2,5,6
 105 141 105 141 117.5 152.5 c 128,-1,7
 130 164 130 164 134 159 c 2,8,-1
 194 77 l 1,9,-1
 228 124 l 2,10,11
 231 129 231 129 235.5 134.5 c 128,-1,12
 240 140 240 140 247 148 c 128,-1,13
 254 156 254 156 260 159 c 128,-1,14
 266 162 266 162 268 159 c 2,15,-1
 327 77 l 1,16,-1
 561 410 l 2,17,18
 589 450 589 450 601 450 c 0,19,20
 605 450 605 450 605 445 c 0,21,22
 605 429 605 429 581 396 c 2,23,-1
 313 13 l 2,24,25
 286 -26 286 -26 273 -26 c 1,26,-1
 270 -25 l 1,27,-1
 211 57 l 1,28,-1
 177 10 l 2,29,30
 152 -26 152 -26 139 -26 c 0,31,32
 137 -26 137 -26 136 -25 c 2,33,-1
 77 57 l 1,34,-1
 42 10 l 1,35,36
 17 -26 17 -26 4 -26 c 0,0,1
EndSplineSet
EndChar

StartChar: MensuralCustosUpMedium
Encoding: 57359 57359 18
Width: 354
Flags: W
LayerCount: 2
Fore
SplineSet
4 -25 m 0,0,1
 0 -25 0 -25 0 -20 c 0,2,3
 0 -5 0 -5 25 31 c 2,4,-1
 92 125 l 2,5,6
 105 142 105 142 117 153.5 c 128,-1,7
 129 165 129 165 133 160 c 2,8,-1
 193 78 l 1,9,-1
 227 125 l 2,10,11
 230 129 230 129 234.5 135 c 128,-1,12
 239 141 239 141 246 148.5 c 128,-1,13
 253 156 253 156 259 159.5 c 128,-1,14
 265 163 265 163 268 160 c 2,15,-1
 327 78 l 1,16,-1
 516 347 l 2,17,18
 543 386 543 386 556 386 c 0,19,20
 559 386 559 386 559 381 c 0,21,22
 559 366 559 366 536 333 c 2,23,-1
 313 14 l 2,24,25
 285 -25 285 -25 273 -25 c 0,26,27
 271 -25 271 -25 270 -24 c 2,28,-1
 211 58 l 1,29,-1
 176 11 l 1,30,31
 151 -25 151 -25 138 -25 c 0,32,33
 136 -25 136 -25 135 -24 c 2,34,-1
 76 58 l 1,35,-1
 41 11 l 1,36,37
 16 -25 16 -25 4 -25 c 0,0,1
EndSplineSet
EndChar

StartChar: MensuralCustosDownShort
Encoding: 57360 57360 19
Width: 337
Flags: W
LayerCount: 2
Fore
SplineSet
515 -111 m 0,0,1
 515 -116 515 -116 512 -116 c 0,2,3
 500 -116 500 -116 471 -77 c 1,4,-1
 327 128 l 1,5,-1
 268 47 l 2,6,7
 264 41 264 41 250.5 54.5 c 128,-1,8
 237 68 237 68 227 81 c 2,9,-1
 194 128 l 1,10,-1
 134 47 l 2,11,12
 130 41 130 41 116 54.5 c 128,-1,13
 102 68 102 68 93 81 c 2,14,-1
 23 178 l 1,15,16
 0 212 0 212 0 226 c 0,17,18
 0 231 0 231 4 231 c 0,19,20
 17 231 17 231 42 196 c 2,21,-1
 76 149 l 1,22,-1
 136 230 l 2,23,24
 137 231 137 231 139 231 c 0,25,26
 151 231 151 231 176 196 c 2,27,-1
 211 149 l 1,28,-1
 270 230 l 2,29,30
 271 231 271 231 273 231 c 0,31,32
 285 231 285 231 313 193 c 1,33,-1
 492 -62 l 2,34,35
 515 -96 515 -96 515 -111 c 0,0,1
EndSplineSet
EndChar

StartChar: MensuralCustosDownLong
Encoding: 57361 57361 20
Width: 336
Flags: W
LayerCount: 2
Fore
SplineSet
605 -305 m 0,0,1
 605 -307 605 -307 603.5 -308.5 c 128,-1,2
 602 -310 602 -310 601 -310 c 0,3,4
 589 -310 589 -310 561 -270 c 2,5,-1
 327 63 l 1,6,-1
 268 -19 l 2,7,8
 264 -24 264 -24 250.5 -11 c 128,-1,9
 237 2 237 2 228 16 c 2,10,-1
 194 63 l 1,11,-1
 134 -19 l 2,12,13
 130 -24 130 -24 116 -11 c 128,-1,14
 102 2 102 2 93 16 c 2,15,-1
 24 113 l 2,16,17
 0 146 0 146 0 161 c 0,18,19
 0 166 0 166 4 166 c 0,20,21
 17 166 17 166 42 130 c 1,22,-1
 77 83 l 1,23,-1
 136 165 l 2,24,25
 137 166 137 166 139 166 c 0,26,27
 152 166 152 166 177 130 c 2,28,-1
 211 83 l 1,29,-1
 270 165 l 2,30,31
 271 166 271 166 273 166 c 0,32,33
 286 166 286 166 313 127 c 2,34,-1
 581 -256 l 2,35,36
 605 -289 605 -289 605 -305 c 0,0,1
EndSplineSet
EndChar

StartChar: MensuralCustosDownMedium
Encoding: 57362 57362 21
Width: 336
Flags: W
LayerCount: 2
Fore
SplineSet
559 -241 m 0,0,1
 559 -246 559 -246 556 -246 c 0,2,3
 543 -246 543 -246 516 -207 c 2,4,-1
 327 62 l 1,5,-1
 268 -20 l 2,6,7
 264 -25 264 -25 250 -12 c 128,-1,8
 236 1 236 1 227 15 c 2,9,-1
 193 62 l 1,10,-1
 133 -20 l 2,11,12
 129 -25 129 -25 115.5 -12 c 128,-1,13
 102 1 102 1 92 15 c 2,14,-1
 23 112 l 2,15,16
 0 145 0 145 0 160 c 0,17,18
 0 165 0 165 4 165 c 0,19,20
 16 165 16 165 41 129 c 1,21,-1
 76 82 l 1,22,-1
 135 164 l 2,23,24
 136 165 136 165 138 165 c 0,25,26
 151 165 151 165 176 129 c 1,27,-1
 211 82 l 1,28,-1
 270 164 l 2,29,30
 271 165 271 165 273 165 c 0,31,32
 285 165 285 165 313 126 c 2,33,-1
 536 -193 l 2,34,35
 559 -226 559 -226 559 -241 c 0,0,1
EndSplineSet
EndChar

StartChar: MensuralFlat
Encoding: 57363 57363 22
Width: 110
Flags: W
LayerCount: 2
Fore
SplineSet
17 466 m 0,0,1
 20 466 20 466 20 463 c 2,2,-1
 20 143 l 1,3,4
 64 159 64 159 92.5 137.5 c 128,-1,5
 121 116 121 116 121 81 c 0,6,7
 121 47 121 47 95 21.5 c 128,-1,8
 69 -4 69 -4 38 -4 c 0,9,10
 24 -4 24 -4 11 1.5 c 128,-1,11
 -2 7 -2 7 -2 12 c 2,12,-1
 -2 448 l 2,13,14
 -2 453 -2 453 4.5 459.5 c 128,-1,15
 11 466 11 466 17 466 c 0,0,1
37 127 m 0,16,17
 27 127 27 127 20 124 c 1,18,-1
 20 30 l 1,19,20
 36 18 36 18 54 18 c 0,21,22
 75 18 75 18 86.5 31 c 128,-1,23
 98 44 98 44 98 64 c 0,24,25
 98 89 98 89 81 108 c 128,-1,26
 64 127 64 127 37 127 c 0,16,17
EndSplineSet
EndChar

StartChar: HufnagelFlat
Encoding: 57364 57364 23
Width: 136
Flags: W
LayerCount: 2
Fore
SplineSet
56 117 m 1,0,-1
 27 103 l 1,1,-1
 27 59 l 1,2,-1
 81 26 l 1,3,4
 96 30 96 30 99 48.5 c 128,-1,5
 102 67 102 67 90 87.5 c 128,-1,6
 78 108 78 108 56 117 c 1,0,-1
26 473 m 0,7,8
 28 473 28 473 28 472 c 2,9,-1
 27 123 l 1,10,-1
 88 154 l 2,11,12
 92 156 92 156 103 149 c 128,-1,13
 114 142 114 142 124 126 c 128,-1,14
 134 110 134 110 134 92 c 0,15,16
 134 55 134 55 97.5 22 c 128,-1,17
 61 -11 61 -11 44 -9 c 1,18,-1
 -8 22 l 1,19,-1
 -9 23 l 1,20,-1
 -9 438 l 2,21,22
 -9 443 -9 443 6.5 458 c 128,-1,23
 22 473 22 473 26 473 c 0,7,8
EndSplineSet
EndChar

StartChar: MedicaeaCClef
Encoding: 57365 57365 24
Width: 308
Flags: W
LayerCount: 2
Fore
SplineSet
308 -10 m 0,0,1
 308 -31 308 -31 304 -58.5 c 128,-1,2
 300 -86 300 -86 292 -86 c 2,3,-1
 291 -86 l 1,4,-1
 31 59 l 1,5,-1
 31 -224 l 2,6,7
 31 -231 31 -231 26.5 -235.5 c 128,-1,8
 22 -240 22 -240 15.5 -240 c 128,-1,9
 9 -240 9 -240 4.5 -235.5 c 128,-1,10
 0 -231 0 -231 0 -224 c 2,11,-1
 0 668 l 2,12,13
 0 675 0 675 4.5 679.5 c 128,-1,14
 9 684 9 684 15.5 684 c 128,-1,15
 22 684 22 684 26.5 679.5 c 128,-1,16
 31 675 31 675 31 668 c 2,17,-1
 31 522 l 1,18,-1
 295 376 l 2,19,20
 308 368 308 368 308 298 c 0,21,22
 308 277 308 277 304 249.5 c 128,-1,23
 300 222 300 222 292 222 c 2,24,-1
 291 222 l 1,25,-1
 31 368 l 1,26,-1
 31 213 l 1,27,-1
 295 68 l 2,28,29
 308 60 308 60 308 -10 c 0,0,1
EndSplineSet
EndChar

StartChar: MedicaeaCClefChange
Encoding: 57366 57366 25
Width: 308
Flags: W
LayerCount: 2
Fore
SplineSet
308 -10 m 0,0,1
 308 -31 308 -31 304 -58.5 c 128,-1,2
 300 -86 300 -86 292 -86 c 2,3,-1
 291 -86 l 1,4,-1
 31 59 l 1,5,-1
 31 -224 l 2,6,7
 31 -231 31 -231 26.5 -235.5 c 128,-1,8
 22 -240 22 -240 15.5 -240 c 128,-1,9
 9 -240 9 -240 4.5 -235.5 c 128,-1,10
 0 -231 0 -231 0 -224 c 2,11,-1
 0 668 l 2,12,13
 0 675 0 675 4.5 679.5 c 128,-1,14
 9 684 9 684 15.5 684 c 128,-1,15
 22 684 22 684 26.5 679.5 c 128,-1,16
 31 675 31 675 31 668 c 2,17,-1
 31 522 l 1,18,-1
 295 376 l 2,19,20
 308 368 308 368 308 298 c 0,21,22
 308 277 308 277 304 249.5 c 128,-1,23
 300 222 300 222 292 222 c 2,24,-1
 291 222 l 1,25,-1
 31 368 l 1,26,-1
 31 213 l 1,27,-1
 295 68 l 2,28,29
 308 60 308 60 308 -10 c 0,0,1
EndSplineSet
EndChar

StartChar: MedicaeaFClef
Encoding: 57367 57367 26
Width: 523
Flags: W
LayerCount: 2
Fore
SplineSet
523 4 m 0,0,1
 523 -17 523 -17 519 -44.5 c 128,-1,2
 515 -72 515 -72 507 -72 c 2,3,-1
 506 -72 l 1,4,-1
 246 73 l 1,5,-1
 246 -210 l 2,6,7
 246 -217 246 -217 242 -221.5 c 128,-1,8
 238 -226 238 -226 231.5 -226 c 128,-1,9
 225 -226 225 -226 220 -221.5 c 128,-1,10
 215 -217 215 -217 215 -210 c 2,11,-1
 215 682 l 2,12,13
 215 689 215 689 220 693.5 c 128,-1,14
 225 698 225 698 231.5 698 c 128,-1,15
 238 698 238 698 242 693.5 c 128,-1,16
 246 689 246 689 246 682 c 2,17,-1
 246 535 l 1,18,-1
 510 390 l 2,19,20
 523 382 523 382 523 312 c 0,21,22
 523 291 523 291 519 263.5 c 128,-1,23
 515 236 515 236 507 236 c 2,24,-1
 506 236 l 1,25,-1
 246 381 l 1,26,-1
 246 227 l 1,27,-1
 510 82 l 2,28,29
 523 74 523 74 523 4 c 0,0,1
123 390 m 2,30,31
 131 390 131 390 134.5 335.5 c 128,-1,32
 138 281 138 281 138 236 c 2,33,-1
 138 -210 l 2,34,35
 138 -217 138 -217 133.5 -221.5 c 128,-1,36
 129 -226 129 -226 122.5 -226 c 128,-1,37
 116 -226 116 -226 111.5 -221.5 c 128,-1,38
 107 -217 107 -217 107 -210 c 2,39,-1
 107 82 l 1,40,-1
 16 82 l 2,41,42
 8 82 8 82 4 138 c 128,-1,43
 0 194 0 194 0 236 c 128,-1,44
 0 278 0 278 4 334 c 128,-1,45
 8 390 8 390 16 390 c 2,46,-1
 123 390 l 2,30,31
EndSplineSet
EndChar

StartChar: MedicaeaFClefChange
Encoding: 57368 57368 27
Width: 523
Flags: W
LayerCount: 2
Fore
SplineSet
523 4 m 0,0,1
 523 -17 523 -17 519 -44.5 c 128,-1,2
 515 -72 515 -72 507 -72 c 2,3,-1
 506 -72 l 1,4,-1
 246 73 l 1,5,-1
 246 -210 l 2,6,7
 246 -217 246 -217 242 -221.5 c 128,-1,8
 238 -226 238 -226 231.5 -226 c 128,-1,9
 225 -226 225 -226 220 -221.5 c 128,-1,10
 215 -217 215 -217 215 -210 c 2,11,-1
 215 682 l 2,12,13
 215 689 215 689 220 693.5 c 128,-1,14
 225 698 225 698 231.5 698 c 128,-1,15
 238 698 238 698 242 693.5 c 128,-1,16
 246 689 246 689 246 682 c 2,17,-1
 246 535 l 1,18,-1
 510 390 l 2,19,20
 523 382 523 382 523 312 c 0,21,22
 523 291 523 291 519 263.5 c 128,-1,23
 515 236 515 236 507 236 c 2,24,-1
 506 236 l 1,25,-1
 246 381 l 1,26,-1
 246 227 l 1,27,-1
 510 82 l 2,28,29
 523 74 523 74 523 4 c 0,0,1
123 390 m 2,30,31
 131 390 131 390 134.5 335.5 c 128,-1,32
 138 281 138 281 138 236 c 2,33,-1
 138 -210 l 2,34,35
 138 -217 138 -217 133.5 -221.5 c 128,-1,36
 129 -226 129 -226 122.5 -226 c 128,-1,37
 116 -226 116 -226 111.5 -221.5 c 128,-1,38
 107 -217 107 -217 107 -210 c 2,39,-1
 107 82 l 1,40,-1
 16 82 l 2,41,42
 8 82 8 82 4 138 c 128,-1,43
 0 194 0 194 0 236 c 128,-1,44
 0 278 0 278 4 334 c 128,-1,45
 8 390 8 390 16 390 c 2,46,-1
 123 390 l 2,30,31
EndSplineSet
EndChar

StartChar: HufnagelCClef
Encoding: 57369 57369 28
Width: 247
Flags: W
LayerCount: 2
Fore
SplineSet
247 361 m 0,0,1
 247 349 247 349 206.5 315 c 128,-1,2
 166 281 166 281 152 279 c 0,3,4
 126 276 126 276 98 288 c 1,5,-1
 98 172 l 1,6,-1
 140 150 l 2,7,8
 145 147 145 147 126 126.5 c 128,-1,9
 107 106 107 106 81 86.5 c 128,-1,10
 55 67 55 67 45 67 c 0,11,12
 44 67 44 67 44 67.5 c 128,-1,13
 44 68 44 68 43 68 c 2,14,-1
 1 89 l 2,15,16
 0 89 0 89 0 91 c 2,17,-1
 0 282 l 2,18,19
 0 292 0 292 33 321 c 128,-1,20
 66 350 66 350 86 360 c 2,21,-1
 149 392 l 2,22,23
 155 395 155 395 160 395 c 1,24,25
 160 395 160 395 164 391 c 128,-1,26
 168 387 168 387 175 382 c 128,-1,27
 182 377 182 377 191.5 372 c 128,-1,28
 201 367 201 367 215 364.5 c 128,-1,29
 229 362 229 362 244 364 c 0,30,31
 247 364 247 364 247 361 c 0,0,1
EndSplineSet
EndChar

StartChar: HufnagelCClefChange
Encoding: 57376 57376 29
Width: 197
Flags: W
LayerCount: 2
Fore
SplineSet
198 335 m 0,0,1
 198 325 198 325 165.5 298 c 128,-1,2
 133 271 133 271 122 270 c 0,3,4
 98 268 98 268 79 276 c 1,5,-1
 79 183 l 1,6,-1
 112 166 l 2,7,8
 116 164 116 164 100.5 147.5 c 128,-1,9
 85 131 85 131 64 115.5 c 128,-1,10
 43 100 43 100 36 100 c 2,11,-1
 35 100 l 1,12,-1
 1 117 l 2,13,14
 0 117 0 117 0 119 c 2,15,-1
 0 272 l 2,16,17
 0 279 0 279 26 302 c 128,-1,18
 52 325 52 325 68 334 c 1,19,-1
 119 359 l 2,20,21
 124 362 124 362 128 362 c 1,22,23
 128 362 128 362 136.5 354.5 c 128,-1,24
 145 347 145 347 160.5 341 c 128,-1,25
 176 335 176 335 195 336 c 0,26,27
 198 336 198 336 198 335 c 0,0,1
EndSplineSet
EndChar

StartChar: HufnagelFClef
Encoding: 57377 57377 30
Width: 249
Flags: W
LayerCount: 2
Fore
SplineSet
2 -65 m 0,0,1
 0 -65 0 -65 0 -62 c 2,2,-1
 0 320 l 2,3,4
 0 330 0 330 33 358.5 c 128,-1,5
 66 387 66 387 86 397 c 2,6,-1
 149 430 l 2,7,8
 155 433 155 433 160 433 c 1,9,10
 160 433 160 433 164 429 c 128,-1,11
 168 425 168 425 175 420 c 128,-1,12
 182 415 182 415 191.5 410 c 128,-1,13
 201 405 201 405 215 402 c 128,-1,14
 229 399 229 399 244 401 c 0,15,16
 247 401 247 401 247 398 c 0,17,18
 247 387 247 387 207.5 353 c 128,-1,19
 168 319 168 319 152 317 c 0,20,21
 126 314 126 314 98 326 c 1,22,-1
 98 244 l 1,23,-1
 149 270 l 2,24,25
 157 274 157 274 165 269.5 c 128,-1,26
 173 265 173 265 180 257.5 c 128,-1,27
 187 250 187 250 204 245 c 128,-1,28
 221 240 221 240 244 242 c 0,29,30
 247 242 247 242 247 239 c 0,31,32
 247 228 247 228 207.5 194 c 128,-1,33
 168 160 168 160 152 158 c 0,34,35
 126 155 126 155 98 166 c 1,36,-1
 98 16 l 2,37,38
 98 5 98 5 57 -30 c 128,-1,39
 16 -65 16 -65 2 -65 c 0,0,1
EndSplineSet
EndChar

StartChar: HufnagelFClefChange
Encoding: 57378 57378 31
Width: 198
Flags: W
LayerCount: 2
Fore
SplineSet
2 -8 m 0,0,1
 0 -8 0 -8 0 -6 c 2,2,-1
 0 300 l 2,3,4
 0 307 0 307 26 330 c 128,-1,5
 52 353 52 353 68 362 c 1,6,-1
 119 387 l 2,7,8
 124 390 124 390 128 390 c 1,9,10
 128 390 128 390 136.5 382.5 c 128,-1,11
 145 375 145 375 160.5 369 c 128,-1,12
 176 363 176 363 195 364 c 0,13,14
 198 364 198 364 198 363 c 0,15,16
 198 354 198 354 166 326.5 c 128,-1,17
 134 299 134 299 122 298 c 0,18,19
 98 296 98 296 79 304 c 1,20,-1
 79 239 l 1,21,-1
 119 260 l 2,22,23
 125 263 125 263 131.5 259.5 c 128,-1,24
 138 256 138 256 144 250 c 128,-1,25
 150 244 150 244 163.5 239.5 c 128,-1,26
 177 235 177 235 195 237 c 0,27,28
 198 237 198 237 198 235 c 0,29,30
 198 227 198 227 166 199.5 c 128,-1,31
 134 172 134 172 122 171 c 0,32,33
 98 168 98 168 79 177 c 1,34,-1
 79 57 l 2,35,36
 79 47 79 47 46 19.5 c 128,-1,37
 13 -8 13 -8 2 -8 c 0,0,1
EndSplineSet
EndChar

StartChar: HugnagelCFClef
Encoding: 57379 57379 32
Width: 263
Flags: W
LayerCount: 2
Fore
SplineSet
3 -469 m 0,0,1
 1 -469 1 -469 1 -467 c 2,2,-1
 1 -84 l 2,3,4
 1 -74 1 -74 34 -45.5 c 128,-1,5
 67 -17 67 -17 87 -7 c 2,6,-1
 150 25 l 2,7,8
 158 29 158 29 166 25 c 128,-1,9
 174 21 174 21 181 13 c 128,-1,10
 188 5 188 5 205 -0.5 c 128,-1,11
 222 -6 222 -6 245 -3 c 0,12,13
 248 -3 248 -3 248 -6 c 0,14,15
 248 -18 248 -18 208.5 -51.5 c 128,-1,16
 169 -85 169 -85 153 -87 c 0,17,18
 127 -90 127 -90 99 -78 c 1,19,-1
 99 -160 l 1,20,-1
 150 -134 l 2,21,22
 158 -131 158 -131 166 -135 c 128,-1,23
 174 -139 174 -139 181 -146.5 c 128,-1,24
 188 -154 188 -154 205 -159.5 c 128,-1,25
 222 -165 222 -165 245 -162 c 0,26,27
 248 -162 248 -162 248 -165 c 0,28,29
 248 -177 248 -177 208.5 -211 c 128,-1,30
 169 -245 169 -245 153 -247 c 0,31,32
 127 -250 127 -250 99 -238 c 1,33,-1
 99 -389 l 2,34,35
 99 -400 99 -400 58 -434.5 c 128,-1,36
 17 -469 17 -469 3 -469 c 0,0,1
248 366 m 0,37,38
 248 354 248 354 207.5 320 c 128,-1,39
 167 286 167 286 153 285 c 0,40,41
 127 282 127 282 99 293 c 1,42,-1
 99 177 l 1,43,-1
 141 155 l 2,44,45
 146 153 146 153 127 132 c 128,-1,46
 108 111 108 111 82 91.5 c 128,-1,47
 56 72 56 72 46 72 c 0,48,49
 45 72 45 72 45 72.5 c 128,-1,50
 45 73 45 73 44 73 c 2,51,-1
 2 94 l 2,52,53
 1 94 1 94 1 96 c 2,54,-1
 1 287 l 2,55,56
 1 297 1 297 34 326.5 c 128,-1,57
 67 356 67 356 87 365 c 1,58,-1
 150 397 l 2,59,60
 156 400 156 400 161 400 c 1,61,62
 161 400 161 400 165 396.5 c 128,-1,63
 169 393 169 393 176 387.5 c 128,-1,64
 183 382 183 382 192.5 377 c 128,-1,65
 202 372 202 372 216 369.5 c 128,-1,66
 230 367 230 367 245 369 c 0,67,68
 248 369 248 369 248 366 c 0,37,38
EndSplineSet
EndChar

StartChar: HufnagelCFClefChange
Encoding: 57380 57380 33
Width: 209
Flags: W
LayerCount: 2
Fore
SplineSet
2 -408 m 0,0,1
 0 -408 0 -408 0 -406 c 2,2,-1
 0 -100 l 2,3,4
 0 -93 0 -93 26 -70 c 128,-1,5
 52 -47 52 -47 68 -38 c 1,6,-1
 119 -13 l 2,7,8
 125 -10 125 -10 131.5 -13.5 c 128,-1,9
 138 -17 138 -17 144 -23 c 128,-1,10
 150 -29 150 -29 163.5 -33.5 c 128,-1,11
 177 -38 177 -38 195 -36 c 0,12,13
 198 -36 198 -36 198 -38 c 0,14,15
 198 -46 198 -46 166 -73.5 c 128,-1,16
 134 -101 134 -101 122 -102 c 0,17,18
 98 -105 98 -105 79 -96 c 1,19,-1
 79 -161 l 1,20,-1
 119 -140 l 2,21,22
 125 -137 125 -137 131.5 -140.5 c 128,-1,23
 138 -144 138 -144 144 -150.5 c 128,-1,24
 150 -157 150 -157 163.5 -161 c 128,-1,25
 177 -165 177 -165 195 -163 c 0,26,27
 198 -163 198 -163 198 -165 c 0,28,29
 198 -174 198 -174 166 -201 c 128,-1,30
 134 -228 134 -228 122 -230 c 0,31,32
 98 -232 98 -232 79 -224 c 1,33,-1
 79 -344 l 2,34,35
 79 -353 79 -353 46 -380.5 c 128,-1,36
 13 -408 13 -408 2 -408 c 0,0,1
198 345 m 0,37,38
 198 336 198 336 165.5 309 c 128,-1,39
 133 282 133 282 122 280 c 1,40,41
 98 278 98 278 79 286 c 1,42,-1
 79 194 l 1,43,-1
 112 177 l 2,44,45
 116 174 116 174 100.5 157.5 c 128,-1,46
 85 141 85 141 64 125.5 c 128,-1,47
 43 110 43 110 36 110 c 2,48,-1
 35 110 l 1,49,-1
 1 127 l 2,50,51
 0 127 0 127 0 129 c 2,52,-1
 0 282 l 2,53,54
 0 289 0 289 26 312 c 128,-1,55
 52 335 52 335 68 344 c 2,56,-1
 119 370 l 2,57,58
 124 372 124 372 128 372 c 1,59,60
 128 372 128 372 136.5 365 c 128,-1,61
 145 358 145 358 160.5 351.5 c 128,-1,62
 176 345 176 345 195 347 c 0,63,64
 198 347 198 347 198 345 c 0,37,38
EndSplineSet
EndChar

StartChar: MensuralFlatHole
Encoding: 57381 57381 34
Width: 115
Flags: W
LayerCount: 2
Fore
SplineSet
35 130 m 0,0,1
 64 130 64 130 83 109 c 128,-1,2
 102 88 102 88 102 61 c 0,3,4
 102 38 102 38 89 24 c 128,-1,5
 76 10 76 10 53 10 c 0,6,7
 33 10 33 10 16 22 c 1,8,-1
 16 126 l 1,9,10
 23 130 23 130 35 130 c 0,0,1
EndSplineSet
EndChar

StartChar: HufnagelFlatHole
Encoding: 57382 57382 35
Width: 143
Flags: W
LayerCount: 2
Fore
SplineSet
56 120 m 1,0,1
 80 110 80 110 93 87 c 128,-1,2
 106 64 106 64 103 44 c 128,-1,3
 100 24 100 24 83 19 c 1,4,-1
 24 55 l 1,5,-1
 24 104 l 1,6,-1
 56 120 l 1,0,1
EndSplineSet
EndChar

StartChar: MedicaeaFlatHole
Encoding: 57383 57383 36
Width: 143
Flags: W
LayerCount: 2
Fore
SplineSet
15 149 m 1,0,1
 18 150 18 150 25 153 c 128,-1,2
 32 156 32 156 39 158.5 c 128,-1,3
 46 161 46 161 53 161 c 0,4,5
 74 161 74 161 88.5 143.5 c 128,-1,6
 103 126 103 126 103 106 c 256,7,8
 103 86 103 86 89 61 c 128,-1,9
 75 36 75 36 50.5 3 c 128,-1,10
 26 -30 26 -30 16 -48 c 1,11,-1
 16 -49 l 1,12,-1
 15 -49 l 1,13,-1
 15 149 l 1,0,1
EndSplineSet
EndChar

StartChar: StarSix
Encoding: 57384 57384 37
Width: 484
Flags: W
LayerCount: 2
Fore
SplineSet
241 389 m 1,0,-1
 241 396 l 1,1,2
 200.999 371 200.999 371 189 360 c 0,3,4
 178.001 351 178.001 351 147 315 c 0,5,6
 126 291 126 291 105 291 c 1,7,8
 72 296 72 296 69 326 c 1,9,10
 69 355 69 355 108 366 c 0,11,12
 118.001 369 118.001 369 131 371 c 0,13,14
 183.999 381 183.999 381 223 404 c 0,15,16
 228 407 228 407 234 410.999 c 1,17,-1
 223 418 l 2,18,19
 194.999 437 194.999 437 137 448 c 0,20,21
 71 460 71 460 69 495 c 1,22,23
 69 521 69 521 92 529 c 0,24,25
 98 531 98 531 103 531 c 0,26,27
 124 531 124 531 151 499 c 1,28,29
 193 453 193 453 237 428 c 1,30,-1
 241 426 l 1,31,-1
 241 439 l 2,32,33
 241 480 241 480 226 530 c 0,34,35
 215.999 565 215.999 565 216 581 c 0,36,37
 216 607 216 607 240 614 c 0,38,39
 245 616 245 616 251 616.001 c 0,40,41
 276 616 276 616 285 592 c 0,42,43
 287 586 287 586 287 579 c 0,44,45
 287 565 287 565 277 533 c 1,46,47
 260 485 260 485 260 450 c 2,48,-1
 260 424 l 1,49,-1
 267 428 l 2,50,51
 301 447 301 447 339 492 c 0,52,53
 374 533 374 533 395 533 c 0,54,55
 423 533 423 533 430 506 c 0,56,57
 431 500 431 500 431 494 c 0,58,59
 431 465 431 465 400 456 c 0,60,61
 391 454 391 454 379.999 452 c 0,62,63
 329 444 329 444 282 418 c 2,64,-1
 268 410 l 1,65,-1
 276 405 l 2,66,67
 317 380 317 380 373 371 c 0,68,69
 424 363 424 363 431 339 c 1,70,-1
 432 327 l 1,71,72
 432 296 432 296 405 291 c 1,73,-1
 397 290 l 1,74,75
 372 290 372 290 337 333 c 0,76,77
 298 380 298 380 267 393 c 2,78,-1
 260 396 l 1,79,-1
 260 389 l 2,80,81
 260 331 260 331 280 277 c 0,82,83
 288 256 288 256 288 245 c 0,84,85
 288 219.001 288 219.001 264 208 c 0,86,87
 257 205 257 205 249 205 c 0,88,89
 226.001 205 226.001 205 217 228 c 0,90,91
 214 235 214 235 214 242 c 0,92,93
 214 260 214 260 225 288 c 0,94,95
 241.999 333 241.999 333 242 363 c 2,96,-1
 242 372 l 1,97,-1
 241 389 l 1,0,-1
EndSplineSet
EndChar

StartChar: Dagger
Encoding: 57385 57385 38
Width: 496
Flags: W
LayerCount: 2
Fore
SplineSet
234 370.5 m 1,0,1
 230.931 384.314 230.931 384.314 223.95 414.684 c 128,-1,2
 216.97 445.054 216.97 445.054 213.426 461.406 c 128,-1,3
 209.882 477.759 209.882 477.759 205.377 500.53 c 128,-1,4
 200.872 523.301 200.872 523.301 198.884 539.946 c 128,-1,5
 196.895 556.591 196.895 556.591 196.895 569.517 c 0,6,7
 196.895 578.62 196.895 578.62 198 585.5 c 0,8,9
 210.59 631.5 210.59 631.5 245 631.5 c 0,10,11
 258.803 631.5 258.803 631.5 268.808 625.546 c 128,-1,12
 278.812 619.593 278.812 619.593 283.426 610.091 c 128,-1,13
 288.039 600.589 288.039 600.589 289.621 595.619 c 128,-1,14
 291.203 590.648 291.203 590.648 291.919 585.974 c 0,15,16
 292.574 580.857 292.574 580.857 292.574 574.584 c 0,17,18
 292.574 548.543 292.574 548.543 283.18 497.522 c 128,-1,19
 273.787 446.501 273.787 446.501 264.393 408.5 c 2,20,-1
 255 370.5 l 1,21,22
 276.228 378.12 276.228 378.12 322.462 390.404 c 128,-1,23
 368.695 402.689 368.695 402.689 396 405.5 c 1,24,25
 412.443 405.5 412.443 405.5 428.221 395.707 c 128,-1,26
 444 385.914 444 385.914 444 361.5 c 0,27,28
 444 342.128 444 342.128 428.982 330.314 c 128,-1,29
 413.965 318.5 413.965 318.5 398 318.5 c 0,30,31
 380 318.5 380 318.5 346 330.5 c 0,32,33
 331.778 335.833 331.778 335.833 309.028 340.958 c 128,-1,34
 286.278 346.083 286.278 346.083 270.639 348.542 c 2,35,-1
 255 351 l 1,36,-1
 255 -172 l 2,37,38
 255 -177.438 255 -177.438 244.5 -177.438 c 128,-1,39
 234 -177.438 234 -177.438 234 -172 c 2,40,-1
 234 352.5 l 1,41,42
 202.766 344.96 202.766 344.96 179.492 337.461 c 128,-1,43
 156.218 329.962 156.218 329.962 147.704 326.446 c 128,-1,44
 139.19 322.929 139.19 322.929 126.452 320.715 c 128,-1,45
 113.714 318.5 113.714 318.5 94 318.5 c 0,46,47
 72.5378 318.5 72.5378 318.5 59.7689 330.742 c 128,-1,48
 47 342.985 47 342.985 47 361.5 c 0,49,50
 47 384.297 47 384.297 63.4816 394.899 c 128,-1,51
 79.9632 405.5 79.9632 405.5 93 405.5 c 0,52,53
 107.342 405.5 107.342 405.5 116.891 404.862 c 128,-1,54
 126.441 404.224 126.441 404.224 140.293 400.738 c 128,-1,55
 154.145 397.252 154.145 397.252 161.147 395.062 c 128,-1,56
 168.149 392.872 168.149 392.872 193.069 384.338 c 128,-1,57
 217.989 375.804 217.989 375.804 234 370.5 c 1,0,1
EndSplineSet
EndChar

StartChar: Bar.alt
Encoding: 57386 57386 39
Width: 0
Flags: W
LayerCount: 2
Fore
SplineSet
1.82715 -98.6348 m 2,0,-1
 275 498.5 l 1,1,2
 251.427 484.274 251.427 484.274 232.5 480 c 0,3,4
 193.069 471.097 193.069 471.097 152.205 471.097 c 0,5,6
 117.945 471.097 117.945 471.097 104 478 c 0,7,8
 82.0919 488.841 82.0919 488.841 82.0919 501.355 c 128,-1,9
 82.0919 513.802 82.0919 513.802 102.138 522.901 c 128,-1,10
 122.184 532 122.184 532 149 532 c 0,11,12
 164.31 532 164.31 532 194.271 521.971 c 128,-1,13
 224.232 511.942 224.232 511.942 228.5 511.5 c 0,14,15
 230.341 511.309 230.341 511.309 232.326 511.309 c 0,16,17
 254.715 511.309 254.715 511.309 286.5 532.5 c 1,18,19
 305.39 525.889 305.39 525.889 312 524 c 1,20,-1
 32.3272 -112.135 l 2,21,22
 29.5455 -117.913 29.5455 -117.913 20.9034 -117.913 c 0,23,24
 13.4093 -117.913 13.4093 -117.913 6.70466 -113.755 c 128,-1,25
 5.34058e-05 -109.597 5.34058e-05 -109.597 5.34058e-05 -104 c 0,26,27
 5.27374e-05 -101.285 5.27374e-05 -101.285 1.82715 -98.6348 c 2,0,-1
EndSplineSet
EndChar

StartChar: StarHeight
Encoding: 57387 57387 40
Width: 487
Flags: W
LayerCount: 2
Fore
SplineSet
226.702 451.21 m 1,0,1
 214.119 512.198 214.119 512.198 210.052 528.355 c 0,2,3
 201.141 564.632 201.141 564.632 201.141 572.917 c 0,4,5
 201.141 577.747 201.141 577.747 201.884 582.191 c 0,6,7
 204.048 595.118 204.048 595.118 214.006 603.573 c 128,-1,8
 223.965 612.027 223.965 612.027 236.054 612.027 c 0,9,10
 248.912 612.027 248.912 612.027 258.287 602.162 c 0,11,12
 268.751 591.147 268.751 591.147 268.751 573.261 c 0,13,14
 268.751 563.085 268.751 563.085 265.203 548.891 c 0,15,16
 254.671 506.757 254.671 506.757 243.351 451.21 c 1,17,-1
 257.228 446.216 l 1,18,19
 257.811 447.558 257.811 447.558 270.163 466.751 c 0,20,21
 272.811 470.856 272.811 470.856 281.982 484.927 c 128,-1,22
 291.153 498.998 291.153 498.998 296.048 506.711 c 0,23,24
 298.626 510.773 298.626 510.773 304.672 521.613 c 128,-1,25
 310.719 532.453 310.719 532.453 315.853 539.812 c 128,-1,26
 320.987 547.17 320.987 547.17 327.156 552.679 c 0,27,28
 338.971 563.229 338.971 563.229 354.188 563.229 c 0,29,30
 367.426 563.229 367.426 563.229 376.53 554.392 c 0,31,32
 385.894 545.302 385.894 545.302 385.894 531.602 c 0,33,34
 385.894 516.303 385.894 516.303 375.345 504.49 c 0,35,36
 369.836 498.321 369.836 498.321 362.477 493.187 c 128,-1,37
 355.117 488.053 355.117 488.053 344.279 482.007 c 128,-1,38
 333.441 475.961 333.441 475.961 329.377 473.382 c 0,39,40
 321.67 468.492 321.67 468.492 307.614 459.331 c 128,-1,41
 293.557 450.169 293.557 450.169 289.417 447.498 c 0,42,43
 270.233 435.149 270.233 435.149 268.882 434.562 c 1,44,-1
 273.876 420.685 l 1,45,46
 335.466 433.392 335.466 433.392 351.021 437.265 c 0,47,48
 386.983 446.246 386.983 446.246 395.585 446.246 c 0,49,50
 400.409 446.246 400.409 446.246 404.857 445.502 c 0,51,52
 417.786 443.337 417.786 443.337 426.239 433.377 c 128,-1,53
 434.693 423.417 434.693 423.417 434.693 411.319 c 0,54,55
 434.693 398.448 434.693 398.448 424.828 389.052 c 0,56,57
 413.824 378.63 413.824 378.63 395.962 378.63 c 0,58,59
 385.768 378.63 385.768 378.63 371.557 382.184 c 0,60,61
 332.648 391.91 332.648 391.91 273.876 404.036 c 1,62,-1
 268.882 390.16 l 1,63,64
 269.827 389.811 269.827 389.811 287.752 378.506 c 0,65,66
 294.026 374.539 294.026 374.539 308.35 365.198 c 128,-1,67
 322.675 355.856 322.675 355.856 330.486 350.99 c 0,68,69
 334.128 348.71 334.128 348.71 345.355 342.539 c 128,-1,70
 356.581 336.368 356.581 336.368 363.814 331.209 c 128,-1,71
 371.047 326.05 371.047 326.05 376.294 319.676 c 0,72,73
 385.84 308.08 385.84 308.08 385.84 293.525 c 0,74,75
 385.84 278.476 385.84 278.476 374.887 269.429 c 0,76,77
 365.925 262.047 365.925 262.047 353.987 262.047 c 0,78,79
 338.959 262.047 338.959 262.047 327.156 272.597 c 0,80,81
 321.294 277.793 321.294 277.793 316.468 284.632 c 128,-1,82
 311.642 291.471 311.642 291.471 305.85 301.782 c 128,-1,83
 300.058 312.093 300.058 312.093 297.712 315.79 c 0,84,85
 293.159 322.966 293.159 322.966 283.446 337.71 c 128,-1,86
 273.734 352.455 273.734 352.455 268.852 360.19 c 0,87,88
 257.471 377.993 257.471 377.993 257.228 378.506 c 2,89,-1
 243.351 373.511 l 1,90,91
 256.094 311.734 256.094 311.734 259.931 296.365 c 0,92,93
 268.911 260.408 268.911 260.408 268.911 251.801 c 0,94,95
 268.911 246.972 268.911 246.972 268.168 242.53 c 0,96,97
 266.004 229.6 266.004 229.6 256.042 221.147 c 128,-1,98
 246.081 212.693 246.081 212.693 233.981 212.693 c 0,99,100
 221.114 212.693 221.114 212.693 211.718 222.551 c 0,101,102
 201.296 233.563 201.296 233.563 201.296 251.425 c 0,103,104
 201.296 261.62 201.296 261.62 204.85 275.831 c 0,105,106
 214.698 315.227 214.698 315.227 226.702 373.511 c 1,107,-1
 212.826 378.506 l 1,108,109
 211.731 375.618 211.731 375.618 209.787 372.509 c 128,-1,110
 207.843 369.399 207.843 369.399 205.235 365.779 c 128,-1,111
 202.626 362.16 202.626 362.16 201.406 360.19 c 0,112,113
 196.129 351.761 196.129 351.761 186.107 336.451 c 128,-1,114
 176.086 321.141 176.086 321.141 172.312 315.235 c 0,115,116
 170.017 311.599 170.017 311.599 164.268 301.236 c 128,-1,117
 158.519 290.873 158.519 290.873 153.683 284.043 c 128,-1,118
 148.846 277.212 148.846 277.212 142.896 272.111 c 0,119,120
 131.134 262.03 131.134 262.03 116.344 262.03 c 0,121,122
 103.151 262.03 103.151 262.03 94.0567 270.835 c 0,123,124
 84.711 279.955 84.711 279.955 84.711 293.638 c 0,125,126
 84.711 308.5 84.711 308.5 94.7774 320.23 c 0,127,128
 99.8781 326.18 99.8781 326.18 106.709 331.017 c 128,-1,129
 113.539 335.853 113.539 335.853 123.902 341.602 c 128,-1,130
 134.266 347.351 134.266 347.351 137.901 349.646 c 0,131,132
 143.789 353.408 143.789 353.408 159.105 363.433 c 128,-1,133
 174.422 373.458 174.422 373.458 182.856 378.74 c 0,134,135
 182.955 378.801 182.955 378.801 190.114 383.742 c 128,-1,136
 197.273 388.682 197.273 388.682 201.171 390.16 c 1,137,-1
 196.177 404.036 l 1,138,139
 134.938 391.401 134.938 391.401 119.031 387.386 c 0,140,141
 82.7569 378.475 82.7569 378.475 74.4708 378.475 c 0,142,143
 69.6398 378.475 69.6398 378.475 65.1964 379.218 c 0,144,145
 52.268 381.382 52.268 381.382 43.8132 391.342 c 128,-1,146
 35.3585 401.302 35.3585 401.302 35.3585 413.392 c 0,147,148
 35.3585 426.249 35.3585 426.249 45.2169 435.621 c 0,149,150
 56.2388 446.085 56.2388 446.085 74.128 446.085 c 0,151,152
 84.3077 446.085 84.3077 446.085 98.4972 442.538 c 0,153,154
 141.067 431.895 141.067 431.895 196.177 420.685 c 1,155,-1
 201.171 434.562 l 2,156,157
 200.661 434.803 200.661 434.803 182.856 446.186 c 0,158,159
 175.122 451.068 175.122 451.068 160.377 460.78 c 128,-1,160
 145.633 470.492 145.633 470.492 138.456 475.046 c 0,161,162
 134.76 477.392 134.76 477.392 124.448 483.184 c 128,-1,163
 114.136 488.976 114.136 488.976 107.298 493.803 c 128,-1,164
 100.459 498.629 100.459 498.629 95.2628 504.49 c 0,165,166
 84.713 516.294 84.713 516.294 84.713 531.321 c 0,167,168
 84.713 543.259 84.713 543.259 92.0948 552.221 c 0,169,170
 101.141 563.175 101.141 563.175 116.191 563.175 c 0,171,172
 130.745 563.175 130.745 563.175 142.342 553.628 c 0,173,174
 148.716 548.381 148.716 548.381 153.875 541.148 c 128,-1,175
 159.034 533.916 159.034 533.916 165.205 522.689 c 128,-1,176
 171.376 511.463 171.376 511.463 173.656 507.821 c 0,177,178
 178.522 500.011 178.522 500.011 187.862 485.687 c 128,-1,179
 197.202 471.362 197.202 471.362 201.171 465.086 c 0,180,181
 212.475 447.168 212.475 447.168 212.826 446.216 c 1,182,-1
 226.702 451.21 l 1,0,1
EndSplineSet
EndChar

StartChar: Cross
Encoding: 57388 57388 41
Width: 732
Flags: W
LayerCount: 2
Fore
SplineSet
218 339 m 2,0,1
 157 331 157 331 114.5 309 c 128,-1,2
 72 287 72 287 33 240 c 1,3,-1
 33 532 l 1,4,5
 72 486 72 486 114 464 c 128,-1,6
 156 442 156 442 218 433 c 2,7,-1
 338 414 l 1,8,-1
 319 526 l 1,9,10
 309 591 309 591 287 636 c 128,-1,11
 265 681 265 681 220 719 c 1,12,-1
 512 719 l 1,13,14
 466 681 466 681 444 635.5 c 128,-1,15
 422 590 422 590 413 526 c 2,16,-1
 397 414 l 1,17,-1
 512 433 l 2,18,19
 576 443 576 443 618.5 464.5 c 128,-1,20
 661 486 661 486 699 532 c 1,21,-1
 699 240 l 1,22,23
 660 286 660 286 617 308.5 c 128,-1,24
 574 331 574 331 512 339 c 2,25,-1
 397 355 l 1,26,-1
 413 256 l 2,27,28
 435 118 435 118 512 53 c 1,29,-1
 220 53 l 1,30,31
 325 141 325 141 325 251 c 1,32,-1
 337 355 l 1,33,-1
 218 339 l 2,0,1
EndSplineSet
EndChar

StartChar: RBar.alt
Encoding: 57389 57389 42
Width: 0
Flags: W
LayerCount: 2
Fore
SplineSet
1.82715 -102.634 m 2,0,-1
 311 614.5 l 1,1,2
 287.427 600.274 287.427 600.274 268.5 596 c 0,3,4
 229.069 587.097 229.069 587.097 188.205 587.097 c 0,5,6
 153.945 587.097 153.945 587.097 140 594 c 0,7,8
 118.092 604.841 118.092 604.841 118.092 617.355 c 128,-1,9
 118.092 629.802 118.092 629.802 138.138 638.901 c 128,-1,10
 158.184 648 158.184 648 185 648 c 0,11,12
 200.31 648 200.31 648 230.271 637.971 c 128,-1,13
 260.232 627.942 260.232 627.942 264.5 627.5 c 0,14,15
 266.341 627.309 266.341 627.309 268.326 627.309 c 0,16,17
 290.715 627.309 290.715 627.309 322.5 648.5 c 1,18,19
 341.389 641.889 341.389 641.889 348 640 c 1,20,-1
 32.3272 -116.134 l 2,21,22
 29.5454 -121.912 29.5454 -121.912 20.9034 -121.912 c 0,23,24
 13.4093 -121.912 13.4093 -121.912 6.70466 -117.754 c 128,-1,25
 5.34058e-05 -113.596 5.34058e-05 -113.596 5.34058e-05 -107.999 c 0,26,27
 5.27374e-05 -105.284 5.27374e-05 -105.284 1.82715 -102.634 c 2,0,-1
EndSplineSet
EndChar

StartChar: VBar.alt
Encoding: 57390 57390 43
Width: 0
Flags: W
LayerCount: 2
Fore
SplineSet
1.82715 -101.135 m 2,0,-1
 344 736.5 l 1,1,2
 320.427 722.274 320.427 722.274 301.5 718 c 0,3,4
 262.069 709.097 262.069 709.097 221.205 709.097 c 0,5,6
 186.945 709.097 186.945 709.097 173 716 c 0,7,8
 151.092 726.841 151.092 726.841 151.092 739.355 c 128,-1,9
 151.092 751.802 151.092 751.802 171.138 760.901 c 128,-1,10
 191.184 770 191.184 770 218 770 c 0,11,12
 233.31 770 233.31 770 263.271 759.971 c 128,-1,13
 293.232 749.942 293.232 749.942 297.5 749.5 c 0,14,15
 299.341 749.309 299.341 749.309 301.326 749.309 c 0,16,17
 323.715 749.309 323.715 749.309 355.5 770.5 c 1,18,19
 374.389 763.889 374.389 763.889 381 762 c 1,20,-1
 32.3272 -114.635 l 2,21,22
 29.5455 -120.413 29.5455 -120.413 20.9034 -120.413 c 0,23,24
 13.4093 -120.413 13.4093 -120.413 6.70466 -116.255 c 128,-1,25
 5.34058e-05 -112.097 5.34058e-05 -112.097 5.34058e-05 -106.5 c 0,26,27
 5.27374e-05 -103.785 5.27374e-05 -103.785 1.82715 -101.135 c 2,0,-1
EndSplineSet
EndChar

StartChar: Drawing1
Encoding: 57391 57391 44
Width: 1530
Flags: W
LayerCount: 2
Fore
SplineSet
0 45 m 1,0,-1
 0 80 l 1,1,-1
 124 80 l 2,2,3
 203.124 80 203.124 80 276.476 95.8264 c 128,-1,4
 349.828 111.653 349.828 111.653 401.299 133.711 c 0,5,6
 439.639 150.138 439.639 150.138 464.819 182.158 c 128,-1,7
 490 214.177 490 214.177 490 246.494 c 0,8,9
 490 286.233 490 286.233 462.486 327.599 c 128,-1,10
 434.972 368.964 434.972 368.964 395.391 388.74 c 0,11,12
 373.296 399.772 373.296 399.772 365.302 405.558 c 128,-1,13
 357.309 411.345 357.309 411.345 357.309 417.355 c 0,14,15
 357.309 421.976 357.309 421.976 362.676 430.566 c 0,16,17
 373.597 448.055 373.597 448.055 384.451 448.055 c 0,18,19
 395.039 448.055 395.039 448.055 415.665 437.079 c 128,-1,20
 436.292 426.103 436.292 426.103 485.908 395.518 c 0,21,22
 515.157 377.49 515.157 377.49 534.709 334.636 c 128,-1,23
 554.262 291.782 554.262 291.782 554.262 249.246 c 0,24,25
 554.262 226.538 554.262 226.538 548.076 208.799 c 0,26,27
 541.645 190.338 541.645 190.338 541.645 179.196 c 0,28,29
 541.645 175.025 541.645 175.025 542.852 173.818 c 1,30,31
 594.472 184.996 594.472 184.996 645.805 220.972 c 128,-1,32
 697.138 256.947 697.138 256.947 732.292 311.179 c 128,-1,33
 767.445 365.41 767.445 365.41 767.445 420.231 c 0,34,35
 767.445 453.459 767.445 453.459 753.867 484.121 c 1,36,37
 731.902 529.677 731.902 529.677 701.107 547.248 c 128,-1,38
 670.313 564.819 670.313 564.819 607.178 567.822 c 0,39,40
 550.054 570.542 550.054 570.542 532.379 573.54 c 128,-1,41
 514.705 576.537 514.705 576.537 514.705 585.218 c 0,42,43
 514.705 590.159 514.705 590.159 521.201 602.354 c 0,44,45
 546.1 649.106 546.1 649.106 587.5 649.688 c 0,46,47
 608.2 649.978 608.2 649.978 608.2 659.841 c 0,48,49
 608.2 673.82 608.2 673.82 560 727.9 c 0,50,51
 509.584 784.464 509.584 784.464 509.584 807.318 c 0,52,53
 509.584 818.777 509.584 818.777 523.335 818.777 c 0,54,55
 545.553 818.777 545.553 818.777 596.543 790 c 0,56,57
 649.704 760 649.704 760 653.74 760 c 128,-1,58
 657.764 760 657.764 760 664.014 793.252 c 0,59,60
 668.716 818.308 668.716 818.308 687.783 844.154 c 128,-1,61
 706.851 870 706.851 870 720.635 870 c 0,62,63
 730.068 870 730.068 870 740.034 844.043 c 128,-1,64
 750 818.086 750 818.086 750 793.525 c 0,65,66
 750 768.357 750 768.357 780.615 698.604 c 0,67,68
 802.769 648.125 802.769 648.125 818.571 578.432 c 128,-1,69
 834.372 508.74 834.372 508.74 834.372 462.464 c 0,70,71
 834.372 456.728 834.372 456.728 834.092 451.631 c 0,72,73
 833.75 445.435 833.75 445.435 833.75 440.987 c 0,74,75
 833.75 426.989 833.75 426.989 837.431 426.989 c 0,76,77
 844.753 426.989 844.753 426.989 880.898 500 c 0,78,79
 913.079 565.018 913.079 565.018 922.49 645 c 0,80,81
 927.445 687.084 927.445 687.084 927.445 705.064 c 0,82,83
 927.445 737.47 927.445 737.47 902.559 807.012 c 0,84,85
 879.462 871.59 879.462 871.59 879.462 895.551 c 0,86,87
 879.462 899.137 879.462 899.137 880.303 900.498 c 0,88,89
 886.062 909.815 886.062 909.815 895.923 909.815 c 0,90,91
 921.833 909.815 921.833 909.815 955 858.027 c 0,92,93
 983.5 813.541 983.5 813.541 993.536 813.541 c 1,94,95
 1003.12 816.044 1003.12 816.044 1037.38 883.34 c 0,96,97
 1084.64 976.057 1084.64 976.057 1118.73 976.057 c 0,98,99
 1128.23 976.057 1128.23 976.057 1136.03 968.262 c 0,100,101
 1146.04 958.239 1146.04 958.239 1146.04 943.806 c 0,102,103
 1146.04 931.953 1146.04 931.953 1139.91 904.629 c 0,104,105
 1128.99 855.842 1128.99 855.842 1120.64 845.41 c 128,-1,106
 1112.3 834.992 1112.3 834.992 1105.36 802.5 c 0,107,108
 1103.28 792.756 1103.28 792.756 1103.28 785.83 c 0,109,110
 1103.28 769.443 1103.28 769.443 1114.57 769.443 c 0,111,112
 1125.44 769.443 1125.44 769.443 1145.59 784.688 c 0,113,114
 1165.44 799.692 1165.44 799.692 1206.88 799.692 c 0,115,116
 1229.18 799.692 1229.18 799.692 1244.18 793.936 c 0,117,118
 1259.61 788.013 1259.61 788.013 1259.61 778.566 c 0,119,120
 1259.61 760.411 1259.61 760.411 1207.47 736.562 c 0,121,122
 1171.16 719.952 1171.16 719.952 1134.05 693.068 c 128,-1,123
 1096.95 666.185 1096.95 666.185 1076.29 641.523 c 0,124,125
 1064.98 628.008 1064.98 628.008 1039.26 601.523 c 0,126,127
 1013.86 575.356 1013.86 575.356 946.93 482.854 c 128,-1,128
 880 390.352 880 390.352 880 381.416 c 0,129,130
 880 380.131 880 380.131 882.53 380.131 c 0,131,132
 896.468 380.131 896.468 380.131 947.5 404.922 c 0,133,134
 1015.04 437.733 1015.04 437.733 1120 465.137 c 128,-1,135
 1225 492.571 1225 492.571 1261.32 520.801 c 0,136,137
 1290.52 543.522 1290.52 543.522 1301.66 543.522 c 0,138,139
 1303.15 543.522 1303.15 543.522 1303.82 542.852 c 0,140,141
 1310.19 536.473 1310.19 536.473 1310.19 527.106 c 0,142,143
 1310.19 502.038 1310.19 502.038 1264.37 454.883 c 0,144,145
 1221.76 411.05 1221.76 411.05 1221.76 405.966 c 1,146,147
 1224.96 403.506 1224.96 403.506 1263.37 380.381 c 0,148,149
 1294.47 361.665 1294.47 361.665 1317.23 339.878 c 128,-1,150
 1340 318.092 1340 318.092 1340 307.041 c 0,151,152
 1340 301.826 1340 301.826 1304.29 301.826 c 0,153,154
 1285.12 301.826 1285.12 301.826 1260.94 303.574 c 0,155,156
 1230.05 305.808 1230.05 305.808 1215.15 305.808 c 0,157,158
 1185.88 305.808 1185.88 305.808 1177.94 297.042 c 128,-1,159
 1170 288.277 1170 288.277 1170 260.928 c 0,160,161
 1170 245.855 1170 245.855 1149.35 224.714 c 128,-1,162
 1128.69 203.574 1128.69 203.574 1115.11 203.574 c 0,163,164
 1112.31 203.574 1112.31 203.574 1110.33 204.795 c 0,165,166
 1103.3 209.143 1103.3 209.143 1103.3 220.6 c 0,167,168
 1103.3 224.631 1103.3 224.631 1104.48 228.379 c 0,169,170
 1106.02 233.198 1106.02 233.198 1106.02 238.499 c 0,171,172
 1106.02 271.352 1106.02 271.352 1057.89 305.676 c 128,-1,173
 1009.76 340 1009.76 340 968.789 340 c 0,174,175
 928.294 340 928.294 340 881.364 315.633 c 128,-1,176
 834.434 291.265 834.434 291.265 807.324 260.85 c 2,177,-1
 779.844 230 l 1,178,-1
 812.646 230 l 2,179,180
 841.936 230 841.936 230 880.968 200.65 c 128,-1,181
 920 171.301 920 171.301 920 149.277 c 0,182,183
 920 130.938 920 130.938 908.591 130.938 c 0,184,185
 896.962 130.938 896.962 130.938 872.725 150 c 0,186,187
 847.183 170.093 847.183 170.093 800.946 170.093 c 0,188,189
 735.585 170.093 735.585 170.093 645 131.299 c 0,190,191
 639.393 128.895 639.393 128.895 629.048 124.509 c 0,192,193
 580.91 104.089 580.91 104.089 580.91 99.2421 c 0,194,195
 580.91 94.153 580.91 94.153 610.934 92.7781 c 128,-1,196
 640.958 91.4032 640.958 91.4032 725.819 91.4032 c 0,197,198
 736.582 91.4032 736.582 91.4032 762.955 91.4192 c 128,-1,199
 789.327 91.4353 789.327 91.4353 805 91.4353 c 0,200,201
 1000.19 91.4353 1000.19 91.4353 1088.67 100.44 c 128,-1,202
 1177.15 109.444 1177.15 109.444 1209.73 132.5 c 0,203,204
 1234.43 150 1234.43 150 1247.45 150 c 128,-1,205
 1260.44 150 1260.44 150 1303.84 190 c 0,206,207
 1346.29 229.124 1346.29 229.124 1361.24 229.124 c 0,208,209
 1369.37 229.124 1369.37 229.124 1375.13 219.795 c 0,210,211
 1375.99 218.402 1375.99 218.402 1375.99 216.203 c 0,212,213
 1375.99 192.147 1375.99 192.147 1305.02 118.721 c 2,214,-1
 1279.61 92.4412 l 1,215,-1
 1302.3 86.3572 l 2,216,217
 1326.07 79.9998 1326.07 79.9998 1427.5 79.9998 c 2,218,-1
 1530 79.9998 l 1,219,-1
 1530 39.9998 l 1,220,-1
 1530 -0.000244141 l 1,221,-1
 765 -0.000244141 l 1,222,-1
 -0.00012207 -0.000244141 l 1,223,-1
 0 45 l 1,0,-1
310.391 262.754 m 0,224,225
 294.915 270.581 294.915 270.581 285.935 286.581 c 128,-1,226
 276.954 302.58 276.954 302.58 276.954 319.662 c 0,227,228
 276.954 343.737 276.954 343.737 293.428 355.283 c 0,229,230
 313.456 369.308 313.456 369.308 333.684 369.308 c 0,231,232
 359.354 369.308 359.354 369.308 374.434 347.783 c 0,233,234
 389.151 326.761 389.151 326.761 389.151 309.147 c 0,235,236
 389.151 289.16 389.151 289.16 370 270 c 0,237,238
 351.285 251.285 351.285 251.285 341.353 251.285 c 0,239,240
 333.051 251.285 333.051 251.285 310.391 262.754 c 0,224,225
140 312.881 m 0,241,242
 110.181 327.887 110.181 327.887 110.181 365.275 c 0,243,244
 110.181 395.078 110.181 395.078 131.729 411.65 c 0,245,246
 154.989 429.554 154.989 429.554 167.5 429.785 c 0,247,248
 183.633 429.788 183.633 429.788 201.816 407.241 c 128,-1,249
 220 384.694 220 384.694 220 365 c 0,250,251
 220 347.584 220 347.584 202.687 323.865 c 128,-1,252
 185.375 300.145 185.375 300.145 172.7 300.145 c 2,253,-1
 172.5 300.146 l 2,254,255
 164.97 300.307 164.97 300.307 140 312.881 c 0,241,242
246.367 415.059 m 0,256,257
 225.688 435.742 225.688 435.742 225.688 463.449 c 0,258,259
 225.688 487.68 225.688 487.68 241.757 506.393 c 128,-1,260
 257.826 525.106 257.826 525.106 284.375 528.252 c 0,261,262
 289.091 528.811 289.091 528.811 293.588 528.811 c 0,263,264
 317.531 528.811 317.531 528.811 331.907 514.238 c 128,-1,265
 346.283 499.664 346.283 499.664 346.283 475.651 c 0,266,267
 346.283 468.237 346.283 468.237 344.805 460.322 c 0,268,269
 338.218 425.005 338.218 425.005 327.881 412.5 c 0,270,271
 317.901 400.427 317.901 400.427 291.446 400.427 c 0,272,273
 261.007 400.427 261.007 400.427 246.367 415.059 c 0,256,257
396.348 480.732 m 0,274,275
 371.191 500.515 371.191 500.515 371.191 516.845 c 0,276,277
 371.191 531.191 371.191 531.191 390 550 c 0,278,279
 409.472 569.478 409.472 569.478 433.182 569.478 c 0,280,281
 459.883 569.478 459.883 569.478 475.479 545.674 c 0,282,283
 484.427 532.02 484.427 532.02 484.427 517.861 c 0,284,285
 484.427 488.422 484.427 488.422 450.43 470.234 c 0,286,287
 433.548 461.198 433.548 461.198 428.283 461.198 c 0,288,289
 421.183 461.198 421.183 461.198 396.348 480.732 c 0,274,275
110.352 499.346 m 0,290,291
 100.025 518.639 100.025 518.639 100.025 539.424 c 0,292,293
 100.025 561.418 100.025 561.418 111.492 578.957 c 128,-1,294
 122.959 596.497 122.959 596.497 143.057 603.506 c 0,295,296
 146.046 604.549 146.046 604.549 149.531 604.549 c 0,297,298
 168.072 604.549 168.072 604.549 189.036 581.562 c 128,-1,299
 210 558.575 210 558.575 210 537.012 c 0,300,301
 210 513.173 210 513.173 189.689 496.405 c 128,-1,302
 169.378 479.638 169.378 479.638 145.864 479.638 c 0,303,304
 120.9 479.638 120.9 479.638 110.352 499.346 c 0,290,291
266.553 578.291 m 0,305,306
 249.855 596.735 249.855 596.735 249.855 630.902 c 0,307,308
 249.855 669.222 249.855 669.222 269.346 679.648 c 0,309,310
 287.688 689.469 287.688 689.469 305.341 689.469 c 0,311,312
 330.531 689.469 330.531 689.469 350 670 c 0,313,314
 368.955 651.045 368.955 651.045 368.955 631.147 c 0,315,316
 368.955 608.077 368.955 608.077 343.535 584.521 c 128,-1,317
 318.182 561.023 318.182 561.023 298.862 561.023 c 0,318,319
 282.171 561.023 282.171 561.023 266.553 578.291 c 0,305,306
EndSplineSet
EndChar

StartChar: Drawing2
Encoding: 57392 57392 45
Width: 2131
Flags: W
LayerCount: 2
Fore
SplineSet
0 132.5 m 1,0,-1
 0 260 l 1,1,-1
 67.8613 306.221 l 2,2,3
 154.215 365.042 154.215 365.042 228.487 397.229 c 128,-1,4
 302.76 429.417 302.76 429.417 420.586 461.084 c 0,5,6
 457.628 471.039 457.628 471.039 504.337 471.039 c 0,7,8
 558.66 471.039 558.66 471.039 613.541 457.381 c 128,-1,9
 668.422 443.724 668.422 443.724 715.787 418.35 c 128,-1,10
 763.152 392.977 763.152 392.977 792.858 351.113 c 128,-1,11
 822.565 309.25 822.565 309.25 822.565 258.385 c 0,12,13
 822.565 230.601 822.565 230.601 813.506 200.812 c 1,14,15
 797.64 158.175 797.64 158.175 746.073 133.954 c 128,-1,16
 694.506 109.733 694.506 109.733 636.398 109.733 c 0,17,18
 587.038 109.733 587.038 109.733 553.968 127.944 c 128,-1,19
 520.898 146.155 520.898 146.155 520.898 179.932 c 0,20,21
 520.898 194.32 520.898 194.32 527.5 210.693 c 1,22,23
 565.429 214.172 565.429 214.172 584.22 221.248 c 128,-1,24
 603.011 228.324 603.011 228.324 616.855 244.336 c 0,25,26
 636.924 266.157 636.924 266.157 636.924 289.384 c 0,27,28
 636.924 309.936 636.924 309.936 622.38 326.476 c 128,-1,29
 607.836 343.016 607.836 343.016 587.764 349.277 c 0,30,31
 576.436 353.11 576.436 353.11 565.309 353.11 c 0,32,33
 541.25 353.11 541.25 353.11 507.764 335.742 c 0,34,35
 471.783 317.071 471.783 317.071 465.569 317.071 c 0,36,37
 460 317.071 460 317.071 460 330.938 c 0,38,39
 460 351.284 460 351.284 434.553 375.642 c 128,-1,40
 409.107 400 409.107 400 387.852 400 c 0,41,42
 384.095 400.315 384.095 400.315 380.373 400.315 c 0,43,44
 351.659 400.315 351.659 400.315 332.002 383.481 c 128,-1,45
 312.344 366.646 312.344 366.646 312.344 339.433 c 0,46,47
 312.344 330.656 312.344 330.656 314.619 321.357 c 0,48,49
 317.182 310.483 317.182 310.483 326.603 296.457 c 128,-1,50
 336.024 282.431 336.024 282.431 346.689 273.604 c 0,51,52
 365.446 258.095 365.446 258.095 365.446 245.096 c 0,53,54
 365.446 230.13 365.446 230.13 341.914 229.668 c 1,55,56
 314.298 225.192 314.298 225.192 299.614 208.039 c 128,-1,57
 284.93 190.885 284.93 190.885 284.93 168.231 c 0,58,59
 284.93 148.371 284.93 148.371 296.22 130.012 c 128,-1,60
 307.509 111.653 307.509 111.653 328.203 100.742 c 1,61,62
 342.319 94.8945 342.319 94.8945 357.561 94.8945 c 0,63,64
 378.445 94.8945 378.445 94.8945 395.604 105.426 c 128,-1,65
 412.762 115.958 412.762 115.958 419.561 133.848 c 0,66,67
 432.023 166.631 432.023 166.631 447.598 166.631 c 0,68,69
 456.088 166.631 456.088 166.631 462.441 155.273 c 0,70,71
 519.149 68.2987 519.149 68.2987 630.718 68.2987 c 0,72,73
 723.892 68.2987 723.892 68.2987 800.557 126.396 c 0,74,75
 803.591 128.991 803.591 128.991 808.443 133.156 c 128,-1,76
 813.295 137.321 813.295 137.321 815.689 139.373 c 128,-1,77
 818.082 141.425 818.082 141.425 821.935 144.661 c 128,-1,78
 825.788 147.896 825.788 147.896 827.787 149.456 c 128,-1,79
 829.785 151.015 829.785 151.015 832.82 153.316 c 128,-1,80
 835.855 155.618 835.855 155.618 837.64 156.68 c 128,-1,81
 839.425 157.743 839.425 157.743 841.824 159.105 c 128,-1,82
 844.222 160.467 844.222 160.467 845.975 161.029 c 128,-1,83
 847.727 161.59 847.727 161.59 849.67 162.008 c 128,-1,84
 851.613 162.427 851.613 162.427 853.45 162.427 c 0,85,86
 861.2 162.427 861.2 162.427 869.885 156.034 c 128,-1,87
 878.571 149.641 878.571 149.641 898.096 131.622 c 0,88,89
 903.654 126.502 903.654 126.502 906.699 123.701 c 0,90,91
 934.713 98.0014 934.713 98.0014 973.196 98.0014 c 0,92,93
 995.987 98.0014 995.987 98.0014 998.574 105.938 c 0,94,95
 998.812 106.664 998.812 106.664 998.812 107.391 c 0,96,97
 998.812 112.096 998.812 112.096 987.59 118.046 c 128,-1,98
 976.368 123.995 976.368 123.995 956.701 134.283 c 128,-1,99
 937.033 144.571 937.033 144.571 923.193 156.201 c 0,100,101
 922.674 156.637 922.674 156.637 918.459 159.594 c 128,-1,102
 914.245 162.551 914.245 162.551 912.609 164.795 c 128,-1,103
 910.973 167.038 910.973 167.038 906.355 173.479 c 128,-1,104
 901.738 179.92 901.738 179.92 897.735 190.373 c 128,-1,105
 893.732 200.826 893.732 200.826 887.641 216.949 c 128,-1,106
 881.55 233.072 881.55 233.072 874.109 257.933 c 128,-1,107
 866.668 282.793 866.668 282.793 857.852 315 c 0,108,109
 846.929 354.949 846.929 354.949 821.973 392.686 c 0,110,111
 801.977 422.883 801.977 422.883 801.977 433.82 c 0,112,113
 801.977 435.307 801.977 435.307 802.588 435.918 c 0,114,115
 830.302 422.372 830.302 422.372 857.37 407.617 c 128,-1,116
 884.439 392.861 884.439 392.861 918.389 372.014 c 128,-1,117
 952.339 351.166 952.339 351.166 968.545 341.03 c 128,-1,118
 984.75 330.893 984.75 330.893 1028.11 302.762 c 128,-1,119
 1071.48 274.631 1071.48 274.631 1080 269.131 c 0,120,121
 1102.61 252.893 1102.61 252.893 1216.6 187.338 c 128,-1,122
 1330.6 121.784 1330.6 121.784 1361.66 111.113 c 0,123,124
 1402.5 97.0891 1402.5 97.0891 1491.18 85.3814 c 128,-1,125
 1579.86 73.6737 1579.86 73.6737 1640.61 73.6737 c 0,126,127
 1659.76 73.6737 1659.76 73.6737 1672.43 75.0782 c 0,128,129
 1714.72 79.0686 1714.72 79.0686 1801.04 98.4138 c 128,-1,130
 1887.35 117.759 1887.35 117.759 1934.45 120.82 c 0,131,132
 1941.82 121.232 1941.82 121.232 1949.08 121.232 c 0,133,134
 1986.73 121.232 1986.73 121.232 2014.51 111.717 c 128,-1,135
 2042.29 102.202 2042.29 102.202 2054.05 91.1622 c 0,136,137
 2074.2 72.2445 2074.2 72.2445 2084.3 72.2445 c 0,138,139
 2091.63 72.2445 2091.63 72.2445 2091.63 82.6968 c 0,140,141
 2091.63 87.5238 2091.63 87.5238 2090 94.4142 c 0,142,143
 2083.68 121.002 2083.68 121.002 2025.53 151.152 c 1,144,-1
 1985.76 167.295 l 1,145,146
 1998.38 171.454 1998.38 171.454 2020.38 185.801 c 0,147,148
 2024.8 188.687 2024.8 188.687 2049.24 203.011 c 128,-1,149
 2073.68 217.336 2073.68 217.336 2095.05 231.781 c 128,-1,150
 2116.43 246.225 2116.43 246.225 2131 260 c 1,151,-1
 2131 119.512 l 1,152,-1
 2131 9.25903e-05 l 1,153,-1
 1065 9.25903e-05 l 1,154,-1
 0.000244141 9.25903e-05 l 1,155,-1
 0.000244141 132.5 l 1,156,-1
 0 132.5 l 1,0,-1
1520 131.416 m 0,157,158
 1456.94 137.634 1456.94 137.634 1402.94 154.957 c 128,-1,159
 1348.95 172.28 1348.95 172.28 1283.44 207.305 c 0,160,161
 1205.06 249.199 1205.06 249.199 1092.8 322.873 c 128,-1,162
 980.542 396.546 980.542 396.546 980.293 406.25 c 0,163,164
 980.291 409.136 980.291 409.136 983.137 410.734 c 128,-1,165
 985.984 412.332 985.984 412.332 994.125 414.707 c 128,-1,166
 1002.27 417.082 1002.27 417.082 1007.24 419.023 c 0,167,168
 1050.39 435.885 1050.39 435.885 1065.19 452.956 c 128,-1,169
 1080 470.027 1080 470.027 1080 491.035 c 0,170,171
 1080 498.538 1080 498.538 1075.25 498.538 c 0,172,173
 1068.44 498.538 1068.44 498.538 1046.81 478.389 c 0,174,175
 1016.31 449.97 1016.31 449.97 976.554 449.97 c 0,176,177
 963.838 449.97 963.838 449.97 951.172 452.998 c 0,178,179
 910.927 460.996 910.927 460.996 820.695 483.093 c 128,-1,180
 730.463 505.191 730.463 505.191 664.192 516.073 c 128,-1,181
 597.922 526.954 597.922 526.954 530.753 526.954 c 0,182,183
 521.071 526.954 521.071 526.954 511.367 526.699 c 0,184,185
 371.31 516.762 371.31 516.762 236.035 458.857 c 0,186,187
 124.318 411.05 124.318 411.05 -6.10352e-05 320 c 1,188,-1
 -5.7373e-05 618.549 l 1,189,-1
 1062.5 619.16 l 1,190,-1
 2131 619.16 l 1,191,-1
 2131 330.488 l 1,192,-1
 2131 320 l 1,193,-1
 2082.76 285.469 l 2,194,195
 2042.11 256.076 2042.11 256.076 1961.91 213.938 c 128,-1,196
 1881.71 171.8 1881.71 171.8 1866.42 171.8 c 0,197,198
 1864.86 171.8 1864.86 171.8 1864.3 172.373 c 128,-1,199
 1863.85 172.814 1863.85 172.814 1863.85 173.845 c 0,200,201
 1863.85 184.854 1863.85 184.854 1894.02 224.395 c 0,202,203
 1929.41 270.747 1929.41 270.747 1936.03 320.605 c 1,204,205
 1951.72 403.576 1951.72 403.576 1995 452.939 c 1,206,207
 2031.33 491.458 2031.33 491.458 2031.33 505.699 c 0,208,209
 2031.33 510.193 2031.33 510.193 2026.75 510.193 c 0,210,211
 2012.42 510.193 2012.42 510.193 1973.6 475.234 c 0,212,213
 1934.99 440.463 1934.99 440.463 1925 440.303 c 0,214,215
 1920.8 440.302 1920.8 440.302 1911.08 450.232 c 128,-1,216
 1901.36 460.163 1901.36 460.163 1891.86 474.131 c 0,217,218
 1870.8 505.047 1870.8 505.047 1821.55 523.556 c 128,-1,219
 1772.3 542.066 1772.3 542.066 1711.24 542.066 c 0,220,221
 1709.54 542.066 1709.54 542.066 1707.85 542.051 c 0,222,223
 1671.5 541.728 1671.5 541.728 1651.2 535.062 c 128,-1,224
 1630.9 528.395 1630.9 528.395 1596.29 505.41 c 0,225,226
 1541.89 469.319 1541.89 469.319 1529.71 454.648 c 0,227,228
 1518.02 440.561 1518.02 440.561 1508.93 440.561 c 128,-1,229
 1500 440.561 1500 440.561 1500 454.277 c 0,230,231
 1500 471.328 1500 471.328 1470.81 490.664 c 128,-1,232
 1441.62 510 1441.62 510 1415.88 510 c 0,233,234
 1380.91 510 1380.91 510 1360.45 492.744 c 128,-1,235
 1340 475.488 1340 475.488 1340 445.986 c 0,236,237
 1340 411.571 1340 411.571 1362.17 393.285 c 128,-1,238
 1384.33 375 1384.33 375 1426.05 375 c 0,239,240
 1470 375 1470 375 1470 374.131 c 128,-1,241
 1470 373.255 1470 373.255 1431.22 332.49 c 0,242,243
 1396.47 295.961 1396.47 295.961 1396.47 275.039 c 0,244,245
 1396.47 270.638 1396.47 270.638 1397.42 265.693 c 0,246,247
 1401.63 243.662 1401.63 243.662 1428.52 221.831 c 128,-1,248
 1455.41 200 1455.41 200 1478.33 200 c 0,249,250
 1520.22 200 1520.22 200 1541.19 270.029 c 2,251,-1
 1552.91 309.16 l 1,252,-1
 1577.8 289.58 l 2,253,254
 1602.77 269.94 1602.77 269.94 1634.29 269.94 c 0,255,256
 1669.5 269.94 1669.5 269.94 1684.84 293.359 c 0,257,258
 1695.2 309.149 1695.2 309.149 1695.2 331.701 c 0,259,260
 1695.2 351.03 1695.2 351.03 1687.39 368.091 c 128,-1,261
 1679.59 385.152 1679.59 385.152 1666.18 392.812 c 0,262,263
 1650.01 402.044 1650.01 402.044 1640.37 404.681 c 128,-1,264
 1630.72 407.318 1630.72 407.318 1607.5 408.848 c 0,265,266
 1590.99 409.938 1590.99 409.938 1590.99 419.605 c 0,267,268
 1590.99 433.562 1590.99 433.562 1625.71 466.318 c 0,269,270
 1649.27 488.54 1649.27 488.54 1664.49 494.27 c 128,-1,271
 1679.7 500 1679.7 500 1715.12 500 c 0,272,273
 1798.42 498.314 1798.42 498.314 1854.22 438.203 c 1,274,275
 1877.03 411.552 1877.03 411.552 1883.52 395.153 c 128,-1,276
 1890 378.754 1890 378.754 1890 347.705 c 0,277,278
 1890 298.97 1890 298.97 1875.25 270.498 c 0,279,280
 1861.81 244.508 1861.81 244.508 1808.84 198.865 c 128,-1,281
 1755.87 153.222 1755.87 153.222 1730 145.332 c 0,282,283
 1676 128.886 1676 128.886 1577.6 128.886 c 0,284,285
 1545.62 128.886 1545.62 128.886 1520 131.416 c 0,157,158
EndSplineSet
EndChar

StartChar: RWithBarGoth
Encoding: 57393 57393 46
Width: 709
Flags: W
LayerCount: 2
Fore
SplineSet
526.338 10.0664 m 0,0,1
 470.617 61.1079 470.617 61.1079 448.125 160.934 c 0,2,3
 442.149 187.459 442.149 187.459 437.215 199.01 c 1,4,5
 423.732 188.358 423.732 188.358 412.512 171.066 c 0,6,7
 395.826 145.353 395.826 145.353 395.826 123.094 c 0,8,9
 395.826 122.102 395.826 122.102 395.85 121.088 c 0,10,11
 396.615 87.8044 396.615 87.8044 415.113 70.9594 c 0,12,13
 431.378 55.3525 431.378 55.3525 431.378 28.1398 c 0,14,15
 431.378 -2.18149 431.378 -2.18149 408.729 -7.02499 c 0,16,17
 404.458 -7.93839 404.458 -7.93839 400.329 -7.93839 c 0,18,19
 379.695 -7.93839 379.695 -7.93839 366.56 13.1757 c 128,-1,20
 353.424 34.2898 353.424 34.2898 353.338 70.3695 c 0,21,22
 353.306 71.7691 353.306 71.7691 353.306 73.2519 c 0,23,24
 353.306 120.209 353.306 120.209 392.604 184.922 c 0,25,26
 397.14 192.393 397.14 192.393 429.373 233.025 c 1,27,28
 416.535 282.274 416.535 282.274 372.072 300.012 c 0,29,30
 336.078 314.369 336.078 314.369 286.758 319.26 c 2,31,-1
 276.445 320.281 l 1,32,33
 266.681 304.84 266.681 304.84 249.252 274.942 c 128,-1,34
 231.823 245.045 231.823 245.045 220.421 226.367 c 128,-1,35
 209.02 207.689 209.02 207.689 190.776 184.182 c 128,-1,36
 172.532 160.675 172.532 160.675 153.639 143.934 c 2,37,-1
 131.072 123.938 l 1,38,39
 135.992 123.905 135.992 123.905 147.046 123.652 c 128,-1,40
 158.1 123.399 158.1 123.399 163.977 123.399 c 0,41,42
 170.737 123.399 170.737 123.399 176.422 123.646 c 0,43,44
 204.175 124.836 204.175 124.836 244.205 127.701 c 0,45,46
 267.518 129.37 267.518 129.37 283.072 134.17 c 0,47,48
 293.642 137.431 293.642 137.431 302.931 142.933 c 128,-1,49
 312.219 148.435 312.219 148.435 316.731 152.505 c 128,-1,50
 321.243 156.574 321.243 156.574 326.802 162.517 c 128,-1,51
 332.361 168.46 332.361 168.46 333.119 169.166 c 0,52,53
 337.929 174.359 337.929 174.359 340.132 174.359 c 0,54,55
 341.957 174.359 341.957 174.359 341.957 170.803 c 0,56,57
 341.957 161.737 341.957 161.737 331.952 135.611 c 128,-1,58
 321.947 109.485 321.947 109.485 315.098 97.1269 c 0,59,60
 291.584 54.6948 291.584 54.6948 264.984 19.2616 c 0,61,62
 247.642 -3.8418 247.642 -3.8418 235.414 -3.8418 c 0,63,64
 233.276 -3.8418 233.276 -3.8418 231.383 -3.05481 c 0,65,66
 225.65 -0.671983 225.65 -0.671983 214.861 13.9736 c 128,-1,67
 204.072 28.6191 204.072 28.6191 183.199 40.2694 c 0,68,69
 170.932 47.1176 170.932 47.1176 150.427 47.1176 c 0,70,71
 142.69 47.1176 142.69 47.1176 137.58 45.5741 c 0,72,73
 109.307 37.0395 109.307 37.0395 93.4404 29.369 c 128,-1,74
 77.5738 21.6985 77.5738 21.6985 37.629 -2.59191 c 1,75,76
 40.8502 3.21406 40.8502 3.21406 47.5376 12.2265 c 128,-1,77
 54.2249 21.2389 54.2249 21.2389 62.3831 31.5813 c 128,-1,78
 70.5414 41.9236 70.5414 41.9236 73.6211 46.164 c 0,79,80
 107.212 92.4126 107.212 92.4126 129.969 133.934 c 0,81,82
 142.892 157.515 142.892 157.515 151.521 179.934 c 0,83,84
 170.152 228.322 170.152 228.322 177.879 249.861 c 128,-1,85
 185.607 271.4 185.607 271.4 194.988 311.378 c 128,-1,86
 204.368 351.356 204.368 351.356 204.744 384.934 c 0,87,88
 204.765 386.816 204.765 386.816 204.765 388.715 c 0,89,90
 204.765 465.84 204.765 465.84 173.49 512.934 c 0,91,92
 137.328 567.378 137.328 567.378 93.8996 567.378 c 0,93,94
 92.0604 567.378 92.0604 567.378 90.2031 567.262 c 0,95,96
 69.2754 566.085 69.2754 566.085 49.8843 556.173 c 128,-1,97
 30.4933 546.261 30.4933 546.261 25.375 528.863 c 1,98,99
 26.3453 526.335 26.3453 526.335 26.3453 523.597 c 0,100,101
 26.3453 512.547 26.3453 512.547 17.5125 512.547 c 0,102,103
 14.7007 512.547 14.7007 512.547 11.6191 514.389 c 0,104,105
 0.0250469 521.317 0.0250469 521.317 0.0250492 531.193 c 0,106,107
 0.0250483 531.852 0.0250483 531.852 0.0723429 532.54 c 0,108,109
 3.25028 578.559 3.25028 578.559 61.625 623.287 c 0,110,111
 108.905 659.515 108.905 659.515 170.172 669.893 c 1,112,113
 182.883 665.226 182.883 665.226 186.387 662.771 c 0,114,115
 254.188 615.246 254.188 615.246 290.072 524.395 c 0,116,117
 290.782 522.597 290.782 522.597 292.504 522.597 c 0,118,119
 309.042 522.597 309.042 522.597 398.276 659.294 c 0,120,121
 398.865 660.197 398.865 660.197 398.904 660.254 c 0,122,123
 401.282 664.932 401.282 664.932 411.369 664.682 c 0,124,125
 430.139 664.211 430.139 664.211 445.215 641.619 c 0,126,127
 462.801 617.038 462.801 617.038 511.371 617.038 c 0,128,129
 518.723 617.038 518.723 617.038 528.072 617.561 c 0,130,131
 579.534 620.434 579.534 620.434 614.811 665.012 c 0,132,133
 616.055 666.584 616.055 666.584 617.521 666.584 c 0,134,135
 623.911 666.584 623.911 666.584 623.911 651.347 c 0,136,137
 623.911 642.466 623.911 642.466 620.324 632.549 c 0,138,139
 614.821 617.336 614.821 617.336 588.391 591.256 c 0,140,141
 574.003 577.06 574.003 577.06 560.596 561.405 c 128,-1,142
 547.19 545.751 547.19 545.751 527.507 520.688 c 128,-1,143
 507.825 495.625 507.825 495.625 502.148 488.635 c 0,144,145
 492.946 475.967 492.946 475.967 452.606 429.392 c 128,-1,146
 412.267 382.817 412.267 382.817 389.738 344.252 c 1,147,148
 392.123 344.101 392.123 344.101 396.378 343.612 c 128,-1,149
 400.633 343.122 400.633 343.122 406.909 342.672 c 128,-1,150
 413.184 342.222 413.184 342.222 422.633 341.953 c 0,151,152
 452.793 341.094 452.793 341.094 470.965 328.841 c 128,-1,153
 489.137 316.588 489.137 316.588 507.906 293.211 c 1,154,155
 511.688 293.211 511.688 293.211 536.327 315.543 c 128,-1,156
 560.966 337.875 560.966 337.875 566.574 347.145 c 0,157,158
 587.281 375.381 587.281 375.381 587.281 396.147 c 0,159,160
 587.281 408.224 587.281 408.224 580.42 417.941 c 1,161,162
 560.432 438.774 560.432 438.774 553.041 456.703 c 1,163,164
 551.047 466.461 551.047 466.461 551.047 475.303 c 0,165,166
 551.047 508.452 551.047 508.452 576.844 521.059 c 1,167,168
 586.622 522.7 586.622 522.7 595.26 522.7 c 0,169,170
 626.369 522.7 626.369 522.7 640.691 503.227 c 128,-1,171
 655.012 483.755 655.012 483.755 655.012 452.528 c 0,172,173
 655.012 428.209 655.012 428.209 647.068 401.307 c 0,174,175
 639.543 375.944 639.543 375.944 619.197 350.953 c 0,176,177
 583.249 306.155 583.249 306.155 528.992 272.439 c 0,178,179
 528.309 272.057 528.309 272.057 524.539 269.089 c 128,-1,180
 520.77 266.121 520.77 266.121 519.094 265.119 c 1,181,182
 519.732 262.843 519.732 262.843 521.467 258.818 c 128,-1,183
 523.201 254.794 523.201 254.794 523.311 254.463 c 0,184,185
 546.868 183.371 546.868 183.371 561.164 155.348 c 0,186,187
 594.164 90.663 594.164 90.663 633.695 90.663 c 0,188,189
 640.319 90.663 640.319 90.663 646.863 92.7809 c 0,190,191
 652.152 94.4919 652.152 94.4919 656.486 96.6035 c 128,-1,192
 660.821 98.7152 660.821 98.7152 663.63 100.349 c 128,-1,193
 666.44 101.982 666.44 101.982 670.371 105.682 c 128,-1,194
 674.301 109.381 674.301 109.381 676.142 111.309 c 128,-1,195
 677.983 113.236 677.983 113.236 683.196 119.091 c 128,-1,196
 688.409 124.947 688.409 124.947 691.143 127.934 c 0,197,198
 700.848 138.541 700.848 138.541 705.396 138.541 c 0,199,200
 709.002 138.541 709.002 138.541 709.002 131.945 c 0,201,202
 709.002 113.58 709.002 113.58 695.781 91.2165 c 0,203,204
 681.48 67.0307 681.48 67.0307 674.951 56.9992 c 128,-1,205
 668.421 46.9677 668.421 46.9677 654.201 28.9401 c 128,-1,206
 639.981 10.9124 639.981 10.9124 624.805 2.0255 c 128,-1,207
 609.629 -6.86138 609.629 -6.86138 591.41 -9.75847 c 0,208,209
 584.731 -10.8208 584.731 -10.8208 578.26 -10.8208 c 0,210,211
 549.14 -10.8208 549.14 -10.8208 526.338 10.0664 c 0,0,1
363.857 347.627 m 1,212,213
 368.348 352.764 368.348 352.764 382.92 374.963 c 0,214,215
 394.934 393.267 394.934 393.267 414.187 418.44 c 128,-1,216
 433.44 443.614 433.44 443.614 440.756 450.584 c 0,217,218
 446.633 457.466 446.633 457.466 462.786 476.54 c 128,-1,219
 478.94 495.613 478.94 495.613 487.848 505.934 c 0,220,221
 506.232 527.225 506.232 527.225 506.231 532.324 c 0,222,223
 506.231 533.934 506.231 533.934 504.402 533.934 c 0,224,225
 502.278 532.719 502.278 532.719 496.172 528.776 c 128,-1,226
 490.067 524.833 490.067 524.833 484.133 522.219 c 0,227,228
 453.943 511.324 453.943 511.324 424.411 511.324 c 0,229,230
 403.616 511.324 403.616 511.324 390.072 517.832 c 0,231,232
 383.431 521.023 383.431 521.023 372.349 530.334 c 128,-1,233
 361.267 539.644 361.267 539.644 353.072 543.934 c 1,234,235
 351.836 545.934 351.836 545.934 348.67 545.934 c 1,236,237
 344.364 541.209 344.364 541.209 310.516 508.4 c 0,238,239
 305.232 503.277 305.232 503.277 295.391 490.26 c 1,240,241
 296.105 482.652 296.105 482.652 296.105 470.953 c 0,242,243
 296.105 399.393 296.105 399.393 285.402 357.914 c 1,244,245
 293.814 356.625 293.814 356.625 363.857 347.627 c 1,212,213
EndSplineSet
EndChar

StartChar: VWithBarGoth
Encoding: 57394 57394 47
Width: 721
Flags: W
LayerCount: 2
Fore
SplineSet
423 0 m 1,0,1
 420.417 57.2447 420.417 57.2447 392.074 146.918 c 0,2,3
 388.538 156.116 388.538 156.116 374.492 195.584 c 128,-1,4
 360.446 235.052 360.446 235.052 349.741 259.649 c 128,-1,5
 339.037 284.245 339.037 284.245 325.797 305.727 c 0,6,7
 324.401 307.992 324.401 307.992 322.051 312.021 c 128,-1,8
 319.7 316.051 319.7 316.051 318.701 317.58 c 128,-1,9
 317.702 319.109 317.702 319.109 316.044 321.178 c 128,-1,10
 314.387 323.246 314.387 323.246 312.906 323.933 c 128,-1,11
 311.425 324.62 311.425 324.62 309.583 324.62 c 0,12,13
 303.124 324.62 303.124 324.62 282.83 309.006 c 0,14,15
 236.909 273.677 236.909 273.677 211.312 222.586 c 1,16,17
 194.318 193.28 194.318 193.28 191.387 152.771 c 0,18,19
 191.387 145.123 191.387 145.123 195.895 140.071 c 128,-1,20
 200.402 135.018 200.402 135.018 206.111 135.018 c 0,21,22
 240.571 131.742 240.571 131.742 255.852 120.064 c 0,23,24
 277.631 101.833 277.631 101.833 277.631 71.936 c 0,25,26
 277.631 64.1106 277.631 64.1106 276.062 55.8301 c 0,27,28
 272.721 32.7415 272.721 32.7415 256.674 17.5732 c 128,-1,29
 240.626 2.40482 240.626 2.40482 217.586 1.42188 c 1,30,31
 172.482 3.99945 172.482 3.99945 154.947 51.4824 c 0,32,33
 149.628 67.4676 149.628 67.4676 149.628 86.3313 c 0,34,35
 149.628 88.8452 149.628 88.8452 149.656 92.0176 c 0,36,37
 149.647 93.3445 149.647 93.3445 149.647 94.6632 c 0,38,39
 149.647 139.265 149.647 139.265 159.749 178.166 c 128,-1,40
 169.851 217.068 169.851 217.068 189.1 246.807 c 128,-1,41
 208.348 276.545 208.348 276.545 222.318 293.985 c 128,-1,42
 236.287 311.426 236.287 311.426 258.451 331.921 c 128,-1,43
 280.614 352.416 280.614 352.416 282.117 354.014 c 0,44,45
 293.91 365.183 293.91 365.183 293.91 370.677 c 0,46,47
 293.91 374.267 293.91 374.267 286.961 386.342 c 0,48,49
 250.704 452.772 250.704 452.772 196.561 524.809 c 0,50,51
 176.462 550.728 176.462 550.728 155.262 572.74 c 0,52,53
 153.665 574.371 153.665 574.371 147.233 581.631 c 128,-1,54
 140.8 588.89 140.8 588.89 134.842 594.696 c 128,-1,55
 128.883 600.501 128.883 600.501 123.287 604.242 c 1,56,57
 90.8329 601.174 90.8329 601.174 45.6504 568.566 c 0,58,59
 40.5156 564.86 40.5156 564.86 34.4199 561.078 c 128,-1,60
 28.3242 557.297 28.3242 557.297 24.6667 554.618 c 128,-1,61
 21.0091 551.939 21.0091 551.939 17.3789 547.992 c 1,62,63
 8.25702 578.316 8.25702 578.316 -0.0331898 595.395 c 1,64,65
 81.51 662.499 81.51 662.499 179.172 691.971 c 1,66,67
 232.677 649.467 232.677 649.467 268.881 605.787 c 0,68,69
 319.966 544.152 319.966 544.152 377.932 441.211 c 1,70,71
 392.39 455.94 392.39 455.94 400.85 469.018 c 0,72,73
 419.806 498.323 419.806 498.323 419.806 521.436 c 0,74,75
 419.806 524.713 419.806 524.713 419.587 528.305 c 0,76,77
 418.864 540.384 418.864 540.384 404.953 558.412 c 0,78,79
 398.781 567.391 398.781 567.391 384.979 577.638 c 128,-1,80
 371.177 587.885 371.177 587.885 362.233 599.392 c 128,-1,81
 353.289 610.899 353.289 610.899 352 629.201 c 1,82,-1
 351.997 629.61 l 2,83,84
 351.997 644.909 351.997 644.909 365.178 661.653 c 128,-1,85
 378.359 678.396 378.359 678.396 390.994 680.418 c 0,86,87
 397.048 681.386 397.048 681.386 403.135 681.386 c 0,88,89
 423.749 681.386 423.749 681.386 435.619 671.879 c 0,90,91
 452.267 658.549 452.267 658.549 460.984 629.814 c 0,92,93
 464.947 616.749 464.947 616.749 464.947 599.426 c 0,94,95
 464.947 582.552 464.947 582.552 460.879 566.77 c 0,96,97
 459.886 562.92 459.886 562.92 455.593 543.865 c 128,-1,98
 451.3 524.811 451.3 524.811 447.868 511.62 c 128,-1,99
 444.437 498.429 444.437 498.429 437.478 480.127 c 128,-1,100
 430.518 461.825 430.518 461.825 422.477 449.348 c 0,101,102
 419.301 444.288 419.301 444.288 414.238 437.246 c 128,-1,103
 409.175 430.204 409.175 430.204 408.055 428.246 c 1,104,105
 414.966 427.88 414.966 427.88 421.4 432.301 c 0,106,107
 478.365 471.543 478.365 471.543 513.018 552.018 c 0,108,109
 521.968 572.804 521.968 572.804 534.923 614.276 c 128,-1,110
 547.879 655.747 547.879 655.747 553.377 669.193 c 0,111,112
 554.205 671.176 554.205 671.176 555.153 673.599 c 128,-1,113
 556.101 676.022 556.101 676.022 556.747 677.583 c 128,-1,114
 557.393 679.144 557.393 679.144 558.092 680.531 c 1,115,116
 645.175 627.241 645.175 627.241 683.153 572.189 c 128,-1,117
 721.132 517.136 721.132 517.136 721.132 450.216 c 0,118,119
 721.132 437.531 721.132 437.531 719.871 424.018 c 0,120,121
 715.257 374.598 715.257 374.598 693.664 323.611 c 128,-1,122
 672.072 272.625 672.072 272.625 645.743 233.161 c 128,-1,123
 619.414 193.697 619.414 193.697 575.827 146.529 c 128,-1,124
 532.24 99.3607 532.24 99.3607 501.673 70.8547 c 128,-1,125
 471.105 42.3488 471.105 42.3488 423 0 c 1,0,1
495.16 128.895 m 1,126,127
 496.123 129.81 496.123 129.81 503.411 136.158 c 128,-1,128
 510.699 142.507 510.699 142.507 517.213 148.517 c 128,-1,129
 523.727 154.527 523.727 154.527 535.072 166.841 c 128,-1,130
 546.417 179.155 546.417 179.155 557.099 192.658 c 128,-1,131
 567.781 206.161 567.781 206.161 581.693 226.794 c 128,-1,132
 595.605 247.426 595.605 247.426 608.859 270.732 c 0,133,134
 633.833 314.645 633.833 314.645 634.979 386.066 c 0,135,136
 635.004 387.715 635.004 387.715 635.005 389.357 c 0,137,138
 635.005 485.212 635.005 485.212 542.086 541.018 c 1,139,-1
 541.333 541.019 l 2,140,141
 538.003 541.019 538.003 541.019 536.078 538.422 c 128,-1,142
 534.154 535.824 534.154 535.824 528.943 523.49 c 0,143,144
 519.522 501.187 519.522 501.187 504.703 475.012 c 0,145,146
 487.389 444.428 487.389 444.428 427.182 398.932 c 0,147,148
 414.838 389.604 414.838 389.604 410.006 385.744 c 1,149,150
 411.084 383.117 411.084 383.117 419.253 363.419 c 128,-1,151
 427.422 343.721 427.422 343.721 428.778 340.332 c 128,-1,152
 430.135 336.943 430.135 336.943 437.2 319.385 c 128,-1,153
 444.265 301.827 444.265 301.827 446.199 296.188 c 128,-1,154
 448.132 290.55 448.132 290.55 454.189 274.131 c 128,-1,155
 460.245 257.712 460.245 257.712 462.851 248.823 c 128,-1,156
 465.456 239.934 465.456 239.934 470.598 223.654 c 128,-1,157
 475.741 207.373 475.741 207.373 479.113 194.232 c 128,-1,158
 482.485 181.091 482.485 181.091 486.808 163.947 c 128,-1,159
 491.131 146.803 491.131 146.803 495.16 128.895 c 1,126,127
EndSplineSet
EndChar

StartChar: Line1
Encoding: 57395 57395 48
Width: 6908
Flags: W
LayerCount: 2
Fore
SplineSet
2701.79 209.626 m 2,0,1
 2742.59 209.501 2742.59 209.501 2768.2 206.189 c 0,2,3
 2778.98 204.795 2778.98 204.795 2807.05 201.337 c 128,-1,4
 2835.11 197.879 2835.11 197.879 2848.09 196.147 c 128,-1,5
 2861.06 194.416 2861.06 194.416 2885.36 190.543 c 128,-1,6
 2909.66 186.671 2909.66 186.671 2925.64 183.046 c 128,-1,7
 2941.61 179.421 2941.61 179.421 2962.11 173.671 c 128,-1,8
 2982.6 167.92 2982.6 167.92 3000.7 161.033 c 0,9,10
 3050.79 141.973 3050.79 141.973 3110.22 111.747 c 128,-1,11
 3169.66 81.5211 3169.66 81.5211 3191.79 66.0332 c 0,12,13
 3214.33 50.2681 3214.33 50.2681 3239.45 45.7207 c 1,14,15
 3274.07 60.3791 3274.07 60.3791 3323.97 96.6934 c 128,-1,16
 3373.87 133.008 3373.87 133.008 3400.86 163.221 c 0,17,18
 3411.99 175.681 3411.99 175.681 3422.11 181.404 c 128,-1,19
 3432.24 187.126 3432.24 187.126 3449.36 187.126 c 0,20,21
 3461.32 187.114 3461.32 187.114 3470.82 183.102 c 128,-1,22
 3480.31 179.09 3480.31 179.09 3483.37 176.564 c 128,-1,23
 3486.42 174.038 3486.42 174.038 3500.73 161.418 c 0,24,25
 3536.62 129.771 3536.62 129.771 3586.22 94.5042 c 128,-1,26
 3635.81 59.2374 3635.81 59.2374 3667.73 45.7207 c 1,27,28
 3692.55 50.2134 3692.55 50.2134 3715.39 66.1895 c 0,29,30
 3737.52 81.6766 3737.52 81.6766 3796.95 111.902 c 128,-1,31
 3856.39 142.128 3856.39 142.128 3906.48 161.189 c 0,32,33
 3928.02 169.385 3928.02 169.385 3949.43 175.533 c 128,-1,34
 3970.84 181.681 3970.84 181.681 4000.17 186.776 c 128,-1,35
 4029.51 191.871 4029.51 191.871 4041.91 193.888 c 128,-1,36
 4054.31 195.905 4054.31 195.905 4093.78 200.755 c 128,-1,37
 4133.26 205.604 4133.26 205.604 4138.98 206.346 c 0,38,39
 4164.97 209.706 4164.97 209.706 4208.99 209.706 c 0,40,41
 4263.09 209.706 4263.09 209.706 4324 205.263 c 128,-1,42
 4384.92 200.821 4384.92 200.821 4406.32 196.189 c 0,43,44
 4477.11 180.865 4477.11 180.865 4504.91 174.01 c 128,-1,45
 4532.7 167.155 4532.7 167.155 4577.23 150.708 c 128,-1,46
 4621.76 134.261 4621.76 134.261 4670.23 108.533 c 0,47,48
 4700.49 92.4751 4700.49 92.4751 4748 61.2021 c 128,-1,49
 4795.52 29.9292 4795.52 29.9292 4828.6 8.82692 c 128,-1,50
 4861.67 -12.2753 4861.67 -12.2753 4908.08 -29.3777 c 128,-1,51
 4954.5 -46.48 4954.5 -46.48 4997.86 -46.48 c 0,52,53
 5007.55 -46.48 5007.55 -46.48 5017.26 -45.685 c 0,54,55
 5082.56 -40.3442 5082.56 -40.3442 5115.71 -19.7485 c 1,56,57
 5114.25 -9.53129 5114.25 -9.53129 5103.34 -0.699197 c 128,-1,58
 5092.42 8.1329 5092.42 8.1329 5078.63 8.1329 c 0,59,60
 5070.88 8.1329 5070.88 8.1329 5063.51 4.93998 c 0,61,62
 5047.11 -2.17157 5047.11 -2.17157 5038.85 -2.17158 c 0,63,64
 5033.08 -2.17157 5033.08 -2.17157 5024.91 0.721225 c 0,65,66
 5002.52 8.66766 5002.52 8.66766 4993.87 18.1944 c 128,-1,67
 4985.21 27.7212 4985.21 27.7212 4985.21 45.5298 c 0,68,69
 4985.21 52.5696 4985.21 52.5696 4986.46 62.44 c 0,70,71
 4990.44 93.2957 4990.44 93.2957 5005.96 109.796 c 128,-1,72
 5021.48 126.296 5021.48 126.296 5045.66 126.296 c 0,73,74
 5066.87 126.296 5066.87 126.296 5092.11 113.534 c 1,75,76
 5145.2 78.2036 5145.2 78.2036 5183.36 10.7215 c 1,77,78
 5440.11 82.1121 5440.11 82.1121 5633.86 82.1121 c 0,79,80
 5720.22 82.1121 5720.22 82.1121 5801.46 69.3153 c 1,81,82
 5879.48 60.0471 5879.48 60.0471 5999.41 37.5147 c 128,-1,83
 6119.33 14.9823 6119.33 14.9823 6231.98 1.5736 c 128,-1,84
 6344.63 -11.8351 6344.63 -11.8351 6483.66 -11.8351 c 0,85,86
 6506.02 -11.8351 6506.02 -11.8351 6529.31 -11.466 c 0,87,88
 6580.63 -10.6518 6580.63 -10.6518 6687.67 0.869814 c 128,-1,89
 6794.7 12.3914 6794.7 12.3914 6850.51 12.3914 c 0,90,91
 6856.97 12.3914 6856.97 12.3914 6863.36 12.284 c 0,92,93
 6907.21 11.5364 6907.21 11.5364 6907.21 0.141423 c 0,94,95
 6907.21 -12.3517 6907.21 -12.3517 6857.28 -29.89 c 128,-1,96
 6807.35 -47.4283 6807.35 -47.4283 6732.56 -58.6535 c 0,97,98
 6569.37 -83.1564 6569.37 -83.1564 6445.81 -83.1564 c 0,99,100
 6367.28 -83.1564 6367.28 -83.1564 6288.36 -74.2785 c 0,101,102
 6260.35 -71.0568 6260.35 -71.0568 5828.96 -16.466 c 0,103,104
 5707.87 -0.864374 5707.87 -0.864374 5602.61 -0.864373 c 0,105,106
 5384.99 -0.864373 5384.99 -0.864373 5221.46 -67.5597 c 0,107,108
 5093.39 -119.806 5093.39 -119.806 5014.41 -119.806 c 0,109,110
 4992.37 -119.806 4992.37 -119.806 4972.71 -116.153 c 0,111,112
 4893 -101.306 4893 -101.306 4834.97 -77.368 c 128,-1,113
 4776.93 -53.4298 4776.93 -53.4298 4721.17 -4.27817 c 1,114,115
 4714.15 -31.9068 4714.15 -31.9068 4707.14 -49.3875 c 128,-1,116
 4700.12 -66.8682 4700.12 -66.8682 4686.15 -86.7664 c 128,-1,117
 4672.19 -106.665 4672.19 -106.665 4648.42 -119.146 c 128,-1,118
 4624.64 -131.626 4624.64 -131.626 4590.39 -137.716 c 0,119,120
 4558.56 -143.374 4558.56 -143.374 4528.83 -143.374 c 0,121,122
 4439.17 -143.374 4439.17 -143.374 4439.17 -96.2463 c 0,123,124
 4439.17 -84.1555 4439.17 -84.1555 4445.7 -69.2785 c 0,125,126
 4458.38 -40.3527 4458.38 -40.3527 4486.68 -40.3527 c 0,127,128
 4499.21 -40.3527 4499.21 -40.3527 4527.55 -47.7987 c 128,-1,129
 4555.9 -55.2446 4555.9 -55.2446 4570.07 -56.466 c 0,130,131
 4572.22 -56.6515 4572.22 -56.6515 4574.41 -56.6515 c 0,132,133
 4596.53 -56.6515 4596.53 -56.6515 4614.24 -40.5406 c 128,-1,134
 4631.94 -24.4298 4631.94 -24.4298 4631.94 -2.10468 c 0,135,136
 4631.94 5.1839 4631.94 5.1839 4629.76 12.4403 c 0,137,138
 4613.62 52.5445 4613.62 52.5445 4566.95 81.0429 c 128,-1,139
 4520.28 109.541 4520.28 109.541 4457.01 123.041 c 128,-1,140
 4393.74 136.541 4393.74 136.541 4336.72 142.128 c 128,-1,141
 4279.71 147.715 4279.71 147.715 4221.81 147.715 c 0,142,143
 4188.69 147.715 4188.69 147.715 4161.48 146.034 c 0,144,145
 4041.91 140.783 4041.91 140.783 3853.98 74.0023 c 1,146,147
 3800.71 49.6282 3800.71 49.6282 3782.8 39.5299 c 128,-1,148
 3764.89 29.4317 3764.89 29.4317 3758.98 20.4095 c 0,149,150
 3753.87 12.6063 3753.87 12.6063 3753.87 4.32902 c 0,151,152
 3753.87 -6.44125 3753.87 -6.44125 3763.98 -21.153 c 1,153,154
 3815.95 -65.6549 3815.95 -65.6549 3904.97 -91.4383 c 128,-1,155
 3993.99 -117.222 3993.99 -117.222 4078.99 -117.222 c 0,156,157
 4123.83 -117.222 4123.83 -117.222 4158.51 -109.591 c 0,158,159
 4184.56 -103.863 4184.56 -103.863 4201.05 -86.6795 c 128,-1,160
 4217.54 -69.496 4217.54 -69.496 4217.54 -48.1491 c 0,161,162
 4217.54 -10.5171 4217.54 -10.5171 4168.67 16.0345 c 0,163,164
 4149.9 26.223 4149.9 26.223 4131.92 26.223 c 0,165,166
 4108.69 26.223 4108.69 26.223 4083.04 9.15952 c 0,167,168
 4046.87 -14.9108 4046.87 -14.9108 4030.33 -14.9108 c 0,169,170
 4021.54 -14.9108 4021.54 -14.9108 4016.48 -8.80923 c 0,171,172
 4013.8 -5.57407 4013.8 -5.57407 4013.8 -0.276024 c 0,173,174
 4013.8 11.6502 4013.8 11.6502 4025.41 28.3054 c 128,-1,175
 4037.02 44.9606 4037.02 44.9606 4050.23 52.9095 c 0,176,177
 4086.95 75.0072 4086.95 75.0072 4126.65 75.0072 c 0,178,179
 4191.9 75.0072 4191.9 75.0072 4281.48 8.22198 c 0,180,181
 4285.53 5.20636 4285.53 5.20636 4290.03 5.20636 c 0,182,183
 4298.9 5.20636 4298.9 5.20636 4319.55 24.5558 c 128,-1,184
 4340.2 43.9053 4340.2 43.9053 4352.73 45.4095 c 0,185,186
 4354.88 45.667 4354.88 45.667 4357.39 45.667 c 0,187,188
 4369.08 45.667 4369.08 45.667 4382.26 41.0637 c 128,-1,189
 4395.44 36.4605 4395.44 36.4605 4399.14 30.4095 c 1,190,191
 4373.77 25.7434 4373.77 25.7434 4351.01 0.00230026 c 128,-1,192
 4328.25 -25.7388 4328.25 -25.7388 4304.54 -61.5249 c 128,-1,193
 4280.83 -97.3109 4280.83 -97.3109 4263.2 -112.872 c 0,194,195
 4240.6 -132.81 4240.6 -132.81 4201.68 -146.03 c 128,-1,196
 4162.76 -159.25 4162.76 -159.25 4125.23 -163.028 c 0,197,198
 4093.46 -166.229 4093.46 -166.229 4061.86 -166.229 c 0,199,200
 3890.06 -166.229 3890.06 -166.229 3735.07 -74.9028 c 1,201,202
 3692.33 -53.063 3692.33 -53.063 3670.42 -53.063 c 0,203,204
 3649.91 -53.063 3649.91 -53.063 3623.67 -71.6225 c 0,205,206
 3612.23 -79.349 3612.23 -79.349 3591.95 -92.4538 c 128,-1,207
 3571.66 -105.559 3571.66 -105.559 3562 -112.287 c 128,-1,208
 3552.34 -119.016 3552.34 -119.016 3537.6 -130.416 c 128,-1,209
 3522.87 -141.816 3522.87 -141.816 3510.19 -154.648 c 128,-1,210
 3497.5 -167.481 3497.5 -167.481 3483.51 -184.278 c 0,211,212
 3469.9 -200.618 3469.9 -200.618 3453.95 -200.656 c 0,213,214
 3436.85 -200.656 3436.85 -200.656 3423.82 -184.435 c 0,215,216
 3406.92 -163.385 3406.92 -163.385 3388.57 -146.485 c 128,-1,217
 3370.22 -129.585 3370.22 -129.585 3359.5 -121.781 c 128,-1,218
 3348.78 -113.977 3348.78 -113.977 3322.03 -96.8527 c 128,-1,219
 3295.29 -79.7285 3295.29 -79.7285 3283.51 -71.7775 c 0,220,221
 3257.27 -53.2189 3257.27 -53.2189 3236.76 -53.2189 c 0,222,223
 3214.85 -53.2189 3214.85 -53.2189 3172.11 -75.0587 c 1,224,225
 3017.36 -166.236 3017.36 -166.236 2845.48 -166.236 c 0,226,227
 2813.8 -166.236 2813.8 -166.236 2781.95 -163.027 c 0,228,229
 2744.33 -159.241 2744.33 -159.241 2705.44 -146.093 c 128,-1,230
 2666.55 -132.945 2666.55 -132.945 2643.98 -113.027 c 0,231,232
 2626.34 -97.4596 2626.34 -97.4596 2602.68 -61.6789 c 128,-1,233
 2579.01 -25.8981 2579.01 -25.8981 2556.29 -0.155216 c 128,-1,234
 2533.57 25.5877 2533.57 25.5877 2508.2 30.2528 c 1,235,236
 2511.91 36.328 2511.91 36.328 2525.07 40.9957 c 128,-1,237
 2538.24 45.6633 2538.24 45.6633 2549.88 45.6633 c 0,238,239
 2552.35 45.6633 2552.35 45.6633 2554.45 45.41 c 0,240,241
 2566.99 43.9052 2566.99 43.9052 2587.65 24.4818 c 128,-1,242
 2608.3 5.05836 2608.3 5.05836 2617.18 5.05836 c 0,243,244
 2621.67 5.05837 2621.67 5.05837 2625.7 8.06618 c 0,245,246
 2715.27 74.8513 2715.27 74.8513 2780.65 74.8513 c 0,247,248
 2820.39 74.8513 2820.39 74.8513 2857.11 52.7527 c 0,249,250
 2870.29 44.8188 2870.29 44.8188 2881.85 28.1858 c 128,-1,251
 2893.4 11.5529 2893.4 11.5529 2893.4 -0.385025 c 0,252,253
 2893.4 -5.70773 2893.4 -5.70773 2890.7 -8.96511 c 0,254,255
 2885.64 -15.0671 2885.64 -15.0671 2876.89 -15.0671 c 0,256,257
 2860.47 -15.0671 2860.47 -15.0671 2824.29 9.0027 c 0,258,259
 2798.65 26.0671 2798.65 26.0671 2775.42 26.0671 c 0,260,261
 2757.42 26.0671 2757.42 26.0671 2738.67 15.8777 c 0,262,263
 2689.8 -10.6726 2689.8 -10.6726 2689.8 -48.3049 c 0,264,265
 2689.8 -69.6528 2689.8 -69.6528 2706.29 -86.8359 c 128,-1,266
 2722.77 -104.019 2722.77 -104.019 2748.82 -109.746 c 0,267,268
 2783.52 -117.377 2783.52 -117.377 2828.33 -117.377 c 0,269,270
 2913.29 -117.377 2913.29 -117.377 3002.26 -91.5953 c 128,-1,271
 3091.22 -65.8132 3091.22 -65.8132 3143.2 -21.3088 c 1,272,273
 3153.32 -6.58059 3153.32 -6.58059 3153.32 4.1758 c 0,274,275
 3153.32 12.4363 3153.32 12.4363 3148.2 20.2527 c 0,276,277
 3142.29 29.2762 3142.29 29.2762 3124.38 39.3746 c 128,-1,278
 3106.47 49.4729 3106.47 49.4729 3053.2 73.8474 c 1,279,280
 2864.77 140.806 2864.77 140.806 2745.7 146.035 c 0,281,282
 2718.68 147.707 2718.68 147.707 2685.69 147.707 c 0,283,284
 2627.81 147.707 2627.81 147.707 2570.75 142.109 c 128,-1,285
 2513.69 136.511 2513.69 136.511 2450.36 122.993 c 128,-1,286
 2387.03 109.476 2387.03 109.476 2340.3 80.9477 c 128,-1,287
 2293.57 52.4194 2293.57 52.4194 2277.42 12.2847 c 0,288,289
 2275.24 5.02823 2275.24 5.02823 2275.24 -2.2544 c 0,290,291
 2275.24 -24.547 2275.24 -24.547 2292.94 -40.5994 c 128,-1,292
 2310.63 -56.6518 2310.63 -56.6518 2332.76 -56.6518 c 0,293,294
 2334.95 -56.6518 2334.95 -56.6518 2337.11 -56.4653 c 0,295,296
 2351.23 -55.248 2351.23 -55.248 2379.58 -47.8489 c 128,-1,297
 2407.93 -40.4497 2407.93 -40.4497 2420.48 -40.4497 c 0,298,299
 2448.92 -40.4497 2448.92 -40.4497 2461.64 -69.434 c 0,300,301
 2468.17 -84.3455 2468.17 -84.3455 2468.17 -96.4018 c 0,302,303
 2468.17 -143.529 2468.17 -143.529 2378.51 -143.529 c 0,304,305
 2348.77 -143.529 2348.77 -143.529 2316.95 -137.871 c 0,306,307
 2282.7 -131.782 2282.7 -131.782 2258.93 -119.28 c 128,-1,308
 2235.15 -106.777 2235.15 -106.777 2221.19 -86.84 c 128,-1,309
 2207.22 -66.9031 2207.22 -66.9031 2200.21 -49.4146 c 128,-1,310
 2193.2 -31.926 2193.2 -31.926 2186.17 -4.2775 c 1,311,312
 2130.38 -53.4494 2130.38 -53.4494 2072.24 -77.4634 c 128,-1,313
 2014.1 -101.477 2014.1 -101.477 1934.45 -116.309 c 0,314,315
 1914.91 -119.949 1914.91 -119.949 1892.89 -119.949 c 0,316,317
 1814.14 -119.949 1814.14 -119.949 1685.7 -67.559 c 0,318,319
 1522.43 -0.973095 1522.43 -0.973095 1305.06 -0.973091 c 0,320,321
 1199.65 -0.97309 1199.65 -0.97309 1078.2 -16.6225 c 0,322,323
 645.555 -71.378 645.555 -71.378 618.984 -74.434 c 0,324,325
 540.031 -83.312 540.031 -83.312 461.524 -83.312 c 0,326,327
 337.973 -83.312 337.973 -83.312 174.764 -58.809 c 0,328,329
 99.9591 -47.579 99.9591 -47.579 49.9799 -30.0332 c 128,-1,330
 0.000595093 -12.4875 0.000595093 -12.4875 0.000595093 0.00151062 c 0,331,332
 0.000595581 11.381 0.000595581 11.381 43.8258 12.1275 c 0,333,334
 50.1774 12.2359 50.1774 12.2359 56.6841 12.2359 c 0,335,336
 112.498 12.2359 112.498 12.2359 219.533 0.714226 c 128,-1,337
 326.569 -10.8075 326.569 -10.8075 377.888 -11.6225 c 0,338,339
 401.035 -11.9897 401.035 -11.9897 423.383 -11.9897 c 0,340,341
 562.449 -11.9897 562.449 -11.9897 675.153 1.45942 c 128,-1,342
 787.856 14.9085 787.856 14.9085 907.723 37.473 c 128,-1,343
 1027.59 60.0374 1027.59 60.0374 1105.7 69.316 c 1,344,345
 1186.97 82.1128 1186.97 82.1128 1273.31 82.1128 c 0,346,347
 1467.03 82.1128 1467.03 82.1128 1723.82 10.7222 c 1,348,349
 1761.99 78.2306 1761.99 78.2306 1815.07 113.534 c 1,350,351
 1840.31 126.296 1840.31 126.296 1861.55 126.296 c 0,352,353
 1885.76 126.296 1885.76 126.296 1901.33 109.79 c 128,-1,354
 1916.9 93.2834 1916.9 93.2834 1920.86 62.4407 c 0,355,356
 1922.11 52.6948 1922.11 52.6948 1922.11 45.5188 c 0,357,358
 1922.11 27.6647 1922.11 27.6647 1913.45 18.0837 c 128,-1,359
 1904.79 8.50272 1904.79 8.50272 1882.42 0.565712 c 0,360,361
 1874.26 -2.32709 1874.26 -2.32709 1868.45 -2.32709 c 0,362,363
 1860.1 -2.32709 1860.1 -2.32709 1843.67 4.78446 c 0,364,365
 1836.26 7.99408 1836.26 7.99408 1828.46 7.99408 c 0,366,367
 1814.68 7.99408 1814.68 7.99408 1803.8 -0.78079 c 128,-1,368
 1792.92 -9.55566 1792.92 -9.55566 1791.48 -19.7477 c 1,369,370
 1824.58 -40.3279 1824.58 -40.3279 1890.07 -45.6842 c 0,371,372
 1899.78 -46.4792 1899.78 -46.4792 1909.48 -46.4792 c 0,373,374
 1952.84 -46.4792 1952.84 -46.4792 1999.22 -29.3781 c 128,-1,375
 2045.61 -12.277 2045.61 -12.277 2078.66 8.8292 c 128,-1,376
 2111.71 29.9354 2111.71 29.9354 2159.2 61.2018 c 128,-1,377
 2206.68 92.4682 2206.68 92.4682 2236.95 108.534 c 0,378,379
 2285.37 134.233 2285.37 134.233 2330.17 150.704 c 128,-1,380
 2374.96 167.175 2374.96 167.175 2402.21 173.86 c 128,-1,381
 2429.46 180.545 2429.46 180.545 2501.01 196.034 c 0,382,383
 2522.48 200.679 2522.48 200.679 2583.46 205.155 c 128,-1,384
 2644.44 209.632 2644.44 209.632 2698.48 209.632 c 2,385,-1
 2701.79 209.626 l 2,0,1
3233.04 182.908 m 0,386,387
 3253.63 182.883 3253.63 182.883 3265.24 171.374 c 128,-1,388
 3276.85 159.865 3276.85 159.865 3276.85 144.299 c 0,389,390
 3276.85 129.165 3276.85 129.165 3265.74 118.224 c 128,-1,391
 3254.64 107.283 3254.64 107.283 3234.58 107.283 c 2,392,-1
 3234.45 107.283 l 2,393,394
 3214.21 107.325 3214.21 107.325 3202.96 118.642 c 128,-1,395
 3191.71 129.959 3191.71 129.959 3191.71 145.412 c 0,396,397
 3191.71 160.652 3191.71 160.652 3202.63 171.78 c 128,-1,398
 3213.55 182.908 3213.55 182.908 3233.04 182.908 c 0,386,387
3674.14 182.908 m 0,399,400
 3693.64 182.908 3693.64 182.908 3704.56 171.804 c 128,-1,401
 3715.47 160.7 3715.47 160.7 3715.47 145.49 c 0,402,403
 3715.47 130.067 3715.47 130.067 3704.22 118.774 c 128,-1,404
 3692.97 107.481 3692.97 107.481 3672.73 107.439 c 128,-1,405
 3652.54 107.438 3652.54 107.438 3641.44 118.356 c 128,-1,406
 3630.33 129.275 3630.33 129.275 3630.33 144.379 c 0,407,408
 3630.33 159.913 3630.33 159.913 3641.94 171.398 c 128,-1,409
 3653.55 182.883 3653.55 182.883 3674.14 182.908 c 0,399,400
3601.32 -28.0293 m 0,410,411
 3606.3 -20.827 3606.3 -20.827 3606.3 -11.2969 c 0,412,413
 3606.3 24.9054 3606.3 24.9054 3550.32 71.4768 c 128,-1,414
 3494.34 118.048 3494.34 118.048 3452.42 118.533 c 0,415,416
 3410.91 118.536 3410.91 118.536 3354.13 72.7612 c 128,-1,417
 3297.34 26.9863 3297.34 26.9863 3297.34 -8.0309 c 0,418,419
 3297.34 -20.0393 3297.34 -20.0393 3305.86 -28.029 c 0,420,421
 3398.64 -115.186 3398.64 -115.186 3453.51 -115.529 c 0,422,423
 3489.88 -115.531 3489.88 -115.531 3534.69 -87.5697 c 128,-1,424
 3579.5 -59.6087 3579.5 -59.6087 3601.32 -28.0293 c 0,410,411
3380.75 7.47852 m 0,425,426
 3386 55.206 3386 55.206 3453.82 55.251 c 0,427,428
 3517.2 55.252 3517.2 55.252 3522.47 3.51372 c 0,429,430
 3522.77 0.561304 3522.77 0.561304 3522.77 -2.36714 c 0,431,432
 3522.77 -25.6306 3522.77 -25.6306 3505.5 -41.7925 c 128,-1,433
 3488.22 -57.9543 3488.22 -57.9543 3457.72 -58.0194 c 0,434,435
 3425.63 -58.0204 3425.63 -58.0204 3403.06 -39.8836 c 128,-1,436
 3380.48 -21.7468 3380.48 -21.7468 3380.48 2.54006 c 0,437,438
 3380.48 5.00001 3380.48 5.00001 3380.75 7.47852 c 0,425,426
3666.64 -91.9355 m 2,439,440
 3687.69 -92.096 3687.69 -92.096 3699.26 -103.703 c 128,-1,441
 3710.83 -115.311 3710.83 -115.311 3710.83 -131.314 c 0,442,443
 3710.83 -147.76 3710.83 -147.76 3698.82 -159.927 c 128,-1,444
 3686.81 -172.094 3686.81 -172.094 3665.67 -172.094 c 2,445,-1
 3665.39 -172.092 l 2,446,447
 3644.47 -172 3644.47 -172 3632.83 -160.228 c 128,-1,448
 3621.2 -148.456 3621.2 -148.456 3621.2 -132.318 c 0,449,450
 3621.2 -115.957 3621.2 -115.957 3633.08 -103.946 c 128,-1,451
 3644.97 -91.9346 3644.97 -91.9346 3666.13 -91.9346 c 2,452,-1
 3666.64 -91.9355 l 2,439,440
3240.54 -92.0918 m 0,453,454
 3262.24 -92.0908 3262.24 -92.0908 3274.15 -104.131 c 128,-1,455
 3286.06 -116.17 3286.06 -116.17 3286.06 -132.553 c 0,456,457
 3286.06 -148.669 3286.06 -148.669 3274.45 -160.412 c 128,-1,458
 3262.84 -172.156 3262.84 -172.156 3241.95 -172.248 c 0,459,460
 3220.5 -172.25 3220.5 -172.25 3208.47 -160.054 c 128,-1,461
 3196.43 -147.858 3196.43 -147.858 3196.43 -131.393 c 0,462,463
 3196.43 -115.411 3196.43 -115.411 3207.98 -103.832 c 128,-1,464
 3219.52 -92.2523 3219.52 -92.2523 3240.54 -92.0918 c 0,453,454
EndSplineSet
EndChar

StartChar: Line2
Encoding: 57396 57396 49
Width: 10263
Flags: W
LayerCount: 2
Fore
SplineSet
5113.17 247.442 m 1,0,1
 5069.98 336.236 5069.98 336.236 5069.98 379.204 c 0,2,3
 5069.98 435.219 5069.98 435.219 5132.88 435.75 c 2,4,-1
 5133.97 435.755 l 2,5,6
 5191.16 435.755 5191.16 435.755 5191.16 384.345 c 0,7,8
 5191.16 364.734 5191.16 364.734 5184.31 340.999 c 128,-1,9
 5177.46 317.264 5177.46 317.264 5163.7 284.279 c 128,-1,10
 5149.94 251.294 5149.94 251.294 5149.28 249.514 c 1,11,-1
 5167.06 224.625 l 2,12,13
 5168.18 223.137 5168.18 223.137 5170.68 220.147 c 0,14,15
 5207.12 174.967 5207.12 174.967 5235.97 159 c 1,16,-1
 5305.72 238.438 l 2,17,18
 5325.95 261.474 5325.95 261.474 5343.03 261.474 c 0,19,20
 5353.71 261.474 5353.71 261.474 5359.31 249.938 c 0,21,22
 5360.8 246.87 5360.8 246.87 5360.8 243.369 c 0,23,24
 5360.8 231.567 5360.8 231.567 5341.35 211.613 c 128,-1,25
 5321.89 191.658 5321.89 191.658 5301.98 168.744 c 128,-1,26
 5282.06 145.831 5282.06 145.831 5281.25 127.188 c 2,27,-1
 5281.23 126.19 l 2,28,29
 5281.23 120.809 5281.23 120.809 5283.39 115.222 c 128,-1,30
 5285.55 109.635 5285.55 109.635 5290.99 103.235 c 128,-1,31
 5296.44 96.8356 5296.44 96.8356 5300.73 92.1717 c 128,-1,32
 5305.02 87.5078 5305.02 87.5078 5314.46 79.9788 c 128,-1,33
 5323.91 72.4498 5323.91 72.4498 5328.53 68.8646 c 128,-1,34
 5333.15 65.2795 5333.15 65.2795 5344.79 56.7765 c 128,-1,35
 5356.44 48.2735 5356.44 48.2735 5359.94 45.6562 c 0,36,37
 5361.36 44.8365 5361.36 44.8365 5366.59 44.7188 c 1,38,39
 5436.94 74.953 5436.94 74.953 5497.64 74.953 c 0,40,41
 5569.84 74.953 5569.84 74.953 5569.84 20.1476 c 0,42,43
 5569.83 -33.246 5569.83 -33.246 5497.85 -33.246 c 0,44,45
 5463.09 -33.246 5463.09 -33.246 5423.03 -21.2117 c 128,-1,46
 5382.97 -9.17735 5382.97 -9.17735 5360.81 5.5625 c 1,47,48
 5355.87 0.999345 5355.87 0.999345 5345.23 -8.6195 c 128,-1,49
 5334.6 -18.2383 5334.6 -18.2383 5330.55 -22.0751 c 128,-1,50
 5326.5 -25.9118 5326.5 -25.9118 5319 -33.3472 c 128,-1,51
 5311.49 -40.7825 5311.49 -40.7825 5308.56 -44.9562 c 128,-1,52
 5305.62 -49.1298 5305.62 -49.1298 5301.76 -55.1799 c 128,-1,53
 5297.9 -61.2299 5297.9 -61.2299 5296.59 -66.5386 c 128,-1,54
 5295.28 -71.8473 5295.28 -71.8473 5295.28 -77.5754 c 0,55,56
 5295.28 -80.4754 5295.28 -80.4754 5295.67 -83.5 c 0,57,58
 5298.13 -101.427 5298.13 -101.427 5311.79 -119.452 c 128,-1,59
 5325.44 -137.477 5325.44 -137.477 5340.26 -149.72 c 128,-1,60
 5355.09 -161.962 5355.09 -161.962 5367.16 -178.033 c 128,-1,61
 5379.23 -194.103 5379.23 -194.103 5379.23 -209.035 c 0,62,63
 5379.23 -211.403 5379.23 -211.403 5378.93 -213.844 c 0,64,65
 5378.22 -219.746 5378.22 -219.746 5373.2 -219.746 c 0,66,67
 5362.65 -219.746 5362.65 -219.746 5334.7 -195.091 c 128,-1,68
 5306.75 -170.436 5306.75 -170.436 5279.19 -142.117 c 128,-1,69
 5251.62 -113.797 5251.62 -113.797 5248.97 -111.844 c 1,70,-1
 5244.38 -112.5 l 1,71,72
 5221.87 -130.55 5221.87 -130.55 5193.18 -160.209 c 128,-1,73
 5164.48 -189.868 5164.48 -189.868 5150 -212.125 c 1,74,75
 5199.75 -302.408 5199.75 -302.408 5199.75 -349.709 c 0,76,77
 5199.75 -406.379 5199.75 -406.379 5132.49 -406.804 c 2,78,-1
 5131.5 -406.807 l 2,79,80
 5061.11 -406.807 5061.11 -406.807 5061.11 -345.557 c 0,81,82
 5061.11 -315.785 5061.11 -315.785 5076.61 -278.858 c 128,-1,83
 5092.11 -241.931 5092.11 -241.931 5112.84 -212.594 c 1,84,85
 5063.16 -147.013 5063.16 -147.013 5018.47 -113 c 1,86,-1
 5013.88 -112.312 l 1,87,88
 5011.22 -114.271 5011.22 -114.271 4983.66 -142.587 c 128,-1,89
 4956.09 -170.903 4956.09 -170.903 4928.14 -195.559 c 128,-1,90
 4900.19 -220.215 4900.19 -220.215 4889.65 -220.215 c 0,91,92
 4884.62 -220.215 4884.62 -220.215 4883.91 -214.312 c 1,93,94
 4896.95 -184.559 4896.95 -184.559 4935.16 -149.506 c 128,-1,95
 4973.37 -114.454 4973.37 -114.454 4986.01 -90.855 c 1,96,97
 4979.88 -75.9306 4979.88 -75.9306 4965.82 -58.7272 c 128,-1,98
 4951.76 -41.5238 4951.76 -41.5238 4941.29 -31.4858 c 128,-1,99
 4930.83 -21.4479 4930.83 -21.4479 4902.03 5.09315 c 1,100,101
 4879.87 -9.6476 4879.87 -9.6476 4839.81 -21.6815 c 128,-1,102
 4799.75 -33.7154 4799.75 -33.7154 4764.99 -33.7154 c 0,103,104
 4693.01 -33.7154 4693.01 -33.7154 4693 19.6556 c 0,105,106
 4693 74.4694 4693 74.4694 4765.17 74.4694 c 0,107,108
 4825.88 74.4694 4825.88 74.4694 4896.25 44.2182 c 1,109,110
 4901.41 44.3344 4901.41 44.3344 4902.91 45.1869 c 0,111,112
 4906.51 47.8557 4906.51 47.8557 4918.07 56.3097 c 128,-1,113
 4929.62 64.7638 4929.62 64.7638 4934.32 68.3849 c 128,-1,114
 4939.01 72.006 4939.01 72.006 4948.4 79.5016 c 128,-1,115
 4957.79 86.9972 4957.79 86.9972 4962.11 91.6793 c 128,-1,116
 4966.44 96.3614 4966.44 96.3614 4971.86 102.745 c 128,-1,117
 4977.29 109.129 4977.29 109.129 4979.45 114.719 c 128,-1,118
 4981.62 120.309 4981.62 120.309 4981.62 125.689 c 2,119,-1
 4981.59 126.687 l 2,120,121
 4980.78 145.33 4980.78 145.33 4960.87 168.251 c 128,-1,122
 4940.95 191.171 4940.95 191.171 4921.5 211.133 c 128,-1,123
 4902.04 231.096 4902.04 231.096 4902.04 242.899 c 0,124,125
 4902.04 246.401 4902.04 246.401 4903.53 249.468 c 0,126,127
 4909.13 260.996 4909.13 260.996 4919.8 260.996 c 0,128,129
 4936.89 260.996 4936.89 260.996 4957.16 237.937 c 2,130,-1
 5026.91 158.499 l 1,131,132
 5041.16 166.389 5041.16 166.389 5055.11 179.078 c 128,-1,133
 5069.05 191.767 5069.05 191.767 5074.81 198.577 c 128,-1,134
 5080.57 205.387 5080.57 205.387 5095.72 224.093 c 0,135,136
 5097.03 225.576 5097.03 225.576 5104.13 235.589 c 128,-1,137
 5111.24 245.603 5111.24 245.603 5113.17 247.442 c 1,0,1
5133.62 409.75 m 0,138,139
 5132.86 409.77 5132.86 409.77 5132.03 409.77 c 0,140,141
 5095.88 409.77 5095.88 409.77 5095.88 369.675 c 0,142,143
 5095.88 346.603 5095.88 346.603 5107.13 318.263 c 128,-1,144
 5118.39 289.923 5118.39 289.923 5131.55 274.374 c 1,145,146
 5144.57 291.291 5144.57 291.291 5156.74 320.428 c 128,-1,147
 5168.91 349.564 5168.91 349.564 5168.91 372.201 c 0,148,149
 5168.91 408.862 5168.91 408.862 5133.62 409.75 c 0,138,139
5727.34 362.688 m 0,150,151
 5728.58 362.699 5728.58 362.699 5729.83 362.699 c 0,152,153
 5794.28 362.699 5794.28 362.699 5836.64 333.116 c 128,-1,154
 5878.99 303.534 5878.99 303.534 5878.99 240.126 c 0,155,156
 5878.99 233.525 5878.99 233.525 5878.48 226.5 c 0,157,158
 5874.06 183.182 5874.06 183.182 5844.54 154.791 c 128,-1,159
 5815.03 126.4 5815.03 126.4 5777.55 126.4 c 0,160,161
 5733.26 126.4 5733.26 126.4 5701.19 166.594 c 1,162,163
 5700.53 169.174 5700.53 169.174 5700.53 171.427 c 0,164,165
 5700.53 179.82 5700.53 179.82 5710.54 184.444 c 128,-1,166
 5720.56 189.067 5720.56 189.067 5732.76 190.788 c 128,-1,167
 5744.95 192.509 5744.95 192.509 5755.76 199.317 c 128,-1,168
 5766.56 206.125 5766.56 206.125 5767.81 218.281 c 2,169,-1
 5768.57 232.489 l 1,170,171
 5768.57 293.473 5768.57 293.473 5712.08 293.473 c 0,172,173
 5710.76 293.473 5710.76 293.473 5709.41 293.438 c 0,174,175
 5663.79 292.236 5663.79 292.236 5639.42 263.88 c 128,-1,176
 5615.06 235.525 5615.06 235.525 5615.06 194.032 c 0,177,178
 5615.06 154.427 5615.06 154.427 5637 117.406 c 128,-1,179
 5658.94 80.3856 5658.94 80.3856 5698.31 61.125 c 0,180,181
 5747.11 37.2605 5747.11 37.2605 5784.4 37.2605 c 0,182,183
 5793.66 37.2605 5793.66 37.2605 5802.03 38.7812 c 0,184,185
 5908.42 58.11 5908.42 58.11 5987.32 111.447 c 128,-1,186
 6066.22 164.785 6066.22 164.785 6142.62 258 c 0,187,188
 6143.68 258 6143.68 258 6146.06 260.25 c 128,-1,189
 6148.29 262.34 6148.29 262.34 6153.03 262.553 c 128,-1,190
 6157.77 262.766 6157.77 262.766 6159.94 260.875 c 0,191,192
 6200.3 227.517 6200.3 227.517 6217.68 214.764 c 128,-1,193
 6235.06 202.012 6235.06 202.012 6279.03 177.528 c 128,-1,194
 6323 153.044 6323 153.044 6387.6 128.071 c 128,-1,195
 6452.19 103.097 6452.19 103.097 6560.28 65.4692 c 1,196,197
 6694.53 38.9253 6694.53 38.9253 6928.19 38.9253 c 0,198,199
 6938.56 38.9253 6938.56 38.9253 6995.3 39.0629 c 1,200,201
 7013.75 37.4133 7013.75 37.4133 7013.75 23.8301 c 0,202,203
 7013.54 19.1287 7013.54 19.1287 7007.53 11.2504 c 1,204,205
 6916.31 13.5381 6916.31 13.5381 6875.28 13.5381 c 0,206,207
 6704.02 13.5381 6704.02 13.5381 6582.16 -18.1558 c 1,208,209
 6512.76 -34.7277 6512.76 -34.7277 6462.86 -49.9204 c 128,-1,210
 6412.95 -65.1131 6412.95 -65.1131 6355.55 -88.8703 c 128,-1,211
 6298.15 -112.628 6298.15 -112.628 6249.12 -146.276 c 128,-1,212
 6200.09 -179.924 6200.09 -179.924 6158.22 -224 c 1,213,214
 6127.27 -180.694 6127.27 -180.694 6089.7 -141.503 c 128,-1,215
 6052.14 -102.311 6052.14 -102.311 6006.7 -67.211 c 128,-1,216
 5961.25 -32.1106 5961.25 -32.1106 5908.77 -11.2607 c 128,-1,217
 5856.28 9.58919 5856.28 9.58919 5805.83 9.58919 c 0,218,219
 5797.25 9.58918 5797.25 9.58918 5788.79 8.96936 c 0,220,221
 5676.15 0.728997 5676.15 0.728997 5631.84 -79.4994 c 0,222,223
 5611.92 -115.582 5611.92 -115.582 5611.92 -149.8 c 0,224,225
 5611.92 -175.088 5611.92 -175.088 5622.41 -205.999 c 0,226,227
 5630.89 -231.033 5630.89 -231.033 5655.86 -247.341 c 128,-1,228
 5680.84 -263.648 5680.84 -263.648 5707.68 -263.648 c 0,229,230
 5725.41 -263.648 5725.41 -263.648 5739 -255.905 c 0,231,232
 5783.59 -230.495 5783.59 -230.495 5783.59 -196.533 c 0,233,234
 5783.59 -182.393 5783.59 -182.393 5774.47 -173.03 c 0,235,236
 5766.34 -164.691 5766.34 -164.691 5748.78 -158.247 c 128,-1,237
 5731.22 -151.803 5731.22 -151.803 5718.19 -143.625 c 128,-1,238
 5705.16 -135.447 5705.16 -135.447 5701.97 -120.03 c 0,239,240
 5701.58 -118.165 5701.58 -118.165 5701.61 -116.338 c 0,241,242
 5701.59 -100.107 5701.59 -100.107 5727.17 -88.4845 c 128,-1,243
 5752.76 -76.8619 5752.76 -76.8619 5784.46 -76.8619 c 0,244,245
 5818.54 -76.8619 5818.54 -76.8619 5839.28 -90.9995 c 0,246,247
 5892.6 -127.334 5892.6 -127.334 5892.6 -185.804 c 0,248,249
 5892.6 -235.833 5892.6 -235.833 5853.09 -276.563 c 128,-1,250
 5813.58 -317.294 5813.58 -317.294 5750.66 -323.937 c 1,251,252
 5677.49 -320.482 5677.49 -320.482 5632.33 -271.999 c 128,-1,253
 5587.18 -223.516 5587.18 -223.516 5587.18 -155.72 c 0,254,255
 5587.18 -116.529 5587.18 -116.529 5603.44 -78.4995 c 1,256,257
 5616.68 -55.6757 5616.68 -55.6757 5630.58 -39.8139 c 128,-1,258
 5644.48 -23.952 5644.48 -23.952 5653.87 -16.9737 c 128,-1,259
 5663.26 -9.99529 5663.26 -9.99529 5682.33 2.2661 c 128,-1,260
 5701.41 14.5275 5701.41 14.5275 5713.28 23.2815 c 0,261,262
 5713.31 24.4971 5713.31 24.4971 5711.49 26.7487 c 128,-1,263
 5709.67 29.0003 5709.67 29.0003 5708.66 29.0003 c 0,264,265
 5646.22 58.3958 5646.22 58.3958 5617.8 91.7769 c 128,-1,266
 5589.38 125.158 5589.38 125.158 5579.31 189 c 0,267,268
 5577.44 200.882 5577.44 200.882 5577.44 212.958 c 0,269,270
 5577.44 270.631 5577.44 270.631 5615.3 314.495 c 128,-1,271
 5653.16 358.358 5653.16 358.358 5710.94 362.094 c 0,272,273
 5718.98 362.615 5718.98 362.615 5727.34 362.688 c 0,150,151
4531.44 362.219 m 2,274,-1
 4532.98 362.223 l 2,275,276
 4542.21 362.223 4542.21 362.223 4551.94 361.594 c 0,277,278
 4609.71 357.859 4609.71 357.859 4647.56 313.999 c 128,-1,279
 4685.41 270.139 4685.41 270.139 4685.41 212.468 c 0,280,281
 4685.41 200.453 4685.41 200.453 4683.53 188.5 c 0,282,283
 4673.47 124.66 4673.47 124.66 4645.05 91.2788 c 128,-1,284
 4616.63 57.8974 4616.63 57.8974 4554.19 28.5 c 0,285,286
 4553.18 28.5 4553.18 28.5 4551.37 26.2509 c 128,-1,287
 4549.57 24.0018 4549.57 24.0018 4549.59 22.7812 c 0,288,289
 4561.46 14.0209 4561.46 14.0209 4580.53 1.7695 c 128,-1,290
 4599.6 -10.4819 4599.6 -10.4819 4608.98 -17.4575 c 128,-1,291
 4618.37 -24.4331 4618.37 -24.4331 4632.27 -40.2891 c 128,-1,292
 4646.17 -56.145 4646.17 -56.145 4659.41 -78.9688 c 1,293,294
 4674.12 -115.949 4674.12 -115.949 4674.12 -155.501 c 0,295,296
 4674.12 -225.226 4674.12 -225.226 4631.19 -274.827 c 128,-1,297
 4588.26 -324.428 4588.26 -324.428 4515.09 -324.428 c 0,298,299
 4513.65 -324.428 4513.65 -324.428 4512.19 -324.406 c 0,300,301
 4449.27 -317.763 4449.27 -317.763 4409.76 -277.041 c 128,-1,302
 4370.25 -236.319 4370.25 -236.319 4370.25 -186.295 c 0,303,304
 4370.25 -127.828 4370.25 -127.828 4423.56 -91.5 c 0,305,306
 4444.31 -77.3624 4444.31 -77.3624 4478.38 -77.3624 c 0,307,308
 4510.08 -77.3624 4510.08 -77.3624 4535.67 -88.9852 c 128,-1,309
 4561.26 -100.608 4561.26 -100.608 4561.26 -116.839 c 0,310,311
 4561.26 -118.665 4561.26 -118.665 4560.87 -120.531 c 0,312,313
 4557.69 -135.948 4557.69 -135.948 4544.66 -144.125 c 128,-1,314
 4531.64 -152.303 4531.64 -152.303 4514.09 -158.747 c 128,-1,315
 4496.54 -165.192 4496.54 -165.192 4488.41 -173.531 c 0,316,317
 4479.28 -182.888 4479.28 -182.888 4479.28 -197.026 c 0,318,319
 4479.28 -230.959 4479.28 -230.959 4523.88 -256.375 c 0,320,321
 4537.47 -264.123 4537.47 -264.123 4555.21 -264.123 c 0,322,323
 4582.04 -264.123 4582.04 -264.123 4607 -247.826 c 128,-1,324
 4631.95 -231.528 4631.95 -231.528 4640.44 -206.5 c 0,325,326
 4650.94 -175.485 4650.94 -175.485 4650.94 -150.241 c 0,327,328
 4650.94 -116.009 4650.94 -116.009 4631.03 -79.9688 c 0,329,330
 4586.71 0.258737 4586.71 0.258737 4474.06 8.50002 c 0,331,332
 4465.59 9.1197 4465.59 9.1197 4457.02 9.1197 c 0,333,334
 4406.56 9.1197 4406.56 9.1197 4354.08 -11.7343 c 128,-1,335
 4301.59 -32.5882 4301.59 -32.5882 4256.15 -67.6963 c 128,-1,336
 4210.71 -102.804 4210.71 -102.804 4173.14 -141.997 c 128,-1,337
 4135.58 -181.19 4135.58 -181.19 4104.62 -224.5 c 1,338,339
 4062.76 -180.424 4062.76 -180.424 4013.72 -146.776 c 128,-1,340
 3964.69 -113.128 3964.69 -113.128 3907.29 -89.3706 c 128,-1,341
 3849.89 -65.6129 3849.89 -65.6129 3799.99 -50.4209 c 128,-1,342
 3750.08 -35.2289 3750.08 -35.2289 3680.69 -18.6563 c 1,343,344
 3558.83 13.0376 3558.83 13.0376 3387.59 13.0376 c 0,345,346
 3346.58 13.0376 3346.58 13.0376 3255.34 10.7499 c 1,347,348
 3249.29 18.6935 3249.29 18.6935 3249.09 23.2499 c 0,349,350
 3249.09 36.9439 3249.09 36.9439 3267.56 38.5937 c 1,351,352
 3324.21 38.456 3324.21 38.456 3334.64 38.456 c 0,353,354
 3568.32 38.456 3568.32 38.456 3702.56 64.9999 c 1,355,356
 3810.66 102.633 3810.66 102.633 3875.25 127.602 c 128,-1,357
 3939.84 152.571 3939.84 152.571 3983.81 177.038 c 128,-1,358
 4027.78 201.506 4027.78 201.506 4045.18 214.274 c 128,-1,359
 4062.58 227.041 4062.58 227.041 4102.91 260.375 c 0,360,361
 4105.08 262.265 4105.08 262.265 4109.81 262.053 c 128,-1,362
 4114.55 261.84 4114.55 261.84 4116.78 259.75 c 128,-1,363
 4119.18 257.5 4119.18 257.5 4120.25 257.5 c 0,364,365
 4196.65 164.276 4196.65 164.276 4275.54 110.943 c 128,-1,366
 4354.42 57.609 4354.42 57.609 4460.81 38.2809 c 0,367,368
 4469.18 36.7602 4469.18 36.7602 4478.44 36.7602 c 0,369,370
 4515.78 36.7602 4515.78 36.7602 4564.56 60.6247 c 0,371,372
 4603.93 79.8822 4603.93 79.8822 4625.86 116.896 c 128,-1,373
 4647.8 153.91 4647.8 153.91 4647.8 193.512 c 0,374,375
 4647.8 235.012 4647.8 235.012 4623.43 263.374 c 128,-1,376
 4599.07 291.736 4599.07 291.736 4553.44 292.938 c 0,377,378
 4552.07 292.972 4552.07 292.972 4550.76 292.973 c 0,379,380
 4494.3 292.973 4494.3 292.973 4494.3 232.008 c 0,381,382
 4494.3 225.218 4494.3 225.218 4495.06 217.781 c 0,383,384
 4496.31 205.624 4496.31 205.624 4507.11 198.816 c 128,-1,385
 4517.92 192.009 4517.92 192.009 4530.12 190.288 c 128,-1,386
 4542.32 188.567 4542.32 188.567 4552.33 183.944 c 128,-1,387
 4562.35 179.32 4562.35 179.32 4562.35 170.927 c 0,388,389
 4562.35 168.67 4562.35 168.67 4561.69 166.094 c 1,390,391
 4529.62 125.9 4529.62 125.9 4485.32 125.9 c 0,392,393
 4447.82 125.9 4447.82 125.9 4418.31 154.29 c 128,-1,394
 4388.79 182.679 4388.79 182.679 4384.38 226 c 0,395,396
 4383.85 233.019 4383.85 233.019 4383.87 239.621 c 0,397,398
 4383.86 302.621 4383.86 302.621 4425.71 332.236 c 128,-1,399
 4467.55 361.851 4467.55 361.851 4531.44 362.219 c 2,274,-1
5130.94 220.438 m 0,400,401
 5129.5 220.346 5129.5 220.346 5129.34 220.312 c 0,402,403
 5128.07 219.668 5128.07 219.668 5126.76 218.742 c 128,-1,404
 5125.45 217.816 5125.45 217.816 5123.92 216.61 c 128,-1,405
 5122.39 215.403 5122.39 215.403 5121.5 214.781 c 0,406,407
 5101.95 189.268 5101.95 189.268 5055.03 139.406 c 1,408,-1
 5053.69 135.625 l 1,409,410
 5092.3 111.997 5092.3 111.997 5132.41 111.997 c 0,411,412
 5172.81 111.997 5172.81 111.997 5209.16 136.125 c 1,413,-1
 5207.81 139.906 l 1,414,415
 5200.26 152.891 5200.26 152.891 5174.94 178.895 c 128,-1,416
 5149.62 204.899 5149.62 204.899 5143.22 212.875 c 1,417,418
 5133.83 219.948 5133.83 219.948 5130.94 220.438 c 0,400,401
6180.88 172.531 m 128,-1,420
 6178.51 172.416 6178.51 172.416 6174.78 169.094 c 0,421,422
 6105.52 113.494 6105.52 113.494 6043.62 78.1839 c 128,-1,423
 5981.73 42.8733 5981.73 42.8733 5913.94 31 c 1,424,-1
 5909.14 28.9899 l 2,425,426
 5909.78 28.3853 5909.78 28.3853 5912.12 27.9062 c 0,427,428
 5958.63 14.5094 5958.63 14.5094 6012.06 -14.5779 c 128,-1,429
 6065.49 -43.6653 6065.49 -43.6653 6097.35 -65.9219 c 128,-1,430
 6129.21 -88.1785 6129.21 -88.1785 6185.28 -129.906 c 1,431,432
 6247.74 -91.5003 6247.74 -91.5003 6296.21 -65.5388 c 128,-1,433
 6344.67 -39.5773 6344.67 -39.5773 6417.47 -13.789 c 128,-1,434
 6490.27 11.9994 6490.27 11.9994 6551.72 15.1882 c 1,435,436
 6556.33 22.4916 6556.33 22.4916 6553.28 24.0632 c 0,437,438
 6508.69 46.3948 6508.69 46.3948 6436.1 66.9949 c 128,-1,439
 6363.5 87.5949 6363.5 87.5949 6298.68 110.909 c 128,-1,440
 6233.87 134.223 6233.87 134.223 6187.66 169.719 c 0,441,419
 6183.24 172.646 6183.24 172.646 6180.88 172.531 c 128,-1,420
4081.28 172.031 m 0,442,443
 4079.18 171.843 4079.18 171.843 4075.22 169.219 c 0,444,445
 4029.01 133.722 4029.01 133.722 3964.19 110.408 c 128,-1,446
 3899.36 87.0941 3899.36 87.0941 3826.75 66.4944 c 128,-1,447
 3754.15 45.8947 3754.15 45.8947 3709.56 23.563 c 0,448,449
 3706.55 22.0078 3706.55 22.0078 3711.16 14.7193 c 1,450,451
 3772.6 11.5306 3772.6 11.5306 3845.4 -14.2723 c 128,-1,452
 3918.21 -40.0751 3918.21 -40.0751 3966.63 -66.0242 c 128,-1,453
 4015.05 -91.9734 4015.05 -91.9734 4077.56 -130.406 c 1,454,455
 4133.62 -88.6887 4133.62 -88.6887 4165.49 -66.4243 c 128,-1,456
 4197.36 -44.1599 4197.36 -44.1599 4250.78 -15.0752 c 128,-1,457
 4304.21 14.0095 4304.21 14.0095 4350.72 27.4063 c 0,458,459
 4356.04 28.4947 4356.04 28.4947 4352.98 29.725 c 0,460,461
 4351.66 30.2543 4351.66 30.2543 4348.91 30.5313 c 0,462,463
 4281.11 42.4045 4281.11 42.4045 4219.22 77.7148 c 128,-1,464
 4157.32 113.025 4157.32 113.025 4088.06 168.625 c 0,465,466
 4083.97 172.271 4083.97 172.271 4081.28 172.031 c 0,442,443
7345.06 108.312 m 2,467,-1
 7345.55 108.313 l 2,468,469
 7391.5 108.313 7391.5 108.313 7417.14 81.578 c 128,-1,470
 7442.77 54.843 7442.77 54.843 7442.77 18.1224 c 0,471,472
 7442.77 -19.0784 7442.77 -19.0784 7416.55 -46.3675 c 128,-1,473
 7390.34 -73.6567 7390.34 -73.6567 7343.52 -73.6567 c 2,474,-1
 7343.16 -73.6562 l 2,475,476
 7296.61 -73.5387 7296.61 -73.5387 7270.8 -47.0076 c 128,-1,477
 7244.99 -20.4766 7244.99 -20.4766 7244.99 16.0597 c 0,478,479
 7244.99 53.2536 7244.99 53.2536 7271.49 80.701 c 128,-1,480
 7298 108.148 7298 108.148 7345.06 108.312 c 2,467,-1
2914.72 107.812 m 0,481,482
 2915.25 107.822 2915.25 107.822 2917.78 107.812 c 0,483,484
 2964.85 107.648 2964.85 107.648 2991.36 80.195 c 128,-1,485
 3017.87 52.7416 3017.87 52.7416 3017.87 15.5436 c 0,486,487
 3017.87 -20.9884 3017.87 -20.9884 2992.07 -47.5135 c 128,-1,488
 2966.26 -74.0387 2966.26 -74.0387 2919.72 -74.1562 c 2,489,-1
 2919.36 -74.1567 l 2,490,491
 2872.53 -74.1567 2872.53 -74.1567 2846.3 -46.8559 c 128,-1,492
 2820.08 -19.555 2820.08 -19.555 2820.08 17.6581 c 0,493,494
 2820.08 53.8173 2820.08 53.8173 2845.01 80.4008 c 128,-1,495
 2869.94 106.984 2869.94 106.984 2914.72 107.812 c 0,481,482
5252.28 100.375 m 0,496,497
 5231.45 98.1217 5231.45 98.1217 5220.91 78.7465 c 128,-1,498
 5210.38 59.3713 5210.38 59.3713 5210.38 31.6492 c 128,-1,499
 5210.38 3.74226 5210.38 3.74226 5220.33 -21.4421 c 128,-1,500
 5230.29 -46.6264 5230.29 -46.6264 5246.62 -55.9375 c 0,501,502
 5250.2 -57.299 5250.2 -57.299 5258.69 -55.6562 c 1,503,504
 5285.91 -30.1922 5285.91 -30.1922 5334.28 22.9688 c 1,505,506
 5261.08 96.2823 5261.08 96.2823 5257.53 99.5 c 1,507,508
 5253.77 99.7558 5253.77 99.7558 5252.28 100.375 c 0,496,497
7556.5 100.094 m 2,509,-1
 7558.75 100.094 l 2,510,511
 7592.97 100.087 7592.97 100.087 7612.45 78.7597 c 128,-1,512
 7631.93 57.4324 7631.93 57.4324 7631.93 28.4644 c 128,-1,513
 7631.93 -0.335049 7631.93 -0.335049 7612.37 -21.3943 c 128,-1,514
 7592.8 -42.4536 7592.8 -42.4536 7557.12 -42.9688 c 0,515,516
 7556.35 -42.9799 7556.35 -42.9799 7555.58 -42.9799 c 0,517,518
 7521.01 -42.9799 7521.01 -42.9799 7502.23 -22.8185 c 128,-1,519
 7483.45 -2.65713 7483.45 -2.65713 7483.45 25.6271 c 0,520,521
 7483.45 54.8888 7483.45 54.8888 7502.99 77.0941 c 128,-1,522
 7522.54 99.2993 7522.54 99.2993 7556.5 100.094 c 2,509,-1
5010.56 99.9062 m 0,523,524
 5009.08 99.2871 5009.08 99.2871 5005.31 99.0312 c 1,525,526
 5002.44 96.4252 5002.44 96.4252 4928.56 22.4688 c 1,527,528
 4977.02 -30.776 4977.02 -30.776 5004.16 -56.1562 c 1,529,530
 5012.66 -57.8015 5012.66 -57.8015 5016.25 -56.4375 c 0,531,532
 5032.58 -47.1296 5032.58 -47.1296 5042.53 -21.9518 c 128,-1,533
 5052.48 3.2259 5052.48 3.2259 5052.48 31.1337 c 128,-1,534
 5052.48 58.8753 5052.48 58.8753 5041.94 78.2638 c 128,-1,535
 5031.4 97.6524 5031.4 97.6524 5010.56 99.9062 c 0,523,524
2704.12 99.625 m 0,536,537
 2739.09 99.625 2739.09 99.625 2759.25 77.2692 c 128,-1,538
 2779.42 54.9133 2779.42 54.9133 2779.42 25.1263 c 0,539,540
 2779.42 -3.15987 2779.42 -3.15987 2760.64 -23.3199 c 128,-1,541
 2741.87 -43.4799 2741.87 -43.4799 2707.29 -43.4799 c 0,542,543
 2706.52 -43.4799 2706.52 -43.4799 2705.75 -43.4688 c 0,544,545
 2670.07 -42.9536 2670.07 -42.9536 2650.51 -21.8904 c 128,-1,546
 2630.95 -0.827087 2630.95 -0.827087 2630.95 27.9799 c 128,-1,547
 2630.95 56.9536 2630.95 56.9536 2650.43 78.286 c 128,-1,548
 2669.91 99.6184 2669.91 99.6184 2704.12 99.625 c 0,536,537
7129.41 95.8438 m 0,549,550
 7129.71 95.8455 7129.71 95.8455 7129.99 95.8455 c 0,551,552
 7162.3 95.8455 7162.3 95.8455 7180.38 74.7675 c 128,-1,553
 7198.46 53.6895 7198.46 53.6895 7198.46 24.7096 c 0,554,555
 7198.46 -4.96449 7198.46 -4.96449 7179.56 -26.7555 c 128,-1,556
 7160.66 -48.5465 7160.66 -48.5465 7126.82 -48.5465 c 0,557,558
 7125.98 -48.5465 7125.98 -48.5465 7125.12 -48.5312 c 0,559,560
 7092.04 -47.9367 7092.04 -47.9367 7074.15 -27.7651 c 128,-1,561
 7056.25 -7.59363 7056.25 -7.59363 7056.25 20.489 c 0,562,563
 7056.25 50.4295 7056.25 50.4295 7075.87 73.0191 c 128,-1,564
 7095.49 95.6086 7095.49 95.6086 7129.41 95.8438 c 0,549,550
3133.44 95.375 m 0,565,566
 3167.38 95.1516 3167.38 95.1516 3187 72.5552 c 128,-1,567
 3206.63 49.9587 3206.63 49.9587 3206.63 20.0041 c 0,568,569
 3206.63 -8.08536 3206.63 -8.08536 3188.73 -28.261 c 128,-1,570
 3170.83 -48.4367 3170.83 -48.4367 3137.75 -49.0312 c 0,571,572
 3136.9 -49.0466 3136.9 -49.0466 3136.06 -49.0465 c 0,573,574
 3102.21 -49.0465 3102.21 -49.0465 3083.3 -27.244 c 128,-1,575
 3064.4 -5.44144 3064.4 -5.44144 3064.4 24.244 c 0,576,577
 3064.4 53.2255 3064.4 53.2255 3082.47 74.3012 c 128,-1,578
 3100.55 95.3769 3100.55 95.3769 3133.44 95.375 c 0,565,566
7345.25 77.8438 m 0,579,580
 7313.75 77.1357 7313.75 77.1357 7296.2 58.7072 c 128,-1,581
 7278.66 40.2786 7278.66 40.2786 7278.66 15.59 c 0,582,583
 7278.66 -8.50612 7278.66 -8.50612 7295.4 -25.9572 c 128,-1,584
 7312.14 -43.4082 7312.14 -43.4082 7342.07 -43.4082 c 0,585,586
 7342.35 -43.4082 7342.35 -43.4082 7342.66 -43.4062 c 0,587,588
 7373.5 -43.2075 7373.5 -43.2075 7391.16 -24.1465 c 128,-1,589
 7408.82 -5.08558 7408.82 -5.08558 7408.82 20.2165 c 0,590,591
 7408.82 43.9933 7408.82 43.9933 7392.77 60.9303 c 128,-1,592
 7376.72 77.8673 7376.72 77.8673 7347.33 77.8673 c 0,593,594
 7346.29 77.8673 7346.29 77.8673 7345.25 77.8438 c 0,579,580
2913.56 77.3438 m 0,595,596
 2885.09 76.7184 2885.09 76.7184 2869.57 59.8924 c 128,-1,597
 2854.05 43.0665 2854.05 43.0665 2854.05 19.7247 c 0,598,599
 2854.05 -5.58059 2854.05 -5.58059 2871.71 -24.6441 c 128,-1,600
 2889.38 -43.7076 2889.38 -43.7076 2920.22 -43.9062 c 2,601,-1
 2920.81 -43.9082 l 2,602,603
 2950.73 -43.9082 2950.73 -43.9082 2967.46 -26.463 c 128,-1,604
 2984.2 -9.01773 2984.2 -9.01773 2984.2 15.0738 c 0,605,606
 2984.2 39.7666 2984.2 39.7666 2966.65 58.2011 c 128,-1,607
 2949.1 76.6357 2949.1 76.6357 2917.59 77.3438 c 0,608,609
 2915.61 77.3889 2915.61 77.3889 2913.56 77.3438 c 0,595,596
7559.72 75 m 0,610,611
 7536.02 74.8286 7536.02 74.8286 7522.44 60.47 c 128,-1,612
 7508.85 46.1113 7508.85 46.1113 7508.85 26.9517 c 0,613,614
 7508.85 8.48731 7508.85 8.48731 7521.8 -4.7539 c 128,-1,615
 7534.75 -17.9951 7534.75 -17.9951 7558.5 -18.0625 c 0,616,617
 7558.6 -18.0628 7558.6 -18.0628 7558.71 -18.0628 c 0,618,619
 7582.57 -18.0628 7582.57 -18.0628 7595.73 -4.29128 c 128,-1,620
 7608.9 9.48024 7608.9 9.48024 7608.9 28.4221 c 128,-1,621
 7608.9 47.2849 7608.9 47.2849 7595.97 61.1433 c 128,-1,622
 7583.04 75.0018 7583.04 75.0018 7559.72 75 c 0,610,611
2703.12 74.5 m 0,623,624
 2702.88 74.5018 2702.88 74.5018 2702.64 74.5018 c 0,625,626
 2679.81 74.5018 2679.81 74.5018 2666.88 60.6441 c 128,-1,627
 2653.95 46.7864 2653.95 46.7864 2653.95 27.922 c 128,-1,628
 2653.95 8.97808 2653.95 8.97808 2667.11 -4.79236 c 128,-1,629
 2680.27 -18.5628 2680.27 -18.5628 2704.14 -18.5628 c 128,-1,630
 2728.1 -18.4951 2728.1 -18.4951 2741.05 -5.254 c 128,-1,631
 2754 7.98711 2754 7.98711 2754 26.452 c 0,632,633
 2754 45.6102 2754 45.6102 2740.41 59.9694 c 128,-1,634
 2726.82 74.3286 2726.82 74.3286 2703.12 74.5 c 0,623,624
7129.06 68.125 m 0,635,636
 7106.55 68.0044 7106.55 68.0044 7094.13 54.5278 c 128,-1,637
 7081.7 41.0511 7081.7 41.0511 7081.7 22.6536 c 0,638,639
 7081.7 4.59622 7081.7 4.59622 7093.59 -8.60844 c 128,-1,640
 7105.48 -21.8131 7105.48 -21.8131 7126.5 -21.8131 c 0,641,642
 7126.65 -21.8131 7126.65 -21.8131 7126.78 -21.8125 c 0,643,644
 7148.48 -21.7119 7148.48 -21.7119 7161.11 -7.44621 c 128,-1,645
 7173.74 6.81951 7173.74 6.81951 7173.74 25.6282 c 0,646,647
 7173.74 43.2231 7173.74 43.2231 7162.24 55.6745 c 128,-1,648
 7150.73 68.1259 7150.73 68.1259 7129.06 68.125 c 0,635,636
3133.81 67.6562 m 2,649,-1
 3133.46 67.6572 l 2,650,651
 3112.14 67.6572 3112.14 67.6572 3100.63 55.1949 c 128,-1,652
 3089.12 42.7327 3089.12 42.7327 3089.12 25.1274 c 0,653,654
 3089.12 6.3164 3089.12 6.3164 3101.74 -7.94779 c 128,-1,655
 3114.36 -22.212 3114.36 -22.212 3136.06 -22.3125 c 0,656,657
 3157.37 -22.3131 3157.37 -22.3131 3169.26 -9.09769 c 128,-1,658
 3181.16 4.11772 3181.16 4.11772 3181.16 22.1863 c 0,659,660
 3181.16 40.5862 3181.16 40.5862 3168.74 54.0609 c 128,-1,661
 3156.32 67.5356 3156.32 67.5356 3133.81 67.6562 c 2,649,-1
7365.19 64.1875 m 0,662,663
 7365.54 64.2043 7365.54 64.2043 7365.9 64.2042 c 0,664,665
 7376.55 64.2042 7376.55 64.2042 7376.55 58.3512 c 0,666,667
 7376.55 56.6802 7376.55 56.6802 7374.72 55.0625 c 0,668,669
 7352.68 35.6596 7352.68 35.6596 7352.68 21.6656 c 0,670,671
 7352.68 8.42019 7352.68 8.42019 7371.31 -13.4375 c 0,672,673
 7373.77 -16.3273 7373.77 -16.3273 7373.77 -18.8764 c 0,674,675
 7373.77 -23.6117 7373.77 -23.6117 7366.7 -23.6117 c 0,676,677
 7364.09 -23.6117 7364.09 -23.6117 7360.82 -22.8125 c 0,678,679
 7348.46 -19.7962 7348.46 -19.7962 7341.8 -7.79305 c 128,-1,680
 7335.14 4.21008 7335.14 4.21008 7335.14 19.5597 c 0,681,682
 7335.14 36.1785 7335.14 36.1785 7342.74 49.1158 c 128,-1,683
 7350.34 62.053 7350.34 62.053 7363.81 64.0625 c 0,684,685
 7364.4 64.1516 7364.4 64.1516 7365.19 64.1875 c 0,662,663
2896.28 63.6875 m 0,686,687
 2897.79 63.7534 2897.79 63.7534 2899.06 63.5625 c 0,688,689
 2912.53 61.5531 2912.53 61.5531 2920.14 48.6213 c 128,-1,690
 2927.74 35.6895 2927.74 35.6895 2927.74 19.0766 c 0,691,692
 2927.74 3.73218 2927.74 3.73218 2921.08 -8.26642 c 128,-1,693
 2914.41 -20.265 2914.41 -20.265 2902.06 -23.2812 c 0,694,695
 2898.78 -24.0832 2898.78 -24.0832 2896.15 -24.0832 c 0,696,697
 2892.73 -24.0832 2892.73 -24.0832 2890.91 -22.7906 c 128,-1,698
 2889.08 -21.498 2889.08 -21.498 2889.08 -19.3577 c 0,699,700
 2889.08 -16.808 2889.08 -16.808 2891.53 -13.9375 c 0,701,702
 2910.17 7.93226 2910.17 7.93226 2910.17 21.1656 c 0,703,704
 2910.17 35.1637 2910.17 35.1637 2888.12 54.5625 c 0,705,706
 2886.29 56.1768 2886.29 56.1768 2886.29 57.8443 c 0,707,708
 2886.29 63.2553 2886.29 63.2553 2896.28 63.6875 c 0,686,687
7580.66 56.3438 m 0,709,710
 7584.02 56.5296 7584.02 56.5296 7585.32 54.9397 c 128,-1,711
 7586.61 53.3498 7586.61 53.3498 7584.28 51.375 c 0,712,713
 7571.44 40.9231 7571.44 40.9231 7571.44 28.9979 c 0,714,715
 7571.44 20.1763 7571.44 20.1763 7579.97 5.625 c 0,716,717
 7580.61 4.52264 7580.61 4.52264 7580.61 3.65173 c 0,718,719
 7580.61 1.33488 7580.61 1.33488 7577.06 1.33488 c 0,720,721
 7571.09 1.33488 7571.09 1.33488 7568 6.25 c 0,722,723
 7559.38 19.9867 7559.38 19.9867 7559.38 29.3483 c 0,724,725
 7559.38 41.0961 7559.38 41.0961 7571.72 52.2812 c 0,726,727
 7575.91 56.0825 7575.91 56.0825 7580.66 56.3438 c 0,709,710
2682.19 55.875 m 0,728,729
 2686.89 55.6163 2686.89 55.6163 2691.12 51.7812 c 0,730,731
 2703.48 40.5781 2703.48 40.5781 2703.48 28.8233 c 0,732,733
 2703.48 19.4664 2703.48 19.4664 2694.88 5.75 c 0,734,735
 2691.8 0.834882 2691.8 0.834882 2685.8 0.834881 c 0,736,737
 2682.23 0.834881 2682.23 0.834881 2682.23 3.15557 c 0,738,739
 2682.23 4.0327 2682.23 4.0327 2682.88 5.125 c 0,740,741
 2691.41 19.7081 2691.41 19.7081 2691.41 28.4979 c 0,742,743
 2691.41 40.4151 2691.41 40.4151 2678.56 50.875 c 0,744,745
 2676.23 52.85 2676.23 52.85 2677.53 54.4553 c 128,-1,746
 2678.83 56.0607 2678.83 56.0607 2682.19 55.875 c 0,728,729
5495.59 53.4062 m 0,747,748
 5495.32 53.4076 5495.32 53.4076 5495.03 53.4075 c 0,749,750
 5468.27 53.4075 5468.27 53.4075 5439.06 43.7265 c 128,-1,751
 5409.86 34.0455 5409.86 34.0455 5396.25 20.8125 c 1,752,753
 5411.32 8.74129 5411.32 8.74129 5442.62 -1.51131 c 128,-1,754
 5473.93 -11.7639 5473.93 -11.7639 5500.2 -11.7639 c 0,755,756
 5544.9 -11.7639 5544.9 -11.7639 5545.44 19.4062 c 2,757,-1
 5545.44 20.0994 l 2,758,759
 5545.44 53.1851 5545.44 53.1851 5495.59 53.4062 c 0,747,748
4767.28 52.9062 m 0,760,761
 4717.43 52.685 4717.43 52.685 4717.43 19.5994 c 2,762,-1
 4717.44 18.9062 l 2,763,764
 4717.98 -12.2639 4717.98 -12.2639 4762.68 -12.2639 c 0,765,766
 4788.95 -12.2639 4788.95 -12.2639 4820.25 -2.0115 c 128,-1,767
 4851.55 8.2409 4851.55 8.2409 4866.62 20.3125 c 1,768,769
 4853.01 33.546 4853.01 33.546 4823.81 43.2268 c 128,-1,770
 4794.61 52.9075 4794.61 52.9075 4767.85 52.9075 c 0,771,772
 4767.57 52.9075 4767.57 52.9075 4767.28 52.9062 c 0,760,761
7140.47 48.875 m 0,773,774
 7142.82 48.8726 7142.82 48.8726 7143.98 48.1709 c 128,-1,775
 7145.14 47.4691 7145.14 47.4691 7144.28 46.0938 c 0,776,777
 7132.67 27.5662 7132.67 27.5662 7132.67 19.6491 c 0,778,779
 7132.67 12.2579 7132.67 12.2579 7142.62 -4.6875 c 1,780,-1
 7140.17 -6.95023 l 1,781,782
 7135.38 -8.28034 7135.38 -8.28034 7131.97 -5.46875 c 0,783,784
 7122.35 2.46129 7122.35 2.46129 7122.35 19.9136 c 0,785,786
 7122.35 38.5447 7122.35 38.5447 7132.47 46.7812 c 0,787,788
 7135.04 48.8805 7135.04 48.8805 7140.47 48.875 c 0,773,774
3122.38 48.375 m 0,789,790
 3127.82 48.3805 3127.82 48.3805 3130.41 46.2812 c 0,791,792
 3140.52 38.0528 3140.52 38.0528 3140.52 19.43 c 0,793,794
 3140.52 1.98455 3140.52 1.98455 3130.91 -5.9375 c 0,795,796
 3124.51 -9.96702 3124.51 -9.96702 3120.22 -5.15625 c 1,797,798
 3130.17 11.7631 3130.17 11.7631 3130.17 19.1805 c 0,799,800
 3130.17 27.0978 3130.17 27.0978 3118.56 45.625 c 0,801,802
 3117.7 46.998 3117.7 46.998 3118.86 47.6854 c 128,-1,803
 3120.02 48.3727 3120.02 48.3727 3122.38 48.375 c 0,789,790
9858.59 27.8438 m 0,804,805
 10033 27.8288 10033 27.8288 10166.3 27.6562 c 0,806,807
 10208 27.6026 10208 27.6026 10253.8 7.7812 c 0,808,809
 10262 5.07058 10262 5.07058 10262.9 0.49995 c 0,810,811
 10263.1 -1.00072 10263.1 -1.00072 10263.1 -1.58009 c 0,812,813
 10263.1 -8.6786 10263.1 -8.6786 10244.5 -8.7813 c 0,814,815
 8891.76 -16.2573 8891.76 -16.2573 7857.2 -16.2573 c 0,816,817
 7765.23 -16.2573 7765.23 -16.2573 7700.28 -16.125 c 0,818,819
 7667.63 -16.0586 7667.63 -16.0586 7667.63 -1.74005 c 2,820,-1
 7667.66 -0.8751 l 1,821,822
 7670.35 23.0896 7670.35 23.0896 7704.94 23.1874 c 0,823,824
 9361.04 27.8447 9361.04 27.8447 9834.07 27.8447 c 0,825,826
 9846.34 27.8447 9846.34 27.8447 9858.59 27.8438 c 0,804,805
404.25 27.375 m 0,827,828
 416.274 27.376 416.274 27.376 428.303 27.3759 c 0,829,830
 890.745 27.3761 890.745 27.3761 2557.94 22.6875 c 0,831,832
 2592.5 22.5898 2592.5 22.5898 2595.19 -1.375 c 1,833,-1
 2595.21 -2.23995 l 2,834,835
 2595.21 -16.5587 2595.21 -16.5587 2562.56 -16.625 c 0,836,837
 2498.06 -16.7563 2498.06 -16.7563 2406.88 -16.7563 c 0,838,839
 1376.65 -16.7563 1376.65 -16.7563 18.3381 -9.24995 c 0,840,841
 -0.217226 -9.14737 -0.217226 -9.14737 -0.217228 -2.07892 c 0,842,843
 -0.217227 -1.12784 -0.217227 -1.12784 -0.00563109 5.05447e-05 c 0,844,845
 0.853525 4.57898 0.853525 4.57898 9.11937 7.2813 c 0,846,847
 54.9166 27.1028 54.9166 27.1028 96.5569 27.1563 c 0,848,849
 255.544 27.3623 255.544 27.3623 404.25 27.375 c 0,827,828
5208.66 -87.6875 m 1,850,851
 5174.84 -60.7625 5174.84 -60.7625 5131.69 -60.7625 c 0,852,853
 5088.13 -60.7625 5088.13 -60.7625 5054.22 -88.1875 c 1,854,855
 5049.25 -94.1582 5049.25 -94.1582 5050.12 -101.125 c 0,856,857
 5050.81 -106.642 5050.81 -106.642 5053.06 -107.5 c 0,858,859
 5098.95 -149.179 5098.95 -149.179 5127.5 -184.562 c 0,860,861
 5130.79 -188.938 5130.79 -188.938 5131.47 -188.969 c 0,862,863
 5134.47 -186.04 5134.47 -186.04 5135.34 -185.062 c 0,864,865
 5163.25 -150.526 5163.25 -150.526 5209.81 -107 c 0,866,867
 5212.06 -106.147 5212.06 -106.147 5212.75 -100.625 c 0,868,869
 5213.62 -93.6481 5213.62 -93.6481 5208.66 -87.6875 c 1,850,851
5131.28 -240.531 m 1,870,871
 5130.75 -241.305 5130.75 -241.305 5130.62 -241.5 c 0,872,873
 5090.73 -297.022 5090.73 -297.022 5090.73 -337.866 c 0,874,875
 5090.73 -373.28 5090.73 -373.28 5130.28 -374.094 c 0,876,877
 5131.18 -374.112 5131.18 -374.112 5132.06 -374.112 c 0,878,879
 5172.92 -374.112 5172.92 -374.112 5172.92 -336.385 c 0,880,881
 5172.92 -315.473 5172.92 -315.473 5160.88 -288.85 c 128,-1,882
 5148.83 -262.227 5148.83 -262.227 5132.25 -242 c 0,883,884
 5131.66 -241.085 5131.66 -241.085 5131.28 -240.531 c 1,870,871
EndSplineSet
EndChar

StartChar: Line3
Encoding: 57397 57397 50
Width: 9428
Flags: W
LayerCount: 2
Fore
SplineSet
4700.54 165.649 m 0,0,1
 4728.5 165.653 4728.5 165.653 4753.68 151.896 c 128,-1,2
 4778.85 138.14 4778.85 138.14 4793.32 122.794 c 128,-1,3
 4807.79 107.447 4807.79 107.447 4827.84 81.0625 c 1,4,5
 4834.16 70.4517 4834.16 70.4517 4834.16 66.09 c 0,6,7
 4834.16 62.1488 4834.16 62.1488 4830.98 58.375 c 0,8,9
 4793.44 11.4784 4793.44 11.4784 4724.29 -32.4219 c 1,10,11
 4790.21 -71.0607 4790.21 -71.0607 4895.33 -71.0607 c 0,12,13
 4929.83 -71.0607 4929.83 -71.0607 4956.52 -66.5938 c 1,14,15
 4986.55 -55.9673 4986.55 -55.9673 5019.46 -34.712 c 128,-1,16
 5052.37 -13.4567 5052.37 -13.4567 5065.78 9.01559 c 0,17,18
 5072.98 21.0877 5072.98 21.0877 5072.98 33.8877 c 0,19,20
 5072.98 51.6732 5072.98 51.6732 5060.24 64.2856 c 128,-1,21
 5047.51 76.8981 5047.51 76.8981 5028.81 76.8981 c 0,22,23
 5028.39 76.8981 5028.39 76.8981 5027.95 76.8906 c 0,24,25
 4990.43 76.2355 4990.43 76.2355 4982.34 31.4688 c 0,26,27
 4980.31 20.2312 4980.31 20.2312 4978.73 16.6859 c 128,-1,28
 4977.16 13.1406 4977.16 13.1406 4973.02 13.1406 c 0,29,30
 4964.29 13.1406 4964.29 13.1406 4960.17 25.7031 c 0,31,32
 4957.51 33.8493 4957.51 33.8493 4957.51 42.1046 c 0,33,34
 4957.51 65.6505 4957.51 65.6505 4977.01 82.8889 c 128,-1,35
 4996.5 100.127 4996.5 100.127 5028 101.312 c 0,36,37
 5029.7 101.377 5029.7 101.377 5031.42 101.377 c 0,38,39
 5060.91 101.377 5060.91 101.377 5080.05 84.0838 c 128,-1,40
 5099.19 66.7905 5099.19 66.7905 5099.19 40.7509 c 0,41,42
 5099.19 27.914 5099.19 27.914 5094.09 14.7344 c 0,43,44
 5080.77 -19.7659 5080.77 -19.7659 5040.36 -50.272 c 128,-1,45
 4999.96 -80.778 4999.96 -80.778 4951.92 -98.8906 c 1,46,47
 4978.3 -108.038 4978.3 -108.038 5031.94 -115.389 c 128,-1,48
 5085.58 -122.739 5085.58 -122.739 5141.44 -122.739 c 0,49,50
 5260.77 -122.739 5260.77 -122.739 5317.97 -87.5938 c 1,51,52
 5358.55 -59.4908 5358.55 -59.4908 5374.47 -45.5044 c 128,-1,53
 5390.4 -31.518 5390.4 -31.518 5405.91 -13.3906 c 0,54,55
 5426.71 10.9288 5426.71 10.9288 5426.71 44.5501 c 0,56,57
 5426.71 73.9136 5426.71 73.9136 5410.64 94.1406 c 0,58,59
 5391.85 117.799 5391.85 117.799 5367.14 117.799 c 0,60,61
 5353.73 117.799 5353.73 117.799 5343.84 110.453 c 0,62,63
 5332.49 102.017 5332.49 102.017 5332.49 82.5047 c 0,64,65
 5332.49 60.2805 5332.49 60.2805 5347.03 45.7656 c 2,66,-1
 5354.53 38.5 l 1,67,-1
 5350.88 35.7344 l 1,68,69
 5345.25 34.2423 5345.25 34.2423 5339.78 34.2423 c 0,70,71
 5319.29 34.2423 5319.29 34.2423 5305.65 52.6229 c 128,-1,72
 5292.01 71.0034 5292.01 71.0034 5292.01 94.8619 c 0,73,74
 5292.01 121.563 5292.01 121.563 5309.39 138.812 c 0,75,76
 5336.68 165.898 5336.68 165.898 5370 165.898 c 0,77,78
 5409.73 165.898 5409.73 165.898 5438.2 127.891 c 0,79,80
 5457.69 101.883 5457.69 101.883 5457.69 65.9649 c 0,81,82
 5457.69 9.15807 5457.69 9.15807 5419.78 -29.4219 c 0,83,84
 5402.39 -47.1245 5402.39 -47.1245 5390.31 -57.7779 c 128,-1,85
 5378.22 -68.4312 5378.22 -68.4312 5372.01 -73.0672 c 128,-1,86
 5365.79 -77.7032 5365.79 -77.7032 5340.66 -95.7031 c 1,87,88
 5363.08 -83.662 5363.08 -83.662 5418.77 -52.9379 c 128,-1,89
 5474.46 -22.2138 5474.46 -22.2138 5503.15 -7.22156 c 128,-1,90
 5531.84 7.77071 5531.84 7.77071 5583.13 33.3233 c 128,-1,91
 5634.43 58.8759 5634.43 58.8759 5671.06 72.2693 c 128,-1,92
 5707.7 85.6627 5707.7 85.6627 5754.73 100.714 c 128,-1,93
 5801.77 115.765 5801.77 115.765 5846.49 122.23 c 128,-1,94
 5891.22 128.695 5891.22 128.695 5935.66 128.695 c 0,95,96
 5970.75 128.695 5970.75 128.695 6005.02 124.188 c 1,97,98
 6098.46 99.5412 6098.46 99.5412 6131.81 57.7655 c 1,99,100
 6344.59 114.845 6344.59 114.845 6567.33 126.672 c 0,101,102
 6711.97 134.351 6711.97 134.351 6786.51 134.351 c 0,103,104
 6885.08 134.351 6885.08 134.351 6988.64 121.422 c 0,105,106
 7042.61 114.685 7042.61 114.685 7246.07 88.4708 c 128,-1,107
 7449.52 62.2562 7449.52 62.2562 7540.67 51.7211 c 128,-1,108
 7631.82 41.1859 7631.82 41.1859 7792.39 24.1775 c 128,-1,109
 7952.95 7.16904 7952.95 7.16904 8077.61 0.0291924 c 128,-1,110
 8202.28 -7.11066 8202.28 -7.11066 8316.28 -7.71912 c 0,111,112
 8364.18 -7.97476 8364.18 -7.97476 8478.36 -9.26246 c 128,-1,113
 8592.54 -10.5502 8592.54 -10.5502 8651.73 -10.5502 c 0,114,115
 8872.96 -10.5502 8872.96 -10.5502 9044.57 7.76705 c 128,-1,116
 9216.18 26.0843 9216.18 26.0843 9382.08 79.6558 c 0,117,118
 9387.86 81.5234 9387.86 81.5234 9390.31 81.5234 c 128,-1,119
 9392.74 81.5234 9392.74 81.5234 9395.2 78.2496 c 0,120,121
 9400.02 71.8663 9400.02 71.8663 9392.91 69.3434 c 0,122,123
 9236.87 13.9943 9236.87 13.9943 9049.7 -5.79207 c 128,-1,124
 8862.53 -25.5785 8862.53 -25.5785 8631.3 -25.5785 c 0,125,126
 8610.73 -25.5785 8610.73 -25.5785 8319.98 -22.016 c 0,127,128
 8045.89 -18.6573 8045.89 -18.6573 7835.02 -0.155949 c 128,-1,129
 7624.16 18.3454 7624.16 18.3454 7003.22 97.609 c 0,130,131
 6906.35 109.973 6906.35 109.973 6768.03 109.973 c 0,132,133
 6692.47 109.973 6692.47 109.973 6646.36 104.172 c 1,134,135
 6662.43 101.178 6662.43 101.178 6680 87.0654 c 128,-1,136
 6697.56 72.9525 6697.56 72.9525 6710.11 50.2652 c 0,137,138
 6719.88 32.6007 6719.88 32.6007 6719.88 12.6423 c 0,139,140
 6719.88 -26.2283 6719.88 -26.2283 6687.84 -42.5942 c 0,141,142
 6675.57 -48.8654 6675.57 -48.8654 6660.72 -48.8654 c 0,143,144
 6642.02 -48.8654 6642.02 -48.8654 6624.12 -40.136 c 128,-1,145
 6606.23 -31.4066 6606.23 -31.4066 6598.69 -21.6879 c 1,146,147
 6592.42 -16.2167 6592.42 -16.2167 6592.42 -2.82675 c 0,148,149
 6592.42 6.42665 6592.42 6.42665 6597.98 6.42665 c 0,150,151
 6600.58 6.42665 6600.58 6.42665 6604.22 4.1403 c 0,152,153
 6637.22 -23.8537 6637.22 -23.8537 6660.33 -23.8537 c 0,154,155
 6684.12 -23.8537 6684.12 -23.8537 6687.98 10.6091 c 0,156,157
 6688.38 14.2076 6688.38 14.2076 6688.38 17.6342 c 0,158,159
 6688.38 45.0356 6688.38 45.0356 6663.47 64.2536 c 128,-1,160
 6638.56 83.4715 6638.56 83.4715 6608.63 90.6916 c 128,-1,161
 6578.69 97.9117 6578.69 97.9117 6549.64 97.9117 c 0,162,163
 6546.37 97.9117 6546.37 97.9117 6543.28 97.7966 c 0,164,165
 6460.16 94.6944 6460.16 94.6944 6420.33 91.5356 c 128,-1,166
 6380.5 88.3769 6380.5 88.3769 6311.64 75.8003 c 128,-1,167
 6242.77 63.2238 6242.77 63.2238 6143.86 37.3278 c 1,168,169
 6165.53 -2.4878 6165.53 -2.4878 6165.53 -30.9606 c 0,170,171
 6165.53 -62.4308 6165.53 -62.4308 6141.56 -87.5941 c 0,172,173
 6120.29 -109.93 6120.29 -109.93 6090.48 -109.93 c 0,174,175
 6050.64 -109.93 6050.64 -109.93 6023.67 -80.8441 c 0,176,177
 6018.91 -75.7042 6018.91 -75.7042 6018.91 -69.2602 c 0,178,179
 6018.91 -63.8181 6018.91 -63.8181 6022.12 -60.2659 c 0,180,181
 6024.16 -58.0126 6024.16 -58.0126 6029.36 -58.0126 c 128,-1,182
 6034.44 -58.0126 6034.44 -58.0126 6043.73 -60.3597 c 0,183,184
 6055.29 -63.2775 6055.29 -63.2775 6064.93 -63.2775 c 0,185,186
 6085.78 -63.2775 6085.78 -63.2775 6095.25 -51.3631 c 128,-1,187
 6104.73 -39.4487 6104.73 -39.4487 6104.73 -23.9088 c 0,188,189
 6104.73 -22.2932 6104.73 -22.2932 6104.61 -20.7503 c 0,190,191
 6102.71 7.75338 6102.71 7.75338 6094.45 18.1559 c 1,192,193
 6085.62 16.7202 6085.62 16.7202 6060.66 8.49969 c 0,194,195
 5864.22 -56.1467 5864.22 -56.1467 5710.58 -94.3017 c 128,-1,196
 5556.93 -132.457 5556.93 -132.457 5397.05 -144.594 c 0,197,198
 5305.48 -151.546 5305.48 -151.546 5221.93 -151.546 c 0,199,200
 5121.08 -151.546 5121.08 -151.546 5035.43 -142.461 c 128,-1,201
 4949.78 -133.376 4949.78 -133.376 4882.24 -115.323 c 128,-1,202
 4814.71 -97.2695 4814.71 -97.2695 4780.74 -85.5858 c 128,-1,203
 4746.77 -73.9022 4746.77 -73.9022 4697.9 -53.9515 c 1,204,205
 4650.75 -73.1917 4650.75 -73.1917 4614.8 -85.3884 c 128,-1,206
 4578.85 -97.5851 4578.85 -97.5851 4511.65 -115.142 c 128,-1,207
 4444.46 -132.699 4444.46 -132.699 4358.22 -141.795 c 128,-1,208
 4271.99 -150.891 4271.99 -150.891 4171.32 -150.891 c 0,209,210
 4087.45 -150.891 4087.45 -150.891 3995.86 -143.938 c 0,211,212
 3835.98 -131.801 3835.98 -131.801 3682.33 -93.646 c 128,-1,213
 3528.69 -55.4913 3528.69 -55.4913 3332.25 9.15567 c 0,214,215
 3307.2 17.3992 3307.2 17.3992 3298.5 18.8119 c 1,216,217
 3290.18 8.30642 3290.18 8.30642 3288.28 -20.0944 c 0,218,219
 3288.17 -21.6386 3288.17 -21.6386 3288.19 -23.2536 c 0,220,221
 3288.18 -38.7955 3288.18 -38.7955 3297.65 -50.7085 c 128,-1,222
 3307.12 -62.6215 3307.12 -62.6215 3327.98 -62.6215 c 0,223,224
 3337.61 -62.6215 3337.61 -62.6215 3349.17 -59.7037 c 0,225,226
 3358.48 -57.3566 3358.48 -57.3566 3363.57 -57.3566 c 128,-1,227
 3368.78 -57.3566 3368.78 -57.3566 3370.83 -59.61 c 0,228,229
 3374.02 -63.1417 3374.02 -63.1417 3374.02 -68.5551 c 0,230,231
 3374.02 -75.0245 3374.02 -75.0245 3369.23 -80.1881 c 0,232,233
 3342.26 -109.274 3342.26 -109.274 3302.46 -109.274 c 0,234,235
 3272.66 -109.274 3272.66 -109.274 3251.39 -86.9381 c 0,236,237
 3227.41 -61.7585 3227.41 -61.7585 3227.41 -30.26 c 0,238,239
 3227.41 -1.75357 3227.41 -1.75357 3249.05 37.9838 c 1,240,241
 3108.03 74.9033 3108.03 74.9033 3037.76 84.4783 c 128,-1,242
 2967.5 94.0533 2967.5 94.0533 2849.62 98.4525 c 0,243,244
 2846.54 98.5676 2846.54 98.5676 2843.26 98.5676 c 0,245,246
 2814.22 98.5676 2814.22 98.5676 2784.29 91.3476 c 128,-1,247
 2754.37 84.1276 2754.37 84.1276 2729.47 64.9108 c 128,-1,248
 2704.57 45.6941 2704.57 45.6941 2704.57 18.293 c 0,249,250
 2704.57 14.8652 2704.57 14.8652 2704.96 11.265 c 0,251,252
 2708.83 -23.1978 2708.83 -23.1978 2732.61 -23.1978 c 0,253,254
 2755.69 -23.1978 2755.69 -23.1978 2788.69 4.79632 c 0,255,256
 2792.32 7.08266 2792.32 7.08266 2794.93 7.08266 c 0,257,258
 2800.51 7.08266 2800.51 7.08266 2800.51 -2.21289 c 0,259,260
 2800.51 -15.5655 2800.51 -15.5655 2794.27 -21.0318 c 1,261,262
 2786.73 -30.7505 2786.73 -30.7505 2768.81 -39.4799 c 128,-1,263
 2750.9 -48.2094 2750.9 -48.2094 2732.2 -48.2094 c 0,264,265
 2717.33 -48.2094 2717.33 -48.2094 2705.06 -41.9381 c 0,266,267
 2673.03 -25.5699 2673.03 -25.5699 2673.03 13.2984 c 0,268,269
 2673.03 33.2571 2673.03 33.2571 2682.8 50.9213 c 0,270,271
 2695.34 73.6028 2695.34 73.6028 2712.93 87.7178 c 128,-1,272
 2730.51 101.833 2730.51 101.833 2746.59 104.827 c 1,273,274
 2700.48 110.629 2700.48 110.629 2624.93 110.629 c 0,275,276
 2486.61 110.629 2486.61 110.629 2389.73 98.265 c 0,277,278
 1768.79 19.001 1768.79 19.001 1557.93 0.499865 c 128,-1,279
 1347.07 -18.0012 1347.07 -18.0012 1072.97 -21.36 c 0,280,281
 782.237 -24.9225 782.237 -24.9225 761.648 -24.9225 c 0,282,283
 530.405 -24.9225 530.405 -24.9225 343.221 -5.13612 c 128,-1,284
 156.037 14.6503 156.037 14.6503 -6.10352e-05 69.9994 c 0,285,286
 -7.11208 72.5227 -7.11208 72.5227 -2.29693 78.9056 c 0,287,288
 0.173418 82.1794 0.173418 82.1794 2.59328 82.1794 c 128,-1,289
 5.04452 82.1794 5.04452 82.1794 10.828 80.3119 c 0,290,291
 176.816 26.7129 176.816 26.7129 348.521 8.39081 c 128,-1,292
 520.225 -9.93131 520.225 -9.93131 741.627 -9.9313 c 0,293,294
 800.77 -9.93131 800.77 -9.93131 914.832 -8.64815 c 128,-1,295
 1028.89 -7.36498 1028.89 -7.36498 1076.67 -7.11 c 0,296,297
 1190.67 -6.50157 1190.67 -6.50157 1315.41 0.652789 c 128,-1,298
 1440.16 7.80715 1440.16 7.80715 1600.49 24.7933 c 128,-1,299
 1760.82 41.7794 1760.82 41.7794 1852.35 52.3699 c 128,-1,300
 1943.89 62.9603 1943.89 62.9603 2146.81 89.1116 c 128,-1,301
 2349.73 115.263 2349.73 115.263 2404.31 122.077 c 0,302,303
 2507.88 135.007 2507.88 135.007 2606.44 135.007 c 0,304,305
 2680.96 135.007 2680.96 135.007 2825.62 127.327 c 0,306,307
 3048.37 115.501 3048.37 115.501 3261.14 58.4209 c 1,308,309
 3294.51 100.204 3294.51 100.204 3387.94 124.843 c 1,310,311
 3422.2 129.349 3422.2 129.349 3457.27 129.349 c 0,312,313
 3501.72 129.349 3501.72 129.349 3546.46 122.877 c 128,-1,314
 3591.19 116.405 3591.19 116.405 3638.19 101.364 c 128,-1,315
 3685.19 86.3232 3685.19 86.3232 3721.87 72.9016 c 128,-1,316
 3758.55 59.4801 3758.55 59.4801 3809.77 33.9556 c 128,-1,317
 3861 8.43104 3861 8.43104 3889.77 -6.60764 c 128,-1,318
 3918.55 -21.6463 3918.55 -21.6463 3974.13 -52.3216 c 128,-1,319
 4029.72 -82.9969 4029.72 -82.9969 4052.25 -95.095 c 1,320,321
 4050 -93.4316 4050 -93.4316 4041.97 -87.7447 c 128,-1,322
 4033.93 -82.0578 4033.93 -82.0578 4032.63 -81.0591 c 128,-1,323
 4031.33 -80.0603 4031.33 -80.0603 4025.27 -75.6874 c 128,-1,324
 4019.21 -71.3145 4019.21 -71.3145 4017.93 -70.1674 c 128,-1,325
 4016.65 -69.0203 4016.65 -69.0203 4011.83 -65.2892 c 128,-1,326
 4007.01 -61.5581 4007.01 -61.5581 4005.03 -59.5905 c 128,-1,327
 4003.04 -57.6229 4003.04 -57.6229 3998.73 -53.8614 c 128,-1,328
 3994.42 -50.0999 3994.42 -50.0999 3991 -46.6396 c 128,-1,329
 3987.58 -43.1794 3987.58 -43.1794 3983.04 -38.7153 c 128,-1,330
 3978.51 -34.2512 3978.51 -34.2512 3973.12 -28.7668 c 0,331,332
 3935.21 9.83088 3935.21 9.83088 3935.21 66.62 c 0,333,334
 3935.21 102.52 3935.21 102.52 3954.7 128.546 c 0,335,336
 3983.17 166.554 3983.17 166.554 4022.93 166.554 c 0,337,338
 4056.27 166.554 4056.27 166.554 4083.56 139.468 c 0,339,340
 4100.94 122.219 4100.94 122.219 4100.94 95.5059 c 0,341,342
 4100.94 71.6353 4100.94 71.6353 4087.3 53.2433 c 128,-1,343
 4073.66 34.8513 4073.66 34.8513 4053.16 34.8513 c 0,344,345
 4047.7 34.8513 4047.7 34.8513 4042.08 36.3426 c 1,346,-1
 4038.38 39.155 l 1,347,-1
 4045.88 46.4207 l 2,348,349
 4060.41 60.9399 4060.41 60.9399 4060.41 83.1598 c 0,350,351
 4060.41 102.672 4060.41 102.672 4049.06 111.108 c 0,352,353
 4039.19 118.454 4039.19 118.454 4025.78 118.454 c 0,354,355
 4001.12 118.454 4001.12 118.454 3982.31 94.7957 c 0,356,357
 3966.22 74.5419 3966.22 74.5419 3966.22 45.1493 c 0,358,359
 3966.22 11.5553 3966.22 11.5553 3987 -12.7356 c 0,360,361
 3997.66 -25.1909 3997.66 -25.1909 4004.63 -32.2658 c 128,-1,362
 4011.59 -39.3407 4011.59 -39.3407 4029.08 -53.3148 c 128,-1,363
 4046.57 -67.2889 4046.57 -67.2889 4074.94 -86.9387 c 1,364,365
 4132.13 -122.084 4132.13 -122.084 4251.46 -122.084 c 0,366,367
 4307.33 -122.084 4307.33 -122.084 4360.96 -114.734 c 128,-1,368
 4414.6 -107.384 4414.6 -107.384 4440.98 -98.2356 c 1,369,370
 4392.95 -80.1227 4392.95 -80.1227 4352.54 -49.6163 c 128,-1,371
 4312.14 -19.11 4312.14 -19.11 4298.81 15.3894 c 0,372,373
 4293.72 28.5794 4293.72 28.5794 4293.72 41.4017 c 0,374,375
 4293.72 67.4306 4293.72 67.4306 4312.85 84.7082 c 128,-1,376
 4331.99 101.986 4331.99 101.986 4361.47 101.986 c 0,377,378
 4363.16 101.986 4363.16 101.986 4364.91 101.921 c 0,379,380
 4396.41 100.736 4396.41 100.736 4415.9 83.5138 c 128,-1,381
 4435.4 66.2919 4435.4 66.2919 4435.4 42.7567 c 0,382,383
 4435.4 34.4902 4435.4 34.4902 4432.73 26.3582 c 0,384,385
 4428.62 13.7957 4428.62 13.7957 4419.94 13.7957 c 0,386,387
 4415.79 13.7957 4415.79 13.7957 4414.21 17.327 c 128,-1,388
 4412.63 20.8583 4412.63 20.8583 4410.61 32.0769 c 0,389,390
 4402.53 76.8902 4402.53 76.8902 4365 77.5457 c 0,391,392
 4364.56 77.5532 4364.56 77.5532 4364.15 77.5531 c 0,393,394
 4345.44 77.5531 4345.44 77.5531 4332.69 64.9313 c 128,-1,395
 4319.93 52.3095 4319.93 52.3095 4319.93 34.5184 c 0,396,397
 4319.93 21.7384 4319.93 21.7384 4327.12 9.67069 c 0,398,399
 4340.53 -12.8032 4340.53 -12.8032 4373.44 -34.0584 c 128,-1,400
 4406.35 -55.3137 4406.35 -55.3137 4436.39 -65.9387 c 1,401,402
 4464.39 -71.2493 4464.39 -71.2493 4498.97 -71.2493 c 0,403,404
 4594.51 -71.2493 4594.51 -71.2493 4665.32 -33.0793 c 1,405,406
 4637.82 -19.6435 4637.82 -19.6435 4607.13 7.97318 c 128,-1,407
 4576.44 35.5899 4576.44 35.5899 4561.92 59.03 c 0,408,409
 4558.74 62.8203 4558.74 62.8203 4558.74 66.745 c 0,410,411
 4558.74 71.0771 4558.74 71.0771 4565.06 81.7176 c 1,412,413
 4629.97 165.641 4629.97 165.641 4700.54 165.649 c 0,0,1
4697.34 133.328 m 0,414,415
 4694.68 133.522 4694.68 133.522 4692.02 133.522 c 0,416,417
 4644.97 133.522 4644.97 133.522 4607.58 71.8281 c 1,418,419
 4618.12 50.0674 4618.12 50.0674 4647.06 28.6059 c 128,-1,420
 4675.99 7.1443 4675.99 7.1443 4697.22 7.1443 c 0,421,422
 4718.19 7.22155 4718.19 7.22155 4746.94 29.0928 c 128,-1,423
 4775.69 50.964 4775.69 50.964 4785.33 71.1719 c 1,424,425
 4766.39 104.125 4766.39 104.125 4746.36 117.675 c 128,-1,426
 4726.32 131.225 4726.32 131.225 4697.34 133.328 c 0,414,415
3462.56 103.422 m 0,427,428
 3362.86 103.236 3362.86 103.236 3310.5 44.2656 c 1,429,430
 3727.03 -101.767 3727.03 -101.767 4047.23 -125.516 c 1,431,432
 3964.27 -76.539 3964.27 -76.539 3920.68 -51.9523 c 128,-1,433
 3877.09 -27.3655 3877.09 -27.3655 3802.11 8.04238 c 128,-1,434
 3727.14 43.4502 3727.14 43.4502 3657.09 66.8116 c 0,435,436
 3656.13 67.0798 3656.13 67.0798 3641.13 71.4228 c 128,-1,437
 3626.13 75.7657 3626.13 75.7657 3621.97 76.8796 c 128,-1,438
 3617.81 77.9934 3617.81 77.9934 3602.96 82.0497 c 128,-1,439
 3588.1 86.1061 3588.1 86.1061 3580.8 87.6346 c 128,-1,440
 3573.5 89.1631 3573.5 89.1631 3559.3 92.3798 c 128,-1,441
 3545.1 95.5964 3545.1 95.5964 3535.16 96.9865 c 128,-1,442
 3525.22 98.3766 3525.22 98.3766 3512.18 100.2 c 128,-1,443
 3499.14 102.024 3499.14 102.024 3487.07 102.723 c 128,-1,444
 3475.01 103.421 3475.01 103.421 3462.56 103.422 c 0,427,428
5924.25 102.766 m 0,445,446
 5860.17 101.756 5860.17 101.756 5735.81 66.1562 c 1,447,448
 5665.77 42.7957 5665.77 42.7957 5590.78 7.37269 c 128,-1,449
 5515.79 -28.0503 5515.79 -28.0503 5472.28 -52.594 c 128,-1,450
 5428.78 -77.1378 5428.78 -77.1378 5345.72 -126.172 c 1,451,452
 5665.87 -102.426 5665.87 -102.426 6082.41 43.6092 c 1,453,454
 6029.84 102.809 6029.84 102.809 5929.71 102.809 c 0,455,456
 5927.05 102.809 5927.05 102.809 5924.25 102.766 c 0,445,446
EndSplineSet
EndChar

StartChar: Line4
Encoding: 57398 57398 51
Width: 10281
Flags: W
LayerCount: 2
Fore
SplineSet
6066.53 238.078 m 0,0,1
 6069.25 238.102 6069.25 238.102 6071.97 238.102 c 0,2,3
 6097.46 238.102 6097.46 238.102 6123.2 235.969 c 0,4,5
 6174.96 231.699 6174.96 231.699 6208.44 208.014 c 128,-1,6
 6241.91 184.328 6241.91 184.328 6247.23 139.406 c 0,7,8
 6247.96 133.228 6247.96 133.228 6247.98 126.651 c 0,9,10
 6247.97 85.2413 6247.97 85.2413 6221.76 51.2956 c 128,-1,11
 6195.56 17.35 6195.56 17.35 6145.8 15.328 c 0,12,13
 6144.48 15.2746 6144.48 15.2746 6143.13 15.2745 c 0,14,15
 6120.54 15.2745 6120.54 15.2745 6099.55 27.7576 c 128,-1,16
 6078.55 40.2407 6078.55 40.2407 6075.48 61.3593 c 0,17,18
 6073.85 72.6765 6073.85 72.6765 6073.85 78.8504 c 0,19,20
 6073.85 104.654 6073.85 104.654 6102.3 121.453 c 0,21,22
 6110.22 126.132 6110.22 126.132 6119.26 126.132 c 0,23,24
 6133.8 126.132 6133.8 126.132 6144.91 115.286 c 128,-1,25
 6156.01 104.441 6156.01 104.441 6156.01 88.8801 c 0,26,27
 6156.01 83.5229 6156.01 83.5229 6154.52 78.1405 c 0,28,29
 6152.26 69.9836 6152.26 69.9836 6150.88 66.0177 c 128,-1,30
 6149.5 62.0518 6149.5 62.0518 6146.48 59.3939 c 128,-1,31
 6143.46 56.7359 6143.46 56.7359 6141.62 56.1685 c 128,-1,32
 6139.77 55.6011 6139.77 55.6011 6132.94 53.93 c 128,-1,33
 6126.1 52.2589 6126.1 52.2589 6120.72 50.578 c 0,34,35
 6117.61 49.5285 6117.61 49.5285 6117.76 46.4215 c 128,-1,36
 6117.9 43.3146 6117.9 43.3146 6120.72 42.0468 c 0,37,38
 6133.97 36.0803 6133.97 36.0803 6146.55 36.0803 c 0,39,40
 6177.07 36.0803 6177.07 36.0803 6197.02 66.21 c 128,-1,41
 6216.98 96.3397 6216.98 96.3397 6216.98 125.514 c 0,42,43
 6216.98 130.942 6216.98 130.942 6216.08 135.375 c 0,44,45
 6203.26 197.016 6203.26 197.016 6097.61 200.672 c 0,46,47
 6087.12 201.035 6087.12 201.035 6076.64 201.035 c 0,48,49
 6005.07 201.035 6005.07 201.035 5932.03 183.958 c 128,-1,50
 5859 166.88 5859 166.88 5799.26 142.508 c 128,-1,51
 5739.51 118.136 5739.51 118.136 5683.22 93.7636 c 128,-1,52
 5626.92 69.3913 5626.92 69.3913 5568.83 52.3141 c 128,-1,53
 5510.74 35.2369 5510.74 35.2369 5461 35.2369 c 0,54,55
 5455.5 35.2369 5455.5 35.2369 5450.08 35.4376 c 0,56,57
 5398.68 37.3697 5398.68 37.3697 5366.93 68.12 c 128,-1,58
 5335.18 98.8703 5335.18 98.8703 5335.18 146.083 c 2,59,-1
 5335.23 149.673 l 2,60,61
 5336.18 183.854 5336.18 183.854 5362.29 204.741 c 128,-1,62
 5388.4 225.628 5388.4 225.628 5428.54 225.628 c 0,63,64
 5429.65 225.628 5429.65 225.628 5430.77 225.61 c 0,65,66
 5454.81 225.224 5454.81 225.224 5473.84 213.295 c 128,-1,67
 5492.87 201.366 5492.87 201.366 5494.47 181.032 c 0,68,69
 5494.85 176.097 5494.85 176.097 5494.85 171.473 c 0,70,71
 5494.85 116.514 5494.85 116.514 5455.36 116.514 c 0,72,73
 5454.11 116.514 5454.11 116.514 5452.81 116.579 c 0,74,75
 5413.13 118.557 5413.13 118.557 5411.41 147.845 c 1,76,77
 5411.41 168.965 5411.41 168.965 5438.73 174.61 c 1,78,79
 5442.12 179.564 5442.12 179.564 5442.12 184.509 c 0,80,81
 5442.12 191.379 5442.12 191.379 5436 195.983 c 128,-1,82
 5429.87 200.586 5429.87 200.586 5420.11 200.586 c 0,83,84
 5419.82 200.586 5419.82 200.586 5419.42 200.579 c 0,85,86
 5390.41 200.057 5390.41 200.057 5375.95 182.942 c 128,-1,87
 5361.49 165.827 5361.49 165.827 5360.83 148.032 c 2,88,-1
 5360.77 144.931 l 2,89,90
 5360.77 105.521 5360.77 105.521 5393.69 82.3871 c 128,-1,91
 5426.62 59.2532 5426.62 59.2532 5469.69 59.2532 c 0,92,93
 5491.46 59.2532 5491.46 59.2532 5510.22 65.6725 c 0,94,95
 5553.86 80.6059 5553.86 80.6059 5630.94 114.125 c 128,-1,96
 5708.01 147.645 5708.01 147.645 5766.36 172.128 c 128,-1,97
 5824.7 196.612 5824.7 196.612 5907.51 217.005 c 128,-1,98
 5990.31 237.398 5990.31 237.398 6066.53 238.078 c 0,0,1
4213.42 237.844 m 0,99,100
 4216.23 237.869 4216.23 237.869 4219.03 237.869 c 0,101,102
 4296.15 237.869 4296.15 237.869 4379.86 217.653 c 128,-1,103
 4463.57 197.437 4463.57 197.437 4522.39 172.842 c 128,-1,104
 4581.2 148.247 4581.2 148.247 4659.15 114.332 c 128,-1,105
 4737.11 80.4176 4737.11 80.4176 4780.89 65.437 c 0,106,107
 4799.63 59.0229 4799.63 59.0229 4821.39 59.0229 c 0,108,109
 4864.48 59.0229 4864.48 59.0229 4897.43 82.174 c 128,-1,110
 4930.39 105.325 4930.39 105.325 4930.39 144.743 c 2,111,-1
 4930.33 147.843 l 2,112,113
 4929.67 165.64 4929.67 165.64 4915.21 182.754 c 128,-1,114
 4900.74 199.868 4900.74 199.868 4871.73 200.39 c 0,115,116
 4871.38 200.396 4871.38 200.396 4871.04 200.396 c 0,117,118
 4861.29 200.396 4861.29 200.396 4855.16 195.779 c 128,-1,119
 4849.04 191.162 4849.04 191.162 4849.04 184.28 c 0,120,121
 4849.04 179.312 4849.04 179.312 4852.42 174.374 c 1,122,123
 4879.75 168.729 4879.75 168.729 4879.75 147.69 c 1,124,125
 4878.02 118.371 4878.02 118.371 4838.31 116.39 c 0,126,127
 4837.02 116.325 4837.02 116.325 4835.76 116.325 c 0,128,129
 4796.31 116.325 4796.31 116.325 4796.31 171.25 c 0,130,131
 4796.31 176.157 4796.31 176.157 4796.7 180.843 c 0,132,133
 4798.29 201.174 4798.29 201.174 4817.31 213.081 c 128,-1,134
 4836.34 224.987 4836.34 224.987 4860.39 225.374 c 0,135,136
 4861.51 225.392 4861.51 225.392 4862.62 225.392 c 0,137,138
 4902.76 225.392 4902.76 225.392 4928.86 204.525 c 128,-1,139
 4954.97 183.658 4954.97 183.658 4955.92 149.483 c 2,140,-1
 4955.97 145.893 l 2,141,142
 4955.97 98.6828 4955.97 98.6828 4924.22 67.9323 c 128,-1,143
 4892.47 37.1818 4892.47 37.1818 4841.08 35.2495 c 0,144,145
 4835.64 35.0489 4835.64 35.0489 4830.16 35.0489 c 0,146,147
 4780.42 35.0489 4780.42 35.0489 4722.33 52.1261 c 128,-1,148
 4664.23 69.2033 4664.23 69.2033 4607.94 93.5756 c 128,-1,149
 4551.64 117.948 4551.64 117.948 4491.9 142.32 c 128,-1,150
 4432.15 166.693 4432.15 166.693 4359.12 183.77 c 128,-1,151
 4286.09 200.847 4286.09 200.847 4214.52 200.847 c 0,152,153
 4204.04 200.847 4204.04 200.847 4193.55 200.484 c 0,154,155
 4087.91 196.832 4087.91 196.832 4075.09 135.188 c 0,156,157
 4074.17 130.75 4074.17 130.75 4074.19 125.316 c 0,158,159
 4074.18 96.139 4074.18 96.139 4094.12 66.0159 c 128,-1,160
 4114.06 35.8928 4114.06 35.8928 4144.56 35.8928 c 0,161,162
 4157.14 35.8928 4157.14 35.8928 4170.39 41.8593 c 0,163,164
 4173.21 43.1275 4173.21 43.1275 4173.37 46.234 c 128,-1,165
 4173.54 49.3405 4173.54 49.3405 4170.44 50.3905 c 0,166,167
 4165.06 52.0718 4165.06 52.0718 4158.22 53.7421 c 128,-1,168
 4151.39 55.4123 4151.39 55.4123 4149.54 55.9814 c 128,-1,169
 4147.69 56.5505 4147.69 56.5505 4144.68 59.2059 c 128,-1,170
 4141.66 61.8613 4141.66 61.8613 4140.28 65.8306 c 128,-1,171
 4138.9 69.8 4138.9 69.8 4136.64 77.953 c 0,172,173
 4135.15 83.3372 4135.15 83.3372 4135.15 88.6922 c 0,174,175
 4135.15 104.252 4135.15 104.252 4146.25 115.099 c 128,-1,176
 4157.35 125.945 4157.35 125.945 4171.89 125.945 c 0,177,178
 4180.94 125.945 4180.94 125.945 4188.86 121.266 c 0,179,180
 4217.3 104.465 4217.3 104.465 4217.3 78.6629 c 0,181,182
 4217.3 72.3628 4217.3 72.3628 4215.67 61.1718 c 0,183,184
 4212.6 40.0556 4212.6 40.0556 4191.59 27.5713 c 128,-1,185
 4170.57 15.087 4170.57 15.087 4147.98 15.087 c 0,186,187
 4146.63 15.087 4146.63 15.087 4145.31 15.1405 c 0,188,189
 4095.56 17.1621 4095.56 17.1621 4069.37 51.0814 c 128,-1,190
 4043.18 85.0008 4043.18 85.0008 4043.18 126.401 c 0,191,192
 4043.18 132.985 4043.18 132.985 4043.93 139.171 c 0,193,194
 4049.25 184.103 4049.25 184.103 4082.71 207.808 c 128,-1,195
 4116.17 231.513 4116.17 231.513 4167.91 235.78 c 0,196,197
 4190.25 237.635 4190.25 237.635 4213.42 237.844 c 0,99,100
6305.12 192.891 m 0,198,199
 6306.14 192.931 6306.14 192.931 6306.89 192.891 c 0,200,201
 6325.26 191.961 6325.26 191.961 6349.62 166.716 c 128,-1,202
 6373.98 141.472 6373.98 141.472 6373.98 101.017 c 0,203,204
 6373.86 59.0859 6373.86 59.0859 6344.31 31.9754 c 128,-1,205
 6314.77 4.86489 6314.77 4.86489 6264.39 -18.281 c 1,206,207
 6313.96 -43.0718 6313.96 -43.0718 6336.61 -65.2919 c 128,-1,208
 6359.26 -87.512 6359.26 -87.512 6368.22 -134.625 c 1,209,210
 6367.59 -149.966 6367.59 -149.966 6364.53 -163.014 c 128,-1,211
 6361.47 -176.061 6361.47 -176.061 6358.22 -184.041 c 128,-1,212
 6354.97 -192.02 6354.97 -192.02 6348.68 -200.069 c 128,-1,213
 6342.39 -208.118 6342.39 -208.118 6339.22 -211.135 c 128,-1,214
 6336.06 -214.152 6336.06 -214.152 6328.99 -219.757 c 128,-1,215
 6321.91 -225.362 6321.91 -225.362 6321.02 -226.125 c 0,216,217
 6312.26 -235.088 6312.26 -235.088 6298.89 -235.088 c 0,218,219
 6289.69 -235.088 6289.69 -235.088 6283.89 -229.688 c 0,220,221
 6280.63 -225.756 6280.63 -225.756 6280.63 -217.699 c 0,222,223
 6280.63 -210.118 6280.63 -210.118 6284.27 -206.25 c 0,224,225
 6289.73 -200.434 6289.73 -200.434 6300.57 -190.072 c 128,-1,226
 6311.41 -179.71 6311.41 -179.71 6314.69 -175.472 c 128,-1,227
 6317.97 -171.234 6317.97 -171.234 6321.44 -161.995 c 128,-1,228
 6324.92 -152.757 6324.92 -152.757 6324.92 -140.57 c 0,229,230
 6324.92 -133.614 6324.92 -133.614 6324.02 -124.734 c 0,231,232
 6322.39 -108.795 6322.39 -108.795 6306.2 -91.2079 c 128,-1,233
 6290.01 -73.6212 6290.01 -73.6212 6266.03 -58.8439 c 128,-1,234
 6242.04 -44.0667 6242.04 -44.0667 6225.45 -35.2981 c 128,-1,235
 6208.85 -26.5295 6208.85 -26.5295 6194.27 -20.062 c 1,236,237
 6196.7 -18.667 6196.7 -18.667 6213 -9.7366 c 128,-1,238
 6229.31 -0.806187 6229.31 -0.806187 6242.28 6.54025 c 128,-1,239
 6255.25 13.8867 6255.25 13.8867 6273.83 25.8531 c 128,-1,240
 6292.42 37.8195 6292.42 37.8195 6305.12 47.8749 c 128,-1,241
 6317.81 57.9304 6317.81 57.9304 6327.49 69.5178 c 128,-1,242
 6337.17 81.1052 6337.17 81.1052 6338.03 90.282 c 0,243,244
 6338.42 94.3703 6338.42 94.3703 6338.39 98.2053 c 0,245,246
 6338.41 115.911 6338.41 115.911 6330.64 131.082 c 128,-1,247
 6322.88 146.253 6322.88 146.253 6313.56 154.285 c 128,-1,248
 6304.24 162.317 6304.24 162.317 6296.48 169.256 c 128,-1,249
 6288.71 176.195 6288.71 176.195 6288.71 179.425 c 0,250,251
 6288.71 179.934 6288.71 179.934 6288.86 180.423 c 0,252,253
 6291.01 187.539 6291.01 187.539 6294.06 189.235 c 0,254,255
 6299.96 192.687 6299.96 192.687 6305.12 192.891 c 0,198,199
3984.25 192.656 m 0,256,257
 3990.4 192.967 3990.4 192.967 3997.09 189.047 c 0,258,259
 4000.15 187.356 4000.15 187.356 4002.3 180.234 c 0,260,261
 4002.43 179.746 4002.43 179.746 4002.44 179.238 c 0,262,263
 4002.44 176.008 4002.44 176.008 3994.67 169.069 c 128,-1,264
 3986.9 162.129 3986.9 162.129 3977.57 154.096 c 128,-1,265
 3968.24 146.064 3968.24 146.064 3960.47 130.891 c 128,-1,266
 3952.7 115.719 3952.7 115.719 3952.7 98.011 c 0,267,268
 3952.7 94.0739 3952.7 94.0739 3953.08 90.0938 c 0,269,270
 3953.93 80.9171 3953.93 80.9171 3963.62 69.3299 c 128,-1,271
 3973.3 57.7426 3973.3 57.7426 3985.99 47.6867 c 128,-1,272
 3998.69 37.6307 3998.69 37.6307 4017.28 25.6653 c 128,-1,273
 4035.86 13.6999 4035.86 13.6999 4048.83 6.35197 c 128,-1,274
 4061.8 -0.995915 4061.8 -0.995915 4078.11 -9.92449 c 128,-1,275
 4094.41 -18.8531 4094.41 -18.8531 4096.84 -20.2502 c 1,276,277
 4082.27 -26.7098 4082.27 -26.7098 4065.67 -35.4848 c 128,-1,278
 4049.08 -44.2597 4049.08 -44.2597 4025.11 -59.033 c 128,-1,279
 4001.14 -73.8063 4001.14 -73.8063 3984.95 -91.3946 c 128,-1,280
 3968.77 -108.983 3968.77 -108.983 3967.14 -124.922 c 0,281,282
 3966.24 -133.802 3966.24 -133.802 3966.24 -140.759 c 0,283,284
 3966.24 -152.95 3966.24 -152.95 3969.72 -162.2 c 128,-1,285
 3973.2 -171.45 3973.2 -171.45 3976.47 -175.683 c 128,-1,286
 3979.73 -179.916 3979.73 -179.916 3990.59 -190.305 c 128,-1,287
 4001.45 -200.694 4001.45 -200.694 4006.89 -206.484 c 0,288,289
 4010.53 -210.367 4010.53 -210.367 4010.53 -217.933 c 0,290,291
 4010.53 -225.99 4010.53 -225.99 4007.27 -229.922 c 0,292,293
 4001.45 -235.323 4001.45 -235.323 3992.27 -235.323 c 0,294,295
 3978.88 -235.323 3978.88 -235.323 3970.14 -226.359 c 0,296,297
 3969.28 -225.624 3969.28 -225.624 3962.17 -219.99 c 128,-1,298
 3955.07 -214.357 3955.07 -214.357 3951.93 -211.354 c 128,-1,299
 3948.79 -208.351 3948.79 -208.351 3942.48 -200.283 c 128,-1,300
 3936.17 -192.215 3936.17 -192.215 3932.93 -184.237 c 128,-1,301
 3929.69 -176.26 3929.69 -176.26 3926.63 -163.207 c 128,-1,302
 3923.57 -150.155 3923.57 -150.155 3922.94 -134.812 c 1,303,304
 3931.9 -87.6988 3931.9 -87.6988 3954.54 -65.4785 c 128,-1,305
 3977.19 -43.2583 3977.19 -43.2583 4026.77 -18.4692 c 1,306,307
 3976.38 4.67542 3976.38 4.67542 3946.84 31.7862 c 128,-1,308
 3917.29 58.8969 3917.29 58.8969 3917.17 100.5 c 2,309,-1
 3917.17 100.829 l 2,310,311
 3917.17 141.282 3917.17 141.282 3941.53 166.503 c 128,-1,312
 3965.89 191.725 3965.89 191.725 3984.25 192.656 c 0,256,257
5277.25 176.062 m 0,313,314
 5277.55 176.073 5277.55 176.073 5277.83 176.073 c 0,315,316
 5287.47 176.073 5287.47 176.073 5287.47 167.99 c 0,317,318
 5287.47 164.017 5287.47 164.017 5284.38 160.172 c 0,319,320
 5262.11 132.468 5262.11 132.468 5262.11 113.421 c 0,321,322
 5262.11 104.68 5262.11 104.68 5264.83 94.0781 c 0,323,324
 5276.38 49.0893 5276.38 49.0893 5307.04 26.7418 c 128,-1,325
 5337.7 4.39419 5337.7 4.39419 5378.27 3.2344 c 0,326,327
 5573.36 -2.34362 5573.36 -2.34362 5630.64 -3.56249 c 0,328,329
 5633.77 -3.62958 5633.77 -3.62958 5637.08 -3.62985 c 0,330,331
 5689.57 -3.62985 5689.57 -3.62985 5753.01 11.2828 c 128,-1,332
 5816.46 26.1954 5816.46 26.1954 5856.67 55.547 c 1,333,334
 5877.51 45.7288 5877.51 45.7288 5897.17 24.7354 c 128,-1,335
 5916.82 3.74201 5916.82 3.74201 5926.7 -13.828 c 1,336,337
 5896.93 -64.3788 5896.93 -64.3788 5860.23 -87.6561 c 1,338,339
 5777.57 -33.1678 5777.57 -33.1678 5630.92 -28.0311 c 0,340,341
 5550.44 -25.211 5550.44 -25.211 5378.08 -24.703 c 0,342,343
 5331.43 -24.7022 5331.43 -24.7022 5301.8 -45.1751 c 128,-1,344
 5272.18 -65.6479 5272.18 -65.6479 5264.36 -102.516 c 0,345,346
 5261.27 -117.049 5261.27 -117.049 5261.27 -130.372 c 0,347,348
 5261.27 -163.205 5261.27 -163.205 5285.88 -201.609 c 0,349,350
 5287.56 -204.241 5287.56 -204.241 5287.56 -206.717 c 0,351,352
 5287.56 -215.185 5287.56 -215.185 5276.04 -215.185 c 0,353,354
 5272.99 -215.185 5272.99 -215.185 5270.27 -214.078 c 0,355,356
 5240.44 -201.961 5240.44 -201.961 5226.73 -171.239 c 128,-1,357
 5213.03 -140.517 5213.03 -140.517 5213.03 -112.707 c 0,358,359
 5213.03 -105.491 5213.03 -105.491 5214.06 -100.875 c 0,360,361
 5219.79 -75.323 5219.79 -75.323 5229.68 -57.5176 c 128,-1,362
 5239.57 -39.7122 5239.57 -39.7122 5253.11 -30.645 c 128,-1,363
 5266.65 -21.5777 5266.65 -21.5777 5274.08 -18.3798 c 128,-1,364
 5281.51 -15.182 5281.51 -15.182 5293.8 -11.8125 c 1,365,366
 5282.23 -6.60527 5282.23 -6.60527 5273.97 -1.46838 c 128,-1,367
 5265.71 3.6685 5265.71 3.6685 5253.08 14.7465 c 128,-1,368
 5240.46 25.8246 5240.46 25.8246 5231.63 44.0966 c 128,-1,369
 5222.8 62.3687 5222.8 62.3687 5218.94 86.3438 c 0,370,371
 5218.19 90.995 5218.19 90.995 5218.19 96.1525 c 0,372,373
 5218.19 123.637 5218.19 123.637 5235.1 149.419 c 128,-1,374
 5252.01 175.201 5252.01 175.201 5277.25 176.062 c 0,313,314
5013.86 175.875 m 0,375,376
 5039.11 175.013 5039.11 175.013 5056.03 149.223 c 128,-1,377
 5072.96 123.433 5072.96 123.433 5072.96 95.9495 c 0,378,379
 5072.96 90.7365 5072.96 90.7365 5072.22 86.1562 c 0,380,381
 5068.36 62.1812 5068.36 62.1812 5059.53 43.9089 c 128,-1,382
 5050.7 25.6366 5050.7 25.6366 5038.08 14.5591 c 128,-1,383
 5025.45 3.48152 5025.45 3.48152 5017.19 -1.65605 c 128,-1,384
 5008.93 -6.79361 5008.93 -6.79361 4997.36 -12 c 1,385,386
 5009.65 -15.3694 5009.65 -15.3694 5017.08 -18.5674 c 128,-1,387
 5024.51 -21.7654 5024.51 -21.7654 5038.05 -30.8324 c 128,-1,388
 5051.59 -39.8994 5051.59 -39.8994 5061.48 -57.705 c 128,-1,389
 5071.36 -75.5105 5071.36 -75.5105 5077.09 -101.062 c 0,390,391
 5078.12 -105.607 5078.12 -105.607 5078.12 -112.895 c 0,392,393
 5078.12 -140.703 5078.12 -140.703 5064.42 -171.426 c 128,-1,394
 5050.72 -202.148 5050.72 -202.148 5020.89 -214.266 c 0,395,396
 5018.17 -215.372 5018.17 -215.372 5015.11 -215.372 c 0,397,398
 5003.59 -215.372 5003.59 -215.372 5003.59 -206.905 c 0,399,400
 5003.59 -204.445 5003.59 -204.445 5005.28 -201.797 c 0,401,402
 5029.89 -163.364 5029.89 -163.364 5029.89 -130.56 c 0,403,404
 5029.89 -117.306 5029.89 -117.306 5026.8 -102.703 c 0,405,406
 5018.98 -65.8402 5018.98 -65.8402 4989.36 -45.3884 c 128,-1,407
 4959.74 -24.9366 4959.74 -24.9366 4913.66 -24.9366 c 0,408,409
 4913.36 -24.9366 4913.36 -24.9366 4913.08 -24.9375 c 0,410,411
 4739.26 -25.4498 4739.26 -25.4498 4660.23 -28.2188 c 0,412,413
 4513.54 -33.3574 4513.54 -33.3574 4430.88 -87.8438 c 1,414,415
 4394.24 -64.6056 4394.24 -64.6056 4364.45 -14.0156 c 1,416,417
 4374.33 3.54247 4374.33 3.54247 4393.99 24.5174 c 128,-1,418
 4413.64 45.4924 4413.64 45.4924 4434.48 55.3125 c 1,419,420
 4474.69 25.9664 4474.69 25.9664 4538.1 11.0745 c 128,-1,421
 4601.5 -3.81748 4601.5 -3.81748 4654.01 -3.81749 c 0,422,423
 4657.34 -3.81748 4657.34 -3.81748 4660.47 -3.74994 c 0,424,425
 4724.26 -2.39255 4724.26 -2.39255 4912.89 3.00006 c 0,426,427
 4953.45 4.15957 4953.45 4.15957 4984.11 26.5273 c 128,-1,428
 5014.77 48.8949 5014.77 48.8949 5026.33 93.8907 c 0,429,430
 5029.04 104.453 5029.04 104.453 5029.04 113.234 c 0,431,432
 5029.04 132.295 5029.04 132.295 5006.78 159.984 c 0,433,434
 5003.67 163.852 5003.67 163.852 5003.67 167.83 c 0,435,436
 5003.67 175.885 5003.67 175.885 5013.28 175.885 c 0,437,438
 5013.58 175.885 5013.58 175.885 5013.86 175.875 c 0,375,376
6609.34 170.391 m 0,439,440
 6611.57 170.415 6611.57 170.415 6614.17 170.25 c 0,441,442
 6648.15 168.109 6648.15 168.109 6661.97 149.581 c 128,-1,443
 6675.78 131.053 6675.78 131.053 6675.78 108.967 c 2,444,-1
 6675.77 107.391 l 2,445,446
 6675.38 90.5609 6675.38 90.5609 6669.91 83.458 c 128,-1,447
 6664.43 76.3551 6664.43 76.3551 6647.69 71.7188 c 0,448,449
 6643.02 70.4282 6643.02 70.4282 6637.78 70.4282 c 0,450,451
 6622.63 70.4282 6622.63 70.4282 6610.51 79.8984 c 128,-1,452
 6598.4 89.3686 6598.4 89.3686 6598.4 105.16 c 0,453,454
 6598.4 110.514 6598.4 110.514 6599.97 116.203 c 0,455,456
 6605.75 137.25 6605.75 137.25 6619.74 137.25 c 0,457,458
 6621.02 137.25 6621.02 137.25 6622.88 137.065 c 128,-1,459
 6624.73 136.881 6624.73 136.881 6625.2 136.881 c 0,460,461
 6626.6 136.881 6626.6 136.881 6626.6 137.76 c 0,462,463
 6626.6 138.369 6626.6 138.369 6626.03 139.547 c 0,464,465
 6621.62 147.777 6621.62 147.777 6613.52 147.328 c 0,466,467
 6589.4 145.991 6589.4 145.991 6574.66 130.029 c 128,-1,468
 6559.93 114.068 6559.93 114.068 6559.93 91.1736 c 0,469,470
 6559.93 79.5809 6559.93 79.5809 6564.02 67.875 c 0,471,472
 6573.5 40.7199 6573.5 40.7199 6590.96 29.1243 c 128,-1,473
 6608.42 17.5288 6608.42 17.5288 6645.77 7.3125 c 0,474,475
 6664.88 2.08484 6664.88 2.08484 6692.54 2.08484 c 0,476,477
 6735.27 2.08484 6735.27 2.08484 6801.48 15.1875 c 0,478,479
 6830.38 20.9047 6830.38 20.9047 6854.85 44.5536 c 128,-1,480
 6879.31 68.2025 6879.31 68.2025 6892.52 95.625 c 1,481,482
 6936.32 42.6373 6936.32 42.6373 6992.57 23.7733 c 128,-1,483
 7048.81 4.90926 7048.81 4.90926 7132.38 0.234428 c 1,484,485
 7482.92 1.49623 7482.92 1.49623 9584.7 1.49623 c 0,486,487
 10066.2 1.49623 10066.2 1.49623 10237 1.26569 c 0,488,489
 10259.8 1.04611 10259.8 1.04611 10263.1 0.234448 c 0,490,491
 10271.1 -1.75042 10271.1 -1.75042 10267.7 -12.4219 c 0,492,493
 10263.7 -25.0339 10263.7 -25.0339 10239.6 -25.6406 c 0,494,495
 10217.7 -25.6217 10217.7 -25.6217 10189 -25.6217 c 0,496,497
 8629.62 -25.6217 8629.62 -25.6217 7130.64 -31.7344 c 0,498,499
 7119.36 -31.3964 7119.36 -31.3964 7109.13 -31.3964 c 0,500,501
 7037.63 -31.3964 7037.63 -31.3964 6986.85 -52.0751 c 128,-1,502
 6936.08 -72.7538 6936.08 -72.7538 6896.78 -127.781 c 1,503,504
 6859.33 -76.9799 6859.33 -76.9799 6800.45 -50.3438 c 0,505,506
 6754.34 -29.4767 6754.34 -29.4767 6683.96 -29.4767 c 0,507,508
 6662.33 -29.4767 6662.33 -29.4767 6647.83 -32.5312 c 0,509,510
 6618.49 -38.7085 6618.49 -38.7085 6605.39 -46.6582 c 128,-1,511
 6592.3 -54.6079 6592.3 -54.6079 6576.81 -78 c 0,512,513
 6567.35 -92.2922 6567.35 -92.2922 6567.35 -112.101 c 0,514,515
 6567.35 -133.099 6567.35 -133.099 6577.65 -151.1 c 128,-1,516
 6587.96 -169.102 6587.96 -169.102 6604.33 -174.094 c 0,517,518
 6612.55 -176.597 6612.55 -176.597 6617.89 -176.597 c 0,519,520
 6628.2 -176.597 6628.2 -176.597 6628.2 -166.68 c 0,521,522
 6628.2 -164.9 6628.2 -164.9 6627.62 -160.172 c 1,523,524
 6625.4 -160.698 6625.4 -160.698 6623.18 -160.698 c 0,525,526
 6613.74 -160.698 6613.74 -160.698 6607.26 -152.23 c 128,-1,527
 6600.77 -143.763 6600.77 -143.763 6600.77 -132.543 c 2,528,-1
 6600.77 -132.375 l 2,529,530
 6600.83 -121.212 6600.83 -121.212 6611.47 -111.281 c 128,-1,531
 6622.11 -101.351 6622.11 -101.351 6635.9 -101.351 c 0,532,533
 6640 -101.351 6640 -101.351 6643.98 -102.375 c 0,534,535
 6679.55 -111.499 6679.55 -111.499 6679.55 -147.823 c 0,536,537
 6679.55 -157.3 6679.55 -157.3 6676.4 -166.875 c 0,538,539
 6666.71 -196.682 6666.71 -196.682 6625.55 -196.682 c 0,540,541
 6614.38 -196.682 6614.38 -196.682 6601.7 -193.969 c 0,542,543
 6576.4 -188.555 6576.4 -188.555 6560.76 -163.79 c 128,-1,544
 6545.11 -139.025 6545.11 -139.025 6545.11 -109.904 c 0,545,546
 6545.11 -94.6955 6545.11 -94.6955 6549.77 -81.7499 c 0,547,548
 6556.79 -62.1967 6556.79 -62.1967 6570.72 -47.3237 c 128,-1,549
 6584.65 -32.4506 6584.65 -32.4506 6595.73 -25.9353 c 128,-1,550
 6606.82 -19.4201 6606.82 -19.4201 6626.12 -10.3593 c 1,551,552
 6563.48 6.82169 6563.48 6.82169 6542.5 63.8439 c 0,553,554
 6537.76 76.7073 6537.76 76.7073 6537.76 90.6885 c 0,555,556
 6537.76 121.923 6537.76 121.923 6558.62 145.992 c 128,-1,557
 6579.47 170.061 6579.47 170.061 6609.34 170.391 c 0,439,440
3681.81 170.203 m 0,558,559
 3711.68 169.873 3711.68 169.873 3732.54 145.788 c 128,-1,560
 3753.4 121.704 3753.4 121.704 3753.4 90.458 c 0,561,562
 3753.4 76.5125 3753.4 76.5125 3748.66 63.6094 c 0,563,564
 3727.68 6.63896 3727.68 6.63896 3665.03 -10.5469 c 1,565,566
 3684.31 -19.5951 3684.31 -19.5951 3695.4 -26.1203 c 128,-1,567
 3706.49 -32.6455 3706.49 -32.6455 3720.41 -47.5138 c 128,-1,568
 3734.32 -62.3821 3734.32 -62.3821 3741.34 -81.9375 c 0,569,570
 3746.01 -94.9252 3746.01 -94.9252 3746.01 -110.123 c 0,571,572
 3746.01 -139.241 3746.01 -139.241 3730.38 -163.993 c 128,-1,573
 3714.74 -188.744 3714.74 -188.744 3689.45 -194.156 c 0,574,575
 3676.78 -196.87 3676.78 -196.87 3665.61 -196.87 c 0,576,577
 3624.46 -196.87 3624.46 -196.87 3614.73 -167.062 c 0,578,579
 3611.61 -157.443 3611.61 -157.443 3611.61 -148.011 c 0,580,581
 3611.61 -111.683 3611.61 -111.683 3647.17 -102.562 c 0,582,583
 3651.17 -101.538 3651.17 -101.538 3655.25 -101.538 c 0,584,585
 3669.05 -101.538 3669.05 -101.538 3679.69 -111.468 c 128,-1,586
 3690.34 -121.398 3690.34 -121.398 3690.39 -132.562 c 0,587,588
 3690.39 -143.951 3690.39 -143.951 3683.9 -152.418 c 128,-1,589
 3677.42 -160.886 3677.42 -160.886 3667.97 -160.886 c 0,590,591
 3665.77 -160.886 3665.77 -160.886 3663.53 -160.359 c 1,592,593
 3662.96 -165.206 3662.96 -165.206 3662.96 -166.867 c 0,594,595
 3662.96 -176.785 3662.96 -176.785 3673.27 -176.785 c 0,596,597
 3678.61 -176.785 3678.61 -176.785 3686.83 -174.281 c 0,598,599
 3703.21 -169.289 3703.21 -169.289 3713.51 -151.3 c 128,-1,600
 3723.81 -133.311 3723.81 -133.311 3723.81 -112.324 c 0,601,602
 3723.81 -92.52 3723.81 -92.52 3714.34 -78.2344 c 0,603,604
 3698.85 -54.8433 3698.85 -54.8433 3685.76 -46.8932 c 128,-1,605
 3672.66 -38.9431 3672.66 -38.9431 3643.33 -32.7656 c 0,606,607
 3628.78 -29.703 3628.78 -29.703 3607.1 -29.703 c 0,608,609
 3536.73 -29.703 3536.73 -29.703 3490.7 -50.5312 c 0,610,611
 3431.82 -77.1714 3431.82 -77.1714 3394.38 -127.969 c 1,612,613
 3355.08 -72.9426 3355.08 -72.9426 3304.3 -52.2632 c 128,-1,614
 3253.52 -31.5839 3253.52 -31.5839 3182.02 -31.5839 c 0,615,616
 3171.81 -31.5839 3171.81 -31.5839 3160.51 -31.9219 c 0,617,618
 1661.48 -25.8092 1661.48 -25.8092 102.14 -25.8092 c 0,619,620
 73.386 -25.8092 73.386 -25.8092 51.5741 -25.8281 c 0,621,622
 27.5296 -25.223 27.5296 -25.223 23.4491 -12.6094 c 0,623,624
 20.019 -2.00006 20.019 -2.00006 27.996 -2.47955e-05 c 0,625,626
 31.2312 0.810528 31.2312 0.810528 54.1054 1.03123 c 0,627,628
 225.03 1.26176 225.03 1.26176 706.449 1.26176 c 0,629,630
 2808.24 1.26176 2808.24 1.26176 3158.78 -2.45571e-05 c 1,631,632
 3242.31 4.67275 3242.31 4.67275 3298.57 23.5579 c 128,-1,633
 3354.82 42.443 3354.82 42.443 3398.64 95.4375 c 1,634,635
 3411.84 68.0214 3411.84 68.0214 3436.31 44.3695 c 128,-1,636
 3460.77 20.7177 3460.77 20.7177 3489.67 15 c 0,637,638
 3556.09 1.86108 3556.09 1.86108 3598.72 1.86108 c 0,639,640
 3626.32 1.86108 3626.32 1.86108 3645.39 7.07811 c 0,641,642
 3682.71 17.2888 3682.71 17.2888 3700.18 28.9076 c 128,-1,643
 3717.66 40.5263 3717.66 40.5263 3727.14 67.6875 c 0,644,645
 3731.22 79.3654 3731.22 79.3654 3731.22 90.9861 c 0,646,647
 3731.22 113.882 3731.22 113.882 3716.49 129.843 c 128,-1,648
 3701.76 145.804 3701.76 145.804 3677.64 147.141 c 0,649,650
 3669.5 147.591 3669.5 147.591 3665.08 139.312 c 0,651,652
 3664.51 138.137 3664.51 138.137 3664.51 137.53 c 0,653,654
 3664.51 136.653 3664.51 136.653 3665.9 136.653 c 0,655,656
 3666.38 136.653 3666.38 136.653 3668.25 136.844 c 128,-1,657
 3670.12 137.036 3670.12 137.036 3671.43 137.036 c 0,658,659
 3685.41 137.036 3685.41 137.036 3691.19 116.016 c 0,660,661
 3692.76 110.275 3692.76 110.275 3692.76 104.972 c 0,662,663
 3692.76 89.1809 3692.76 89.1809 3680.65 79.7108 c 128,-1,664
 3668.53 70.2407 3668.53 70.2407 3653.38 70.2407 c 0,665,666
 3648.12 70.2407 3648.12 70.2407 3643.47 71.5312 c 0,667,668
 3626.73 76.1674 3626.73 76.1674 3621.25 83.2702 c 128,-1,669
 3615.78 90.373 3615.78 90.373 3615.39 107.203 c 2,670,-1
 3615.37 108.786 l 2,671,672
 3615.37 130.878 3615.37 130.878 3629.17 149.4 c 128,-1,673
 3642.96 167.922 3642.96 167.922 3676.94 170.062 c 0,674,675
 3679.57 170.228 3679.57 170.228 3681.81 170.203 c 0,558,559
6011.08 125.812 m 0,676,677
 6021.54 125.348 6021.54 125.348 6021.54 118.228 c 0,678,679
 6021.54 114.961 6021.54 114.961 6017.27 112.969 c 0,680,681
 6005.89 107.676 6005.89 107.676 6002.07 105.62 c 128,-1,682
 5998.25 103.563 5998.25 103.563 5991.72 98.5027 c 128,-1,683
 5985.2 93.4422 5985.2 93.4422 5983.09 87.066 c 128,-1,684
 5980.97 80.6898 5980.97 80.6898 5980.97 71.3075 c 2,685,-1
 5981.03 68.4844 l 2,686,687
 5981.53 55.5206 5981.53 55.5206 5987.86 44.6256 c 128,-1,688
 5994.18 33.7306 5994.18 33.7306 6006.49 24.7824 c 128,-1,689
 6018.79 15.8342 6018.79 15.8342 6029.56 9.76681 c 128,-1,690
 6040.32 3.69939 6040.32 3.69939 6057.74 -4.79593 c 128,-1,691
 6075.17 -13.2913 6075.17 -13.2913 6083.69 -18.0938 c 1,692,693
 6070.95 -25.9737 6070.95 -25.9737 6051.01 -35.8814 c 128,-1,694
 6031.06 -45.789 6031.06 -45.789 6021.3 -51.4012 c 128,-1,695
 6011.54 -57.0134 6011.54 -57.0134 6002.13 -68.7862 c 128,-1,696
 5992.72 -80.559 5992.72 -80.559 5989.7 -97.125 c 0,697,698
 5988.74 -102.416 5988.74 -102.416 5988.77 -107.105 c 0,699,700
 5988.75 -125.356 5988.75 -125.356 6000.99 -136.728 c 128,-1,701
 6013.23 -148.1 6013.23 -148.1 6036.53 -159.375 c 0,702,703
 6037.93 -159.375 6037.93 -159.375 6038.88 -161.859 c 128,-1,704
 6039.76 -164.165 6039.76 -164.165 6037.39 -166.918 c 128,-1,705
 6035.03 -169.671 6035.03 -169.671 6032.88 -168.844 c 1,706,707
 6029.98 -169.275 6029.98 -169.275 6026.1 -169.275 c 0,708,709
 6011.01 -169.275 6011.01 -169.275 5994.91 -164.318 c 128,-1,710
 5978.8 -159.361 5978.8 -159.361 5963.8 -143.41 c 128,-1,711
 5948.8 -127.459 5948.8 -127.459 5948.8 -103.206 c 2,712,-1
 5948.88 -99.6562 l 2,713,714
 5949.57 -83.7944 5949.57 -83.7944 5957.27 -70.5351 c 128,-1,715
 5964.98 -57.2758 5964.98 -57.2758 5979.1 -47.2984 c 128,-1,716
 5993.23 -37.321 5993.23 -37.321 6003.89 -31.679 c 128,-1,717
 6014.56 -26.037 6014.56 -26.037 6030.67 -19.125 c 1,718,719
 6014.67 -12.3135 6014.67 -12.3135 6002.8 -5.82485 c 128,-1,720
 5990.94 0.663811 5990.94 0.663811 5976.49 11.4468 c 128,-1,721
 5962.04 22.2298 5962.04 22.2298 5953.84 36.9308 c 128,-1,722
 5945.65 51.6319 5945.65 51.6319 5945.08 69 c 2,723,-1
 5945.04 71.1675 l 2,724,725
 5945.04 94.9226 5945.04 94.9226 5961.82 109.206 c 128,-1,726
 5978.6 123.49 5978.6 123.49 6009.2 125.766 c 0,727,728
 6010.28 125.847 6010.28 125.847 6011.08 125.812 c 0,676,677
4280.08 125.578 m 0,729,730
 4281.29 125.629 4281.29 125.629 4281.95 125.578 c 0,731,732
 4312.55 123.302 4312.55 123.302 4329.33 109.018 c 128,-1,733
 4346.11 94.7347 4346.11 94.7347 4346.11 70.98 c 2,734,-1
 4346.08 68.8125 l 2,735,736
 4345.51 51.4433 4345.51 51.4433 4337.32 36.7428 c 128,-1,737
 4329.12 22.0424 4329.12 22.0424 4314.67 11.2598 c 128,-1,738
 4300.22 0.477155 4300.22 0.477155 4288.35 -6.01283 c 128,-1,739
 4276.49 -12.5028 4276.49 -12.5028 4260.48 -19.3125 c 1,740,741
 4276.59 -26.2269 4276.59 -26.2269 4287.26 -31.867 c 128,-1,742
 4297.92 -37.5072 4297.92 -37.5072 4312.05 -47.4854 c 128,-1,743
 4326.18 -57.4635 4326.18 -57.4635 4333.89 -70.7231 c 128,-1,744
 4341.59 -83.9828 4341.59 -83.9828 4342.28 -99.8438 c 0,745,746
 4342.35 -102.126 4342.35 -102.126 4342.37 -103.394 c 0,747,748
 4342.36 -127.654 4342.36 -127.654 4327.35 -143.616 c 128,-1,749
 4312.34 -159.579 4312.34 -159.579 4296.23 -164.544 c 128,-1,750
 4280.12 -169.508 4280.12 -169.508 4265.04 -169.508 c 0,751,752
 4261.16 -169.508 4261.16 -169.508 4258.28 -169.078 c 1,753,754
 4256.13 -169.906 4256.13 -169.906 4253.74 -167.129 c 128,-1,755
 4251.35 -164.351 4251.35 -164.351 4252.23 -162.047 c 128,-1,756
 4253.18 -159.562 4253.18 -159.562 4254.62 -159.562 c 0,757,758
 4277.93 -148.282 4277.93 -148.282 4290.17 -136.932 c 128,-1,759
 4302.4 -125.582 4302.4 -125.582 4302.4 -107.338 c 0,760,761
 4302.4 -102.513 4302.4 -102.513 4301.45 -97.3594 c 0,762,763
 4298.43 -80.7937 4298.43 -80.7937 4289.03 -69.0206 c 128,-1,764
 4279.62 -57.2475 4279.62 -57.2475 4269.86 -51.6356 c 128,-1,765
 4260.1 -46.0237 4260.1 -46.0237 4240.15 -36.1157 c 128,-1,766
 4220.2 -26.2077 4220.2 -26.2077 4207.47 -18.3281 c 1,767,768
 4215.97 -13.5355 4215.97 -13.5355 4233.41 -5.02668 c 128,-1,769
 4250.85 3.48218 4250.85 3.48218 4261.6 9.55022 c 128,-1,770
 4272.35 15.6183 4272.35 15.6183 4284.67 24.5771 c 128,-1,771
 4296.98 33.536 4296.98 33.536 4303.3 44.4345 c 128,-1,772
 4309.61 55.333 4309.61 55.333 4310.12 68.2969 c 2,773,-1
 4310.18 71.1198 l 2,774,775
 4310.18 80.5008 4310.18 80.5008 4308.07 86.8655 c 128,-1,776
 4305.97 93.2301 4305.97 93.2301 4299.42 98.2949 c 128,-1,777
 4292.88 103.36 4292.88 103.36 4289.1 105.388 c 128,-1,778
 4285.32 107.415 4285.32 107.415 4273.89 112.734 c 0,779,780
 4269.62 114.721 4269.62 114.721 4269.62 117.994 c 0,781,782
 4269.62 125.114 4269.62 125.114 4280.08 125.578 c 0,729,730
6454.8 27.8906 m 0,783,784
 6476.54 27.7205 6476.54 27.7205 6488.74 13.9425 c 128,-1,785
 6500.93 0.164501 6500.93 0.164501 6500.93 -17.9878 c 2,786,-1
 6500.92 -18.75 l 2,787,788
 6500.64 -36.3667 6500.64 -36.3667 6488.08 -49.8714 c 128,-1,789
 6475.53 -63.3761 6475.53 -63.3761 6454.87 -63.3761 c 0,790,791
 6433.18 -63.2383 6433.18 -63.2383 6420.13 -49.0768 c 128,-1,792
 6407.08 -34.9153 6407.08 -34.9153 6406.75 -15.6562 c 2,793,-1
 6406.74 -14.8096 l 2,794,795
 6406.74 3.82808 6406.74 3.82808 6419.49 15.8605 c 128,-1,796
 6432.23 27.8929 6432.23 27.8929 6454.22 27.8929 c 0,797,798
 6454.5 27.8929 6454.5 27.8929 6454.8 27.8906 c 0,783,784
3836.36 27.7031 m 0,799,-1
 3836.94 27.7054 l 2,800,801
 3858.91 27.7054 3858.91 27.7054 3871.64 15.6754 c 128,-1,802
 3884.37 3.64532 3884.37 3.64532 3884.37 -14.9952 c 2,803,-1
 3884.36 -15.8438 l 2,804,805
 3884.03 -35.1075 3884.03 -35.1075 3871 -49.2667 c 128,-1,806
 3857.97 -63.4258 3857.97 -63.4258 3836.64 -63.5625 c 0,807,808
 3836.46 -63.5637 3836.46 -63.5637 3836.28 -63.5636 c 0,809,810
 3815.61 -63.5636 3815.61 -63.5636 3803.04 -50.0755 c 128,-1,811
 3790.46 -36.5875 3790.46 -36.5875 3790.19 -18.9844 c 2,812,-1
 3790.18 -18.2244 l 2,813,814
 3790.18 -0.0723191 3790.18 -0.0723191 3802.4 13.7303 c 128,-1,815
 3814.62 27.533 3814.62 27.533 3836.36 27.7031 c 0,799,-1
5110.4 -20.0859 m 2,816,817
 5110.58 -4.83323 5110.58 -4.83323 5121.23 3.74813 c 128,-1,818
 5131.87 12.3295 5131.87 12.3295 5146.41 12.3295 c 1,819,820
 5146.41 12.3295 5146.41 12.3295 5146.75 12.3281 c 0,821,822
 5160.78 12.2191 5160.78 12.2191 5171.24 3.55662 c 128,-1,823
 5181.7 -5.10586 5181.7 -5.10586 5181.7 -19.1342 c 2,824,-1
 5181.67 -20.5059 l 2,825,826
 5181.06 -35.5648 5181.06 -35.5648 5171.67 -44.9115 c 128,-1,827
 5162.29 -54.2582 5162.29 -54.2582 5147.54 -54.2582 c 2,828,-1
 5147.36 -54.2578 l 2,829,830
 5131.89 -54.1916 5131.89 -54.1916 5121.14 -45.0804 c 128,-1,831
 5110.4 -35.9692 5110.4 -35.9692 5110.4 -20.5706 c 2,832,-1
 5110.4 -20.0859 l 2,816,817
6155.41 -46.9219 m 0,833,834
 6156.3 -46.9074 6156.3 -46.9074 6160.9 -46.9219 c 0,835,836
 6201.4 -47.0625 6201.4 -47.0625 6224.98 -77.6004 c 128,-1,837
 6248.57 -108.138 6248.57 -108.138 6248.57 -146.286 c 0,838,839
 6248.57 -149.987 6248.57 -149.987 6248.3 -153.609 c 0,840,841
 6245.5 -193.118 6245.5 -193.118 6216.24 -224.937 c 128,-1,842
 6186.98 -256.755 6186.98 -256.755 6131.27 -263.625 c 0,843,844
 6092.16 -268.448 6092.16 -268.448 6053.41 -268.448 c 0,845,846
 5979.56 -268.448 5979.56 -268.448 5901.06 -249.239 c 128,-1,847
 5822.56 -230.029 5822.56 -230.029 5770.23 -207.834 c 128,-1,848
 5717.9 -185.638 5717.9 -185.638 5637.03 -148.174 c 128,-1,849
 5556.16 -110.71 5556.16 -110.71 5514.2 -93.891 c 0,850,851
 5497.02 -87.0051 5497.02 -87.0051 5476.41 -87.0051 c 0,852,853
 5438.68 -87.0051 5438.68 -87.0051 5404.37 -107.243 c 128,-1,854
 5370.06 -127.48 5370.06 -127.48 5362.52 -153.938 c 0,855,856
 5359.92 -163.032 5359.92 -163.032 5359.92 -172.496 c 0,857,858
 5359.92 -193.184 5359.92 -193.184 5371.41 -210.847 c 128,-1,859
 5382.91 -228.51 5382.91 -228.51 5401.28 -236.484 c 0,860,861
 5409.48 -240.044 5409.48 -240.044 5415.54 -240.044 c 0,862,863
 5420.97 -240.044 5420.97 -240.044 5425 -237.188 c 0,864,865
 5436.52 -229.024 5436.52 -229.024 5436.52 -222.902 c 0,866,867
 5436.52 -215.811 5436.52 -215.811 5421.53 -214.734 c 0,868,869
 5403.38 -213.431 5403.38 -213.431 5403.38 -191.724 c 0,870,871
 5403.38 -185.674 5403.38 -185.674 5404.98 -178.875 c 0,872,873
 5410.3 -156.497 5410.3 -156.497 5439.55 -156.497 c 0,874,875
 5443.77 -156.497 5443.77 -156.497 5448.43 -156.984 c 0,876,877
 5481.17 -160.406 5481.17 -160.406 5482.14 -188.906 c 2,878,-1
 5482.19 -191.648 l 2,879,880
 5482.19 -217.994 5482.19 -217.994 5467.34 -239.567 c 128,-1,881
 5452.48 -261.14 5452.48 -261.14 5422.97 -261.14 c 0,882,883
 5421.71 -261.14 5421.71 -261.14 5420.41 -261.094 c 0,884,885
 5385.41 -259.81 5385.41 -259.81 5359.54 -236.826 c 128,-1,886
 5333.66 -213.843 5333.66 -213.843 5333.66 -175.633 c 0,887,888
 5333.66 -166.874 5333.66 -166.874 5335.19 -157.688 c 0,889,890
 5342.82 -111.581 5342.82 -111.581 5377.27 -86.1016 c 128,-1,891
 5411.73 -60.6218 5411.73 -60.6218 5457.39 -60.141 c 0,892,893
 5458.62 -60.1281 5458.62 -60.1281 5459.84 -60.1282 c 0,894,895
 5504.37 -60.1282 5504.37 -60.1282 5558.13 -77.9545 c 128,-1,896
 5611.88 -95.7808 5611.88 -95.7808 5666.58 -121.222 c 128,-1,897
 5721.27 -146.664 5721.27 -146.664 5781.49 -172.105 c 128,-1,898
 5841.71 -197.547 5841.71 -197.547 5919.41 -215.373 c 128,-1,899
 5997.11 -233.199 5997.11 -233.199 6076.64 -233.199 c 0,900,901
 6088.85 -233.199 6088.85 -233.199 6101.12 -232.781 c 0,902,903
 6129.7 -231.809 6129.7 -231.809 6157.94 -217.628 c 128,-1,904
 6186.18 -203.448 6186.18 -203.448 6201.25 -180.188 c 0,905,906
 6215.15 -158.734 6215.15 -158.734 6215.15 -138.632 c 0,907,908
 6215.15 -120.461 6215.15 -120.461 6203.12 -98.8596 c 0,909,910
 6195.5 -85.156 6195.5 -85.156 6180.13 -76.4284 c 128,-1,911
 6164.77 -67.7008 6164.77 -67.7008 6148.58 -67.7008 c 0,912,913
 6135.98 -67.7008 6135.98 -67.7008 6126.02 -73.3127 c 1,914,915
 6120.92 -79.0729 6120.92 -79.0729 6120.92 -83.2566 c 0,916,917
 6120.92 -86.0244 6120.92 -86.0244 6123.39 -86.9533 c 1,918,919
 6126.65 -91.0195 6126.65 -91.0195 6134.79 -91.5137 c 128,-1,920
 6142.94 -92.0079 6142.94 -92.0079 6146.17 -94.6408 c 0,921,922
 6155.03 -103.855 6155.03 -103.855 6155.03 -117.553 c 0,923,924
 6155.03 -132.631 6155.03 -132.631 6145.15 -145.047 c 128,-1,925
 6135.27 -157.462 6135.27 -157.462 6121.66 -157.734 c 0,926,927
 6120.68 -157.754 6120.68 -157.754 6119.77 -157.754 c 0,928,929
 6071.32 -157.754 6071.32 -157.754 6071.32 -112.508 c 0,930,931
 6071.32 -109.556 6071.32 -109.556 6071.56 -106.359 c 0,932,933
 6073.68 -76.2241 6073.68 -76.2241 6093.73 -61.9191 c 128,-1,934
 6113.78 -47.6141 6113.78 -47.6141 6155.41 -46.9219 c 0,833,834
4130.27 -47.1094 m 0,935,936
 4130.77 -47.1076 4130.77 -47.1076 4131.26 -47.1076 c 0,937,938
 4175.25 -47.1076 4175.25 -47.1076 4196.34 -61.3709 c 128,-1,939
 4217.42 -75.6343 4217.42 -75.6343 4219.61 -106.547 c 0,940,941
 4219.83 -109.742 4219.83 -109.742 4219.82 -112.696 c 0,942,943
 4219.83 -157.988 4219.83 -157.988 4171.4 -157.988 c 0,944,945
 4170.5 -157.988 4170.5 -157.988 4169.5 -157.969 c 0,946,947
 4155.89 -157.696 4155.89 -157.696 4145.99 -145.257 c 128,-1,948
 4136.09 -132.817 4136.09 -132.817 4136.09 -117.724 c 0,949,950
 4136.09 -104.036 4136.09 -104.036 4144.94 -94.8281 c 0,951,952
 4148.16 -92.195 4148.16 -92.195 4156.34 -91.7009 c 128,-1,953
 4164.51 -91.2067 4164.51 -91.2067 4167.77 -87.1406 c 1,954,955
 4170.24 -86.2118 4170.24 -86.2118 4170.24 -83.4443 c 0,956,957
 4170.24 -79.2771 4170.24 -79.2771 4165.14 -73.5 c 1,958,959
 4155.17 -67.8881 4155.17 -67.8881 4142.58 -67.8881 c 0,960,961
 4126.39 -67.8881 4126.39 -67.8881 4111.02 -76.6145 c 128,-1,962
 4095.66 -85.3408 4095.66 -85.3408 4088.03 -99.0469 c 0,963,964
 4076.01 -120.661 4076.01 -120.661 4076.01 -138.819 c 0,965,966
 4076.01 -158.944 4076.01 -158.944 4089.91 -180.375 c 0,967,968
 4104.99 -203.635 4104.99 -203.635 4133.22 -217.816 c 128,-1,969
 4161.45 -231.997 4161.45 -231.997 4190.03 -232.969 c 0,970,971
 4202.32 -233.387 4202.32 -233.387 4214.51 -233.387 c 0,972,973
 4294.05 -233.387 4294.05 -233.387 4371.74 -215.561 c 128,-1,974
 4449.44 -197.734 4449.44 -197.734 4509.65 -172.293 c 128,-1,975
 4569.86 -146.851 4569.86 -146.851 4624.55 -121.409 c 128,-1,976
 4679.24 -95.9678 4679.24 -95.9678 4732.99 -78.1414 c 128,-1,977
 4786.74 -60.315 4786.74 -60.315 4831.27 -60.315 c 0,978,979
 4832.49 -60.315 4832.49 -60.315 4833.72 -60.3276 c 0,980,981
 4879.37 -60.8086 4879.37 -60.8086 4913.85 -86.3108 c 128,-1,982
 4948.34 -111.813 4948.34 -111.813 4955.97 -157.922 c 0,983,984
 4957.49 -167.141 4957.49 -167.141 4957.49 -175.867 c 0,985,986
 4957.49 -214.077 4957.49 -214.077 4931.62 -237.06 c 128,-1,987
 4905.75 -260.044 4905.75 -260.044 4870.75 -261.328 c 0,988,989
 4869.46 -261.374 4869.46 -261.374 4868.18 -261.374 c 0,990,991
 4838.67 -261.374 4838.67 -261.374 4823.79 -239.794 c 128,-1,992
 4808.92 -218.214 4808.92 -218.214 4808.92 -191.875 c 2,993,-1
 4808.97 -189.141 l 2,994,995
 4809.38 -177.022 4809.38 -177.022 4817.58 -167.979 c 128,-1,996
 4825.78 -158.936 4825.78 -158.936 4842.67 -157.172 c 0,997,998
 4847.31 -156.687 4847.31 -156.687 4851.52 -156.687 c 0,999,1000
 4880.86 -156.687 4880.86 -156.687 4886.17 -179.109 c 0,1001,1002
 4887.77 -185.837 4887.77 -185.837 4887.77 -191.95 c 0,1003,1004
 4887.77 -213.618 4887.77 -213.618 4869.62 -214.922 c 0,1005,1006
 4862.24 -215.452 4862.24 -215.452 4858.42 -217.594 c 128,-1,1007
 4854.61 -219.736 4854.61 -219.736 4854.61 -223.132 c 0,1008,1009
 4854.61 -229.273 4854.61 -229.273 4866.11 -237.422 c 0,1010,1011
 4870.12 -240.257 4870.12 -240.257 4875.51 -240.257 c 0,1012,1013
 4881.57 -240.257 4881.57 -240.257 4889.83 -236.672 c 0,1014,1015
 4908.22 -228.691 4908.22 -228.691 4919.72 -211.035 c 128,-1,1016
 4931.23 -193.379 4931.23 -193.379 4931.23 -172.699 c 0,1017,1018
 4931.23 -163.27 4931.23 -163.27 4928.64 -154.172 c 0,1019,1020
 4921.09 -127.707 4921.09 -127.707 4886.77 -107.452 c 128,-1,1021
 4852.45 -87.1971 4852.45 -87.1971 4814.72 -87.1971 c 0,1022,1023
 4794.13 -87.1971 4794.13 -87.1971 4776.95 -94.0778 c 0,1024,1025
 4734.99 -110.895 4734.99 -110.895 4654.13 -148.361 c 128,-1,1026
 4573.26 -185.827 4573.26 -185.827 4520.93 -208.021 c 128,-1,1027
 4468.6 -230.216 4468.6 -230.216 4390.1 -249.425 c 128,-1,1028
 4311.6 -268.635 4311.6 -268.635 4237.75 -268.635 c 0,1029,1030
 4199 -268.635 4199 -268.635 4159.89 -263.812 c 0,1031,1032
 4104.17 -256.941 4104.17 -256.941 4074.91 -225.144 c 128,-1,1033
 4045.65 -193.346 4045.65 -193.346 4042.84 -153.844 c 0,1034,1035
 4042.58 -150.22 4042.58 -150.22 4042.6 -146.52 c 0,1036,1037
 4042.59 -108.364 4042.59 -108.364 4066.18 -77.8071 c 128,-1,1038
 4089.77 -47.2498 4089.77 -47.2498 4130.27 -47.1094 c 0,935,936
EndSplineSet
EndChar

